<svg viewBox="0 0 16 16" fill="none" xmlns="http://www.w3.org/2000/svg">
<path fill-rule="evenodd" clip-rule="evenodd" d="M4.36115 1.57937C2.89661 1.77279 1.77267 2.89674 1.57925 4.36127C1.44627 5.3681 1.33325 6.62756 1.33325 8.00004C1.33325 9.37252 1.44627 10.632 1.57925 11.6388C1.77267 13.1033 2.89661 14.2273 4.36114 14.4207C5.36797 14.5537 6.62743 14.6667 7.99992 14.6667C9.3724 14.6667 10.6319 14.5537 11.6387 14.4207C13.1032 14.2273 14.2272 13.1033 14.4206 11.6388C14.5536 10.632 14.6666 9.37253 14.6666 8.00004C14.6666 6.62756 14.5536 5.3681 14.4206 4.36127C14.2272 2.89674 13.1032 1.77279 11.6387 1.57937C10.6319 1.4464 9.3724 1.33337 7.99992 1.33337C6.62743 1.33337 5.36797 1.4464 4.36115 1.57937ZM7.99992 4.66671C7.63173 4.66671 7.33325 4.96518 7.33325 5.33337V7.33337H5.33325C4.96506 7.33337 4.66659 7.63185 4.66659 8.00004C4.66659 8.36823 4.96506 8.66671 5.33325 8.66671H7.33325V10.6667C7.33325 11.0349 7.63173 11.3334 7.99992 11.3334C8.36811 11.3334 8.66659 11.0349 8.66659 10.6667V8.66671H10.6666C11.0348 8.66671 11.3333 8.36823 11.3333 8.00004C11.3333 7.63185 11.0348 7.33337 10.6666 7.33337H8.66659V5.33337C8.66659 4.96518 8.36811 4.66671 7.99992 4.66671Z" fill="currentColor"/>
</svg>
