<svg viewBox="0 0 44 44" fill="none" xmlns="http://www.w3.org/2000/svg">
<rect width="44" height="44" rx="9.77778" fill="#00D47E"/>
<path d="M25.3497 13.395C24.9287 12.7151 23.9274 12.7251 23.5249 13.4234L22.0187 16.0333L21.5992 16.7572L14.1081 29.7325L12.2876 32.8871C12.0984 33.2114 11.831 33.4745 11.5167 33.658C11.2024 33.8386 10.8411 33.9396 10.4642 33.9396C9.71186 33.9396 9.01779 33.5414 8.64089 32.8871C8.26684 32.2372 8.26684 31.4364 8.64089 30.785L20.1954 10.7751C20.5709 10.1237 21.2664 9.72266 22.0187 9.72266C22.7711 9.72266 23.4652 10.1237 23.8378 10.7751L25.3511 13.395H25.3497Z" fill="#141416"/>
<path d="M26.5959 15.552L24.168 19.7576L22.0176 16.0341L23.5238 13.4243C23.9263 12.7259 24.9275 12.7145 25.3485 13.3958L26.5944 15.5534L26.5959 15.552Z" fill="#141416"/>
<path d="M35.3912 32.8848C35.0157 33.539 34.3231 33.9373 33.5707 33.9373H23.0957C22.0959 33.9373 21.4701 32.8563 21.965 31.9888C21.9664 31.9873 21.9664 31.9845 21.9693 31.9831L23.2707 29.7302H29.9297L27.3312 25.2301L27.7608 24.4891L29.759 21.0273L35.3912 30.7827C35.7681 31.4341 35.7681 32.2362 35.3912 32.8848Z" fill="#141416"/>
<path d="M32.1013 14.4308L29.0264 19.7558L26.5985 23.9615L23.269 29.7288L21.9676 31.9816C21.9676 31.9816 21.9662 31.9859 21.9634 31.9873C21.4684 32.8549 22.0942 33.9358 23.0941 33.9358H18.2626C17.8786 33.9358 17.5501 33.778 17.3154 33.5333C17.287 33.502 17.2585 33.4722 17.2315 33.4395C17.1291 33.3058 17.048 33.1564 16.9997 32.9929C16.9911 32.9616 16.9826 32.9317 16.9769 32.9004C16.9712 32.8777 16.9669 32.8535 16.9627 32.8307C16.9613 32.8222 16.9613 32.8165 16.9584 32.808C16.957 32.798 16.957 32.7895 16.957 32.7795C16.9527 32.7596 16.9513 32.7411 16.9485 32.7198C16.93 32.4666 16.9812 32.2035 17.1234 31.9589L18.4105 29.7288L24.1693 19.7544L26.5971 15.5487L28.4574 12.3259C29.2568 10.942 31.2465 10.9178 32.0785 12.2832C32.4796 12.9403 32.4882 13.7652 32.1027 14.4308H32.1013Z" fill="#141416"/>
<path d="M35.3688 8.92016C35.5557 7.76877 34.7738 6.68387 33.6224 6.49697C32.471 6.31007 31.3861 7.09195 31.1992 8.24335C31.0123 9.39474 31.7942 10.4796 32.9456 10.6665C34.097 10.8534 35.1819 10.0716 35.3688 8.92016Z" fill="#141416"/>
<g style="mix-blend-mode:multiply" opacity="0.5">
<path d="M23.0161 32.7343C23.1384 32.4968 23.8893 31.1897 24.7299 29.7305H23.2707L21.9693 31.9833C21.9693 31.9833 21.9679 31.9876 21.965 31.989C21.4701 32.8566 22.0959 33.9375 23.0957 33.9375C22.8383 33.7882 22.7174 33.3117 23.0146 32.7343H23.0161Z" fill="#141416"/>
</g>
</svg>
