<svg viewBox="0 0 128 128" fill="none" xmlns="http://www.w3.org/2000/svg">
<rect x="12.75" y="12.75" width="102.5" height="102.5" rx="24.125" fill="#00D47E"/>
<path d="M71.8026 43.9493C70.8218 42.3656 68.4893 42.3888 67.5517 44.0156L64.043 50.0954L63.0655 51.7818L45.6147 82.0085L41.3738 89.3572C40.9331 90.1127 40.3102 90.7256 39.578 91.153C38.8458 91.5738 38.0042 91.809 37.1262 91.809C35.3735 91.809 33.7566 90.8813 32.8786 89.3572C32.0073 87.8431 32.0073 85.9777 32.8786 84.4603L59.7954 37.8463C60.6701 36.3289 62.2902 35.3945 64.043 35.3945C65.7957 35.3945 67.4125 36.3289 68.2806 37.8463L71.8059 43.9493H71.8026Z" fill="#141416"/>
<path d="M74.7049 48.9788L69.0492 58.776L64.0396 50.102L67.5483 44.0222C68.4859 42.3954 70.8184 42.3689 71.7992 43.9559L74.7015 48.9821L74.7049 48.9788Z" fill="#141416"/>
<path d="M95.1942 89.3572C94.3195 90.8813 92.7059 91.809 90.9532 91.809H66.5512C64.222 91.809 62.7642 89.2909 63.9172 87.2698C63.9205 87.2665 63.9205 87.2599 63.9272 87.2566L66.9588 82.0084H82.4713L76.4181 71.5253L77.4187 69.7991L82.0738 61.7347L95.1942 84.4602C96.0722 85.9777 96.0722 87.8463 95.1942 89.3572Z" fill="#141416"/>
<path d="M87.5303 46.3745L80.3671 58.7792L74.7114 68.5765L66.9551 82.0117L63.9235 87.2598C63.9235 87.2598 63.9202 87.2698 63.9136 87.2731C62.7606 89.2942 64.2184 91.8122 66.5476 91.8122H55.2925C54.398 91.8122 53.6326 91.4445 53.0859 90.8746C53.0197 90.8017 52.9534 90.7321 52.8904 90.6559C52.6519 90.3445 52.463 89.9966 52.3504 89.6156C52.3305 89.5427 52.3106 89.4731 52.2974 89.4002C52.2841 89.3472 52.2742 89.2909 52.2642 89.2378C52.2609 89.218 52.2609 89.2047 52.2543 89.1848C52.251 89.1616 52.251 89.1418 52.251 89.1186C52.2411 89.0722 52.2377 89.0291 52.2311 88.9794C52.188 88.3897 52.3073 87.7767 52.6386 87.2068L55.6371 82.0117L69.0524 58.7759L74.7081 48.9787L79.0418 41.4709C80.9039 38.2471 85.5391 38.1908 87.4773 41.3715C88.4117 42.9022 88.4315 44.8239 87.5337 46.3745H87.5303Z" fill="#141416"/>
<path d="M95.1417 33.5334C95.577 30.8511 93.7556 28.3238 91.0734 27.8884C88.3912 27.453 85.8639 29.2745 85.4285 31.9567C84.9931 34.6389 86.8145 37.1662 89.4967 37.6016C92.179 38.037 94.7063 36.2156 95.1417 33.5334Z" fill="#141416"/>
<g style="mix-blend-mode:multiply" opacity="0.5">
<path d="M66.3657 89.006C66.6506 88.4526 68.4 85.4078 70.3582 82.0084H66.9588L63.9272 87.2566C63.9272 87.2566 63.9238 87.2665 63.9172 87.2698C62.7642 89.2909 64.222 91.809 66.5512 91.809C65.9515 91.4611 65.6699 90.3511 66.3624 89.006H66.3657Z" fill="#141416"/>
</g>
</svg>
