<svg width="20" height="21" viewBox="0 0 20 21" fill="none" xmlns="http://www.w3.org/2000/svg">
<rect x="2.5" y="17.6494" width="15" height="15" transform="rotate(-90 2.5 17.6494)" stroke="#6C7275" stroke-width="1.25" stroke-linejoin="round"/>
<rect x="2.5" y="17.6494" width="15" height="15" transform="rotate(-90 2.5 17.6494)" stroke="black" stroke-opacity="0.2" stroke-width="1.25" stroke-linejoin="round"/>
<rect x="2.5" y="17.6494" width="15" height="15" transform="rotate(-90 2.5 17.6494)" stroke="black" stroke-opacity="0.2" stroke-width="1.25" stroke-linejoin="round"/>
<rect x="2.5" y="17.6494" width="15" height="15" transform="rotate(-90 2.5 17.6494)" stroke="black" stroke-opacity="0.2" stroke-width="1.25" stroke-linejoin="round"/>
<rect x="2.5" y="17.6494" width="15" height="5.83333" transform="rotate(-90 2.5 17.6494)" stroke="#6C7275" stroke-width="1.25" stroke-linejoin="round"/>
<rect x="2.5" y="17.6494" width="15" height="5.83333" transform="rotate(-90 2.5 17.6494)" stroke="black" stroke-opacity="0.2" stroke-width="1.25" stroke-linejoin="round"/>
<rect x="2.5" y="17.6494" width="15" height="5.83333" transform="rotate(-90 2.5 17.6494)" stroke="black" stroke-opacity="0.2" stroke-width="1.25" stroke-linejoin="round"/>
<rect x="2.5" y="17.6494" width="15" height="5.83333" transform="rotate(-90 2.5 17.6494)" stroke="black" stroke-opacity="0.2" stroke-width="1.25" stroke-linejoin="round"/>
<path d="M3.75 6.81641H7.08333" stroke="#6C7275" stroke-width="1.25" stroke-linejoin="round"/>
<path d="M3.75 6.81641H7.08333" stroke="black" stroke-opacity="0.2" stroke-width="1.25" stroke-linejoin="round"/>
<path d="M3.75 6.81641H7.08333" stroke="black" stroke-opacity="0.2" stroke-width="1.25" stroke-linejoin="round"/>
<path d="M3.75 6.81641H7.08333" stroke="black" stroke-opacity="0.2" stroke-width="1.25" stroke-linejoin="round"/>
<path d="M3.75 13.4824H7.08333" stroke="#6C7275" stroke-width="1.25" stroke-linejoin="round"/>
<path d="M3.75 13.4824H7.08333" stroke="black" stroke-opacity="0.2" stroke-width="1.25" stroke-linejoin="round"/>
<path d="M3.75 13.4824H7.08333" stroke="black" stroke-opacity="0.2" stroke-width="1.25" stroke-linejoin="round"/>
<path d="M3.75 13.4824H7.08333" stroke="black" stroke-opacity="0.2" stroke-width="1.25" stroke-linejoin="round"/>
<path d="M3.75 10.1494H7.08333" stroke="#6C7275" stroke-width="1.25" stroke-linejoin="round"/>
<path d="M3.75 10.1494H7.08333" stroke="black" stroke-opacity="0.2" stroke-width="1.25" stroke-linejoin="round"/>
<path d="M3.75 10.1494H7.08333" stroke="black" stroke-opacity="0.2" stroke-width="1.25" stroke-linejoin="round"/>
<path d="M3.75 10.1494H7.08333" stroke="black" stroke-opacity="0.2" stroke-width="1.25" stroke-linejoin="round"/>
</svg>
