<svg width="20" height="20" viewBox="0 0 20 20" fill="none" xmlns="http://www.w3.org/2000/svg">
<rect width="20" height="20" rx="10" fill="#00AB66"/>
<path d="M11.5224 6.09147C11.331 5.78245 10.8759 5.78697 10.6929 6.1044L10.0083 7.2907L9.81761 7.61976L6.41257 13.5176L5.58507 14.9515C5.49908 15.0989 5.37754 15.2185 5.23467 15.3019C5.0918 15.384 4.92759 15.4299 4.75627 15.4299C4.41428 15.4299 4.0988 15.2489 3.92748 14.9515C3.75745 14.6561 3.75745 14.2921 3.92748 13.996L9.17952 4.90064C9.3502 4.60455 9.66633 4.42224 10.0083 4.42224C10.3503 4.42224 10.6658 4.60455 10.8352 4.90064L11.523 6.09147H11.5224Z" fill="white"/>
<path d="M12.0888 7.07307L10.9852 8.98473L10.0077 7.29223L10.6923 6.10593C10.8753 5.78851 11.3304 5.78333 11.5218 6.093L12.0881 7.07372L12.0888 7.07307Z" fill="white"/>
<path d="M16.0866 14.9519C15.9159 15.2493 15.6011 15.4303 15.2591 15.4303H10.4977C10.0432 15.4303 9.75879 14.939 9.98377 14.5446C9.98441 14.544 9.98441 14.5427 9.98571 14.542L10.5772 13.518H13.6041L12.423 11.4725L12.6182 11.1357L13.5265 9.56213L16.0866 13.9964C16.2579 14.2925 16.2579 14.6571 16.0866 14.9519Z" fill="white"/>
<path d="M14.5912 6.56544L13.1935 8.98588L12.09 10.8975L10.5766 13.519L9.98503 14.5431C9.98503 14.5431 9.98439 14.545 9.98309 14.5457C9.75812 14.94 10.0426 15.4313 10.497 15.4313H8.30094C8.12639 15.4313 7.97705 15.3596 7.87038 15.2484C7.85745 15.2342 7.84452 15.2206 7.83224 15.2057C7.78569 15.1449 7.74884 15.0771 7.72686 15.0027C7.72298 14.9885 7.7191 14.9749 7.71651 14.9607C7.71393 14.9504 7.71199 14.9394 7.71005 14.929C7.7094 14.9251 7.7094 14.9226 7.70811 14.9187C7.70746 14.9141 7.70746 14.9103 7.70746 14.9057C7.70552 14.8967 7.70488 14.8883 7.70359 14.8786C7.69518 14.7635 7.71845 14.6439 7.7831 14.5327L8.36817 13.519L10.9858 8.98523L12.0893 7.07357L12.9349 5.60864C13.2983 4.97961 14.2027 4.96862 14.5809 5.58924C14.7632 5.88792 14.7671 6.26288 14.5919 6.56544H14.5912Z" fill="white"/>
<path d="M16.0764 4.05972C16.1613 3.53636 15.8059 3.04323 15.2826 2.95827C14.7592 2.87332 14.2661 3.22872 14.1811 3.75208C14.0962 4.27544 14.4516 4.76858 14.9749 4.85353C15.4983 4.93848 15.9914 4.58308 16.0764 4.05972Z" fill="white"/>
<g style="mix-blend-mode:multiply" opacity="0.5">
<path d="M10.4615 14.8819C10.5171 14.7739 10.8585 14.1798 11.2406 13.5165H10.5773L9.98574 14.5405C9.98574 14.5405 9.98509 14.5425 9.9838 14.5431C9.75882 14.9375 10.0433 15.4288 10.4978 15.4288C10.3807 15.3609 10.3258 15.1443 10.4609 14.8819H10.4615Z" fill="white"/>
</g>
</svg>
