<svg width="16" height="16" viewBox="0 0 16 16" fill="none" xmlns="http://www.w3.org/2000/svg">
<rect width="16" height="16" rx="8" fill="#141718"/>
<path d="M9.21798 4.87322C9.06489 4.62601 8.70079 4.62963 8.55443 4.88357L8.00673 5.83261L7.85416 6.09586L5.13013 10.8142L4.46813 11.9613C4.39934 12.0792 4.30211 12.1749 4.18781 12.2416C4.07351 12.3073 3.94214 12.344 3.80509 12.344C3.5315 12.344 3.27911 12.1992 3.14205 11.9613C3.00603 11.7249 3.00603 11.4338 3.14205 11.1969L7.34369 3.92056C7.48023 3.68369 7.73314 3.53784 8.00673 3.53784C8.28032 3.53784 8.53271 3.68369 8.66821 3.92056L9.2185 4.87322H9.21798Z" fill="#00D47E"/>
<path d="M9.67093 5.65846L8.78809 7.18778L8.0061 5.83379L8.55381 4.88474C8.70017 4.63081 9.06427 4.62667 9.21736 4.8744L9.67042 5.65898L9.67093 5.65846Z" fill="#00D47E"/>
<path d="M12.8692 11.9615C12.7327 12.1994 12.4808 12.3442 12.2072 12.3442H8.39815C8.03457 12.3442 7.80701 11.9511 7.98699 11.6356C7.98751 11.6351 7.98751 11.6341 7.98854 11.6336L8.46177 10.8143H10.8832L9.93834 9.17795L10.0945 8.9085L10.8212 7.64966L12.8692 11.1971C13.0063 11.4339 13.0063 11.7256 12.8692 11.9615Z" fill="#00D47E"/>
<path d="M11.6731 5.2524L10.5549 7.18875L9.67206 8.71808L8.46133 10.8153L7.9881 11.6345C7.9881 11.6345 7.98758 11.6361 7.98655 11.6366C7.80657 11.9521 8.03413 12.3451 8.39771 12.3451H6.64082C6.50118 12.3451 6.38171 12.2877 6.29638 12.1988C6.28603 12.1874 6.27569 12.1765 6.26586 12.1646C6.22862 12.116 6.19914 12.0617 6.18156 12.0022C6.17846 11.9908 6.17535 11.98 6.17329 11.9686C6.17122 11.9603 6.16966 11.9515 6.16811 11.9433C6.1676 11.9402 6.1676 11.9381 6.16656 11.935C6.16604 11.9314 6.16604 11.9283 6.16604 11.9246C6.16449 11.9174 6.16398 11.9107 6.16294 11.9029C6.15622 11.8109 6.17484 11.7152 6.22656 11.6262L6.69461 10.8153L8.78871 7.18823L9.67155 5.65891L10.348 4.48696C10.6387 3.98373 11.3622 3.97494 11.6648 4.47144C11.8106 4.71038 11.8137 5.01035 11.6736 5.2524H11.6731Z" fill="#00D47E"/>
<path d="M12.8612 3.24778C12.9291 2.82909 12.6448 2.43458 12.2261 2.36662C11.8075 2.29866 11.4129 2.58298 11.345 3.00166C11.277 3.42035 11.5613 3.81486 11.98 3.88282C12.3987 3.95079 12.7932 3.66647 12.8612 3.24778Z" fill="#00D47E"/>
<g style="mix-blend-mode:multiply" opacity="0.5">
<path d="M8.36919 11.9055C8.41367 11.8192 8.68674 11.3439 8.9924 10.8132H8.46177L7.98854 11.6325C7.98854 11.6325 7.98802 11.634 7.98699 11.6345C7.80701 11.95 8.03457 12.3431 8.39815 12.3431C8.30454 12.2888 8.26058 12.1155 8.36867 11.9055H8.36919Z" fill="#00D47E"/>
</g>
</svg>
