<svg width="35" height="35" viewBox="0 0 35 35" fill="none" xmlns="http://www.w3.org/2000/svg">
<path d="M18.2882 2.56726H20.2583V5.6947C23.9726 5.71555 27.6907 5.65642 31.4009 5.71213C32.2 5.63591 32.8259 6.25901 32.7459 7.05676C32.805 13.5478 32.7319 20.042 32.7801 26.5365C32.7459 27.2382 32.8484 28.0164 32.4465 28.6385C31.9392 29.0066 31.2792 28.9581 30.6848 28.9861C27.2101 28.9687 23.7354 28.9755 20.2573 28.9755V32.4502H18.0968C12.8013 31.484 7.49529 30.6014 2.19641 29.6704C2.19299 21.5636 2.19299 13.4582 2.19641 5.35393C7.55818 4.42629 12.9199 3.48123 18.2882 2.56726Z" fill="#00D47E"/>
<path d="M11.6593 15.4095C11.5191 15.183 11.1855 15.1864 11.0515 15.419L10.5497 16.2884L10.41 16.5295L7.91459 20.8518L7.30816 21.9026C7.24514 22.0106 7.15607 22.0983 7.05137 22.1594C6.94666 22.2196 6.82632 22.2532 6.70077 22.2532C6.45015 22.2532 6.21894 22.1206 6.09339 21.9026C5.96879 21.6861 5.96879 21.4194 6.09339 21.2024L9.94236 14.5368C10.0674 14.3198 10.2991 14.1862 10.5497 14.1862C10.8004 14.1862 11.0316 14.3198 11.1557 14.5368L11.6598 15.4095H11.6593Z" fill="#00AB66"/>
<path d="M12.0743 16.1286L11.2656 17.5295L10.5493 16.2892L11.051 15.4198C11.1851 15.1872 11.5186 15.1834 11.6588 15.4103L12.0739 16.129L12.0743 16.1286Z" fill="#00AB66"/>
<path d="M15.0042 21.9025C14.8791 22.1204 14.6484 22.253 14.3978 22.253H10.9084C10.5753 22.253 10.3669 21.893 10.5318 21.604C10.5322 21.6035 10.5322 21.6026 10.5332 21.6021L10.9667 20.8516H13.1849L12.3193 19.3526L12.4624 19.1057L13.1281 17.9526L15.0042 21.2022C15.1298 21.4192 15.1298 21.6864 15.0042 21.9025Z" fill="#00AB66"/>
<path d="M13.9082 15.7561L12.8839 17.5299L12.0752 18.9309L10.966 20.8521L10.5325 21.6025C10.5325 21.6025 10.5321 21.604 10.5311 21.6044C10.3662 21.8934 10.5747 22.2535 10.9078 22.2535H9.29835C9.17043 22.2535 9.06099 22.2009 8.98282 22.1194C8.97334 22.109 8.96387 22.099 8.95487 22.0882C8.92075 22.0436 8.89375 21.9939 8.87764 21.9394C8.8748 21.929 8.87196 21.919 8.87006 21.9086C8.86816 21.901 8.86674 21.893 8.86532 21.8854C8.86485 21.8825 8.86485 21.8806 8.8639 21.8778C8.86343 21.8745 8.86343 21.8716 8.86343 21.8683C8.86201 21.8617 8.86153 21.8555 8.86058 21.8484C8.85443 21.7641 8.87148 21.6764 8.91886 21.595L9.34763 20.8521L11.2659 17.5295L12.0747 16.1285L12.6944 15.0549C12.9606 14.5939 13.6235 14.5859 13.9006 15.0407C14.0342 15.2596 14.0371 15.5344 13.9087 15.7561H13.9082Z" fill="#00AB66"/>
<path d="M14.9966 13.92C15.0589 13.5364 14.7984 13.175 14.4149 13.1128C14.0313 13.0505 13.6699 13.311 13.6077 13.6945C13.5454 14.0781 13.8059 14.4394 14.1894 14.5017C14.5729 14.564 14.9343 14.3035 14.9966 13.92Z" fill="#00AB66"/>
<g style="mix-blend-mode:multiply" opacity="0.5">
<path d="M10.8819 21.8525C10.9226 21.7734 11.1728 21.338 11.4528 20.8519H10.9667L10.5332 21.6023C10.5332 21.6023 10.5327 21.6038 10.5318 21.6042C10.3669 21.8932 10.5753 22.2533 10.9084 22.2533C10.8227 22.2036 10.7824 22.0448 10.8814 21.8525H10.8819Z" fill="#00AB66"/>
</g>
<path d="M20.1425 6.73718V27.933H31.6091V6.73718H20.1425ZM25.4762 19.4951C25.3533 19.6052 25.1938 19.6654 25.0288 19.6639C24.8673 19.6628 24.7126 19.5987 24.5976 19.4851C24.4827 19.3716 24.4167 19.2177 24.4136 19.0562C24.4136 18.8762 24.4754 18.7327 24.5991 18.6256C24.706 18.513 24.8496 18.4567 25.0298 18.4567C25.2155 18.4567 25.3647 18.513 25.4772 18.6256C25.5955 18.7324 25.6546 18.876 25.6546 19.0562C25.6564 19.1377 25.6416 19.2187 25.6109 19.2941C25.5802 19.3696 25.5344 19.438 25.4762 19.4951ZM26.6834 16.2012C26.5991 16.3026 26.3599 16.5221 25.9656 16.8598C25.8241 16.9803 25.7066 17.1264 25.6194 17.2905C25.5262 17.4642 25.4791 17.659 25.4827 17.8562V17.9997H24.5814V17.8562C24.5814 17.5353 24.6348 17.2679 24.7417 17.054C24.8599 16.8234 25.1808 16.4744 25.7042 16.0071L25.8477 15.8468C25.9997 15.6499 26.0757 15.4448 26.0757 15.2315C26.0757 14.9444 25.9941 14.7137 25.831 14.5394C25.6621 14.3712 25.4258 14.2871 25.1221 14.2871C24.7393 14.2871 24.4634 14.4053 24.2946 14.6416C24.1426 14.8441 24.0666 15.134 24.0666 15.5111H23.1715C23.1715 14.8977 23.3516 14.4137 23.7118 14.0592C24.0664 13.6991 24.5532 13.519 25.1723 13.5188C25.724 13.5188 26.1658 13.6679 26.4978 13.9662C26.8298 14.2645 26.9958 14.6669 26.9958 15.1734C26.9958 15.5836 26.8917 15.9262 26.6834 16.2012Z" fill="white"/>
</svg>
