<svg width="20" height="20" viewBox="0 0 20 20" fill="none" xmlns="http://www.w3.org/2000/svg">
<path d="M16.0858 4.44754C14.9343 3.91903 13.7183 3.54442 12.4691 3.33337C12.3099 3.60754 12.1333 3.97921 12.0091 4.27087C10.6806 4.07634 9.33089 4.07634 8.00242 4.27087C7.87826 3.97921 7.69159 3.60754 7.54159 3.33337C6.29123 3.54193 5.07435 3.91664 3.92326 4.44754C1.63409 7.82587 1.01492 11.125 1.32492 14.3792C2.66626 15.364 4.16466 16.1146 5.75659 16.5992C6.11421 16.1165 6.43087 15.6047 6.70326 15.0692C6.18076 14.8742 5.68659 14.6359 5.20826 14.3525C5.33242 14.2642 5.45576 14.1667 5.57076 14.0692C8.45409 15.3875 11.5766 15.3875 14.4241 14.0692C14.5483 14.1667 14.6633 14.2642 14.7866 14.3525C14.3091 14.6359 13.8141 14.8742 13.2924 15.0692C13.5645 15.6047 13.8809 16.1164 14.2383 16.5992C15.8308 16.1161 17.3294 15.3654 18.6699 14.3792C19.0508 10.6125 18.0683 7.33921 16.0866 4.44754H16.0858ZM7.09992 12.3717C6.23326 12.3717 5.52576 11.5842 5.52576 10.6209C5.52576 9.65671 6.21575 8.86921 7.10076 8.86921C7.97576 8.86921 8.69242 9.65671 8.67409 10.6209C8.67409 11.5842 7.97576 12.3709 7.09992 12.3709V12.3717ZM12.9116 12.3717C12.0449 12.3717 11.3366 11.5842 11.3366 10.6209C11.3366 9.65671 12.0266 8.86921 12.9116 8.86921C13.7866 8.86921 14.5033 9.65671 14.4858 10.6209C14.4858 11.5842 13.7958 12.3709 12.9108 12.3709L12.9116 12.3717Z" fill="currentColor"/>
</svg>
