<svg width="35" height="36" viewBox="0 0 35 36" fill="none" xmlns="http://www.w3.org/2000/svg">
<path d="M18.2376 3.06348H20.3027V5.84263C23.7802 5.84263 27.2573 5.84946 30.7347 5.83203C31.3219 5.8563 31.9683 5.8146 32.4779 6.16562C32.8357 6.67832 32.7941 7.33286 32.8197 7.92349C32.8024 13.9542 32.8001 19.9825 32.8128 26.0086C32.7954 27.0197 32.9065 28.0512 32.6949 29.0482C32.5534 29.7694 31.6846 29.7869 31.1035 29.8111C27.5044 29.8217 23.9022 29.8043 20.2997 29.8111V32.9365H18.144C12.8495 31.9744 7.54483 31.085 2.24356 30.1574V5.84468C7.57628 4.91704 12.9086 4.00376 18.2376 3.06348Z" fill="#207245"/>
<path d="M20.3027 6.88342H31.7666V28.769H20.3027V26.6841H23.0819V24.2532H20.3027V22.8635H23.0819V20.4319H20.3027V19.0422H23.0819V16.6106H20.3027V15.2209H23.0819V12.7893H20.3027V11.3996H23.0819V8.9677H20.3027V6.88342Z" fill="white"/>
<path d="M24.4699 8.96765H29.3333V11.3995H24.4699V8.96765ZM24.4699 12.7893H29.3333V15.2212H24.4699V12.7893ZM24.4699 16.6106H29.3333V19.0425H24.4699V16.6106ZM24.4699 20.4319H29.3333V22.8637H24.4699V20.4319ZM24.4699 24.2531H29.3333V26.685H24.4699V24.2531Z" fill="#207245"/>
<path d="M3.36603 19.3385L4.70929 17.1229L3.49215 15.093H4.41979L5.20797 16.4571L5.98146 15.093H6.90123L5.67863 17.1551L7.02189 19.3388H6.06486L5.19362 17.8691L4.31964 19.3388L3.36603 19.3385ZM7.44913 19.3385V15.1289H8.24279V18.6231H10.216V19.3385H7.44913ZM10.5807 17.9573L11.3528 17.8763C11.3984 18.1561 11.4926 18.3612 11.6355 18.4915C11.7783 18.6218 11.97 18.6876 12.2104 18.6887C12.466 18.6887 12.6586 18.6303 12.788 18.5134C12.9174 18.3965 12.9823 18.2598 12.9825 18.1032C12.985 18.0111 12.9562 17.9208 12.9008 17.8472C12.8463 17.7766 12.7512 17.7153 12.6154 17.6633C12.5224 17.6285 12.3106 17.5666 11.98 17.4777C11.5546 17.3638 11.2561 17.2238 11.0845 17.0577C10.9678 16.9484 10.8753 16.8159 10.813 16.6688C10.7506 16.5216 10.7198 16.363 10.7225 16.2032C10.7221 15.9889 10.7813 15.7787 10.8934 15.5961C11.0089 15.4071 11.1793 15.2578 11.3818 15.1682C11.5954 15.0695 11.8532 15.0202 12.1553 15.0202C12.6487 15.0202 13.02 15.137 13.2692 15.3705C13.5185 15.6041 13.6494 15.9159 13.662 16.306L12.8683 16.3436C12.8344 16.1256 12.7616 15.9687 12.6499 15.873C12.5383 15.7773 12.3708 15.7294 12.1475 15.7294C11.9169 15.7294 11.7363 15.7806 11.6057 15.8829C11.5652 15.9135 11.5325 15.9535 11.5106 15.9993C11.4886 16.0452 11.478 16.0956 11.4796 16.1464C11.4793 16.1954 11.4897 16.2438 11.5101 16.2883C11.5304 16.3328 11.5603 16.3724 11.5975 16.4041C11.6976 16.4953 11.9406 16.59 12.3266 16.6882C12.7126 16.7864 12.9981 16.8881 13.1831 16.9934C13.3643 17.0953 13.5143 17.2445 13.6172 17.4251C13.7218 17.6074 13.7741 17.8328 13.7741 18.1015C13.7749 18.3422 13.71 18.5785 13.5864 18.7851C13.4644 18.9951 13.2789 19.161 13.0567 19.2588C12.8288 19.3623 12.544 19.414 12.2022 19.414C11.7052 19.414 11.3236 19.2899 11.0575 19.0418C10.7913 18.7936 10.6324 18.4321 10.5807 17.9573Z" fill="white"/>
</svg>
