<svg viewBox="0 0 16 16" fill="none" xmlns="http://www.w3.org/2000/svg">
<g clip-path="url(#clip0_3576_5477)">
<path d="M15.9685 7.96876C14.8712 7.96876 13.8575 7.76099 12.893 7.35139C11.9278 6.92836 11.0764 6.35177 10.3626 5.63794C9.64877 4.92407 9.07222 4.07275 8.64923 3.1077C8.23945 2.14282 8.03177 1.12899 8.03177 0.0316426C8.03177 0.0142188 8.01769 0.00012207 8.00027 0.00012207C7.98286 0.00012207 7.96873 0.0142188 7.96873 0.0316426C7.96873 1.12882 7.75433 2.14247 7.33134 3.1077C6.92147 4.07275 6.35174 4.92407 5.63787 5.63794C4.92422 6.35177 4.0728 6.92827 3.10784 7.35126C2.14287 7.76099 1.12887 7.96885 0.0315206 7.96885C0.0140967 7.96885 0 7.98298 0 8.0004C0 8.01781 0.0140967 8.03189 0.0315206 8.03189C1.12861 8.03189 2.14261 8.24634 3.10784 8.66942C4.07298 9.07943 4.92431 9.64916 5.63787 10.3628C6.35174 11.0768 6.92156 11.928 7.33143 12.8934C7.75433 13.8581 7.96873 14.8714 7.96873 15.9685C7.96873 15.986 7.98286 16 8.00027 16C8.01769 16 8.03177 15.986 8.03177 15.9685C8.03177 14.8711 8.23945 13.8578 8.64914 12.8934C9.07222 11.928 9.64868 11.0766 10.3626 10.3628C11.0762 9.64898 11.9275 9.07925 12.893 8.66933C13.8578 8.24643 14.8714 8.03189 15.9685 8.03189C15.9859 8.03189 16 8.01781 16 8.0004C16 7.98298 15.9859 7.96876 15.9685 7.96876Z" fill="url(#paint0_linear_3576_5477)"/>
</g>
<defs>
<linearGradient id="paint0_linear_3576_5477" x1="4.97958" y1="10.3423" x2="12.2174" y2="4.23999" gradientUnits="userSpaceOnUse">
<stop stop-color="#217BFE"/>
<stop offset="0.27" stop-color="#078EFB"/>
<stop offset="0.776981" stop-color="#A190FF"/>
<stop offset="1" stop-color="#BD99FE"/>
</linearGradient>
<clipPath id="clip0_3576_5477">
<rect width="16" height="16" fill="white"/>
</clipPath>
</defs>
</svg>
