<svg t="1746931820276" class="icon" viewBox="0 0 1024 1024" version="1.1" xmlns="http://www.w3.org/2000/svg" p-id="2954"
    width="32" height="32">
    <path
        d="M188.364231 965.802667a129.820444 129.820444 0 0 1-92.615111-37.660445A129.820444 129.820444 0 0 1 58.088676 835.527111V188.416C58.088676 152.974222 71.457564 120.035556 95.74912 95.744A129.820444 129.820444 0 0 1 188.364231 58.083556h286.151111c23.779556 0 39.082667 15.36 39.082667 39.082666 0 23.722667-15.36 39.025778-39.025778 39.025778H188.364231a50.517333 50.517333 0 0 0-52.224 52.224v647.111111c0 30.264889 21.959111 52.167111 52.224 52.167111h647.054222a50.517333 50.517333 0 0 0 52.224-52.167111V599.04c0-23.722667 15.36-39.082667 39.025778-39.082667 24.120889 0 39.082667 20.252444 39.082667 39.082667v236.430222c0 35.441778-13.368889 68.323556-37.660445 92.615111a129.820444 129.820444 0 0 1-92.672 37.660445H188.42112z"
        fill="#231916" p-id="2955"></path>
    <path
        d="M304.588231 758.385778c-23.722667 0-39.082667-15.303111-39.082667-39.025778a451.128889 451.128889 0 0 1 132.551112-321.308444 451.128889 451.128889 0 0 1 321.308444-132.551112h113.720889l-141.084445-141.027555a37.774222 37.774222 0 0 1 0-54.613333 38.684444 38.684444 0 0 1 27.363556-11.776c10.069333 0 19.740444 4.209778 27.306667 11.776l207.416889 207.36c1.820444 1.820444 2.730667 3.640889 3.697777 5.632 0.967111 1.934222 2.104889 4.209778 4.209778 6.428444 3.754667 11.662222 3.754667 23.153778-0.056889 30.776889l-0.284444 0.568889v0.568889c0 3.072-3.811556 6.940444-7.566222 10.695111l-207.416889 207.36a42.666667 42.666667 0 0 1-27.306667 11.776 42.666667 42.666667 0 0 1-27.306667-11.776 38.627556 38.627556 0 0 1-11.719111-27.306667c0-10.012444 4.152889-19.740444 11.719111-27.306667l141.027556-141.027555h-113.720889a373.646222 373.646222 0 0 0-266.126222 109.568 373.646222 373.646222 0 0 0-109.624889 266.183111c0 23.722667-15.36 39.025778-39.025778 39.025778"
        fill="#231916" p-id="2956"></path>
</svg>
