<svg width="120" height="120" viewBox="0 0 120 120" fill="none" xmlns="http://www.w3.org/2000/svg">
<g clip-path="url(#clip0_5974_49594)">
<path d="M48.0211 24.7969C46.8703 25.9477 45.4277 26.8536 43.7344 27.4876C42.116 28.0934 40.3066 28.4227 38.4996 28.438C34.6793 28.4708 31.1426 27.143 28.7953 24.7969C26.4867 22.4883 25.4027 19.2657 25.7426 15.7219C26.0625 12.3938 27.6059 9.12545 29.9766 6.75358C32.2605 4.46959 35.3449 3.25787 38.6613 3.34225C41.9859 3.42662 45.1465 4.80123 47.5594 7.21412C49.9723 9.62701 51.3469 12.7864 51.4312 16.1122C51.5156 19.4286 50.3039 22.513 48.0199 24.7969H48.0211Z" fill="#232627"/>
<path d="M30.2883 7.06409C27.9879 9.36448 26.4903 12.5356 26.1809 15.7641C25.8539 19.1743 26.8922 22.2727 29.1071 24.4864C31.3219 26.7 34.7942 28.0313 38.4973 27.9996C40.2528 27.9844 42.0106 27.6657 43.5809 27.0774C45.2145 26.4657 46.6043 25.5938 47.7106 24.4875C49.9078 22.2903 51.0738 19.3196 50.993 16.125C50.9121 12.9129 49.5821 9.85902 47.25 7.52698C44.9168 5.19378 41.8641 3.86488 38.652 3.78402C35.4563 3.70316 32.4867 4.86917 30.2895 7.06644M29.6672 6.44183C34.5668 1.54222 42.7172 1.74847 47.8711 6.90238C53.025 12.0563 53.2313 20.2067 48.3317 25.1063C43.432 30.0059 33.6387 30.2602 28.4848 25.1063C23.3309 19.9524 24.7676 11.3414 29.6672 6.44183Z" fill="#6C7275"/>
<path d="M56.5347 78.2157L19.9301 75.0457V45.6657C19.9301 43.091 20.3496 40.7496 21.1769 38.7059C21.9844 36.7102 23.1843 34.991 24.7429 33.5989C26.2968 32.209 28.2105 31.1391 30.4312 30.4196C32.6859 29.6895 35.257 29.318 38.073 29.318C40.889 29.318 43.5785 29.8582 46.2269 30.9235C48.7793 31.95 51.1019 33.4031 53.1328 35.243C55.166 37.0864 56.7715 39.1957 57.9035 41.5125C59.0812 43.9231 59.6789 46.4285 59.6789 48.9586V75.3293L56.5347 78.2157Z" fill="#232627"/>
<path d="M38.073 29.7575C35.3027 29.7575 32.7773 30.1207 30.5672 30.8368C28.4051 31.5375 26.5441 32.577 25.0359 33.9258C23.5289 35.2735 22.3676 36.9375 21.5847 38.8711C20.7785 40.8622 20.3707 43.1485 20.3707 45.6657V74.6426L56.3812 77.761L59.2406 75.136V48.9586C59.2406 46.4965 58.6582 44.0567 57.5097 41.7059C56.4023 39.4383 54.8308 37.3735 52.8386 35.5688C50.8746 33.7887 48.5332 32.3239 46.064 31.3313C43.4672 30.2871 40.7789 29.7575 38.073 29.7575ZM38.073 28.8786C49.6265 28.8786 60.1183 38.2887 60.1183 48.9586V75.5227L56.6894 78.6704L19.4906 75.4489V45.6657C19.4906 34.9957 26.5195 28.8786 38.073 28.8786Z" fill="#6C7275"/>
<path d="M45.3914 25.6009C43.1074 27.8849 40.0231 29.0966 36.7067 29.0122C33.3821 28.9278 30.2215 27.5532 27.8086 25.1403C25.3957 22.7274 24.0211 19.5681 23.9367 16.2423C23.8524 12.9259 25.0641 9.8415 27.3481 7.55751C29.6321 5.27353 32.7164 4.06181 36.0328 4.14619C39.3574 4.23056 42.518 5.60517 44.9309 8.01806C47.3438 10.431 48.7184 13.5903 48.8028 16.9161C48.8871 20.2325 47.6754 23.3169 45.3914 25.6009Z" fill="#141718"/>
<path d="M27.6586 7.86918C25.4614 10.0664 24.2954 13.0371 24.3762 16.2317C24.4571 19.4438 25.7872 22.4977 28.1192 24.8297C30.4524 27.1629 33.5051 28.4918 36.7172 28.5727C39.9129 28.6536 42.8825 27.4875 45.0797 25.2903C47.277 23.093 48.443 20.1223 48.3622 16.9278C48.2813 13.7157 46.9512 10.6618 44.6192 8.32973C42.2872 5.99769 39.2332 4.66762 36.0211 4.58676C32.8254 4.5059 29.8559 5.67191 27.6586 7.86918ZM27.0364 7.24691C31.936 2.3473 40.0864 2.55355 45.2403 7.70746C50.3942 12.8614 50.6004 21.0118 45.7008 25.9114C40.8012 30.811 32.6508 30.6047 27.4969 25.4508C22.343 20.2969 22.1368 12.1465 27.0364 7.24691Z" fill="#6C7275"/>
<path d="M56.243 78.2755L16.4941 75.8403V46.4708C16.4941 43.8962 16.9137 41.5548 17.741 39.511C18.5484 37.5153 19.7484 35.7962 21.307 34.404C22.8609 33.0142 24.7746 31.9442 26.9953 31.2247C29.25 30.4946 31.8211 30.1231 34.6371 30.1231C37.4531 30.1231 40.1426 30.6634 42.791 31.7286C45.3434 32.7552 47.666 34.2083 49.6969 36.0481C51.7301 37.8915 53.3355 40.0009 54.4676 42.3177C55.6453 44.7282 56.243 47.2337 56.243 49.7638V78.2755Z" fill="#141718"/>
<path d="M34.6371 30.5625C31.8668 30.5625 29.3414 30.9258 27.1313 31.6418C24.9691 32.3426 23.1082 33.3821 21.6 34.7309C20.093 36.0786 18.9316 37.7426 18.1488 39.6762C17.3426 41.6672 16.9348 43.9536 16.9348 46.4707V75.4278L55.8047 77.809V49.7649C55.8047 47.3028 55.2223 44.8629 54.0738 42.5122C52.9664 40.2446 51.3949 38.1797 49.4027 36.375C47.4387 34.595 45.0973 33.1301 42.6281 32.1375C40.0313 31.0934 37.343 30.5637 34.6371 30.5637M34.6371 29.6836C46.1906 29.6836 56.6824 39.0938 56.6824 49.7637V78.7418L16.0547 76.2528V46.4696C16.0547 35.7997 23.0836 29.6825 34.6371 29.6825V29.6836Z" fill="#6C7275"/>
<path d="M91.848 31.2645C90.6972 32.4153 89.2546 33.3212 87.5613 33.9552C85.9429 34.561 84.1335 34.8903 82.3265 34.9056C78.5062 34.9384 74.9695 33.6106 72.6222 31.2645C70.3136 28.9559 69.2296 25.7333 69.5695 22.1895C69.8894 18.8614 71.4328 15.5931 73.8035 13.2212C76.0874 10.9372 79.1718 9.72548 82.4882 9.80985C85.8128 9.89423 88.9734 11.2688 91.3863 13.6817C93.7992 16.0946 95.1738 19.254 95.2582 22.5798C95.3425 25.8962 94.1308 28.9806 91.8468 31.2645H91.848Z" fill="#232627"/>
<path d="M74.1152 13.5317C71.8148 15.8321 70.3172 19.0032 70.0078 22.2317C69.6808 25.6419 70.7191 28.7403 72.934 30.954C75.1488 33.1676 78.6211 34.4989 82.3242 34.4672C84.0797 34.452 85.8375 34.1333 87.4078 33.545C89.0414 32.9333 90.4312 32.0614 91.5375 30.9551C93.7347 28.7579 94.9008 25.7872 94.8199 22.5926C94.739 19.3805 93.409 16.3266 91.0769 13.9946C88.7437 11.6614 85.691 10.3325 82.4789 10.2516C79.2832 10.1708 76.3136 11.3368 74.1164 13.534M73.4941 12.9106C78.3937 8.011 86.5441 8.21725 91.698 13.3712C96.8519 18.5251 97.0582 26.6755 92.1586 31.5751C87.259 36.4747 77.4656 36.729 72.3117 31.5751C67.1578 26.4212 68.5945 17.8102 73.4941 12.9106Z" fill="#6C7275"/>
<path d="M100.362 84.6832L63.7571 81.5133V52.1332C63.7571 49.5586 64.1766 47.2172 65.004 45.1735C65.8114 43.1778 67.0114 41.4586 68.57 40.0664C70.1239 38.6766 72.0375 37.6067 74.2583 36.8871C76.5129 36.1571 79.084 35.7856 81.9 35.7856C84.7161 35.7856 87.4055 36.3258 90.054 37.3911C92.6063 38.4176 94.929 39.8707 96.9598 41.7106C98.993 43.5539 100.598 45.6633 101.731 47.9801C102.908 50.3907 103.506 52.8961 103.506 55.4262V81.7969L100.362 84.6832Z" fill="#232627"/>
<path d="M81.9 36.2262C79.1297 36.2262 76.6043 36.5895 74.3942 37.3055C72.2321 38.0063 70.3711 39.0458 68.8629 40.3946C67.3559 41.7422 66.1946 43.4063 65.4118 45.3399C64.6055 47.3309 64.1977 49.6172 64.1977 52.1344V81.1114L100.208 84.2297L103.068 81.6047V55.4274C103.068 52.9653 102.485 50.5254 101.337 48.1747C100.229 45.9071 98.6579 43.8422 96.6657 42.0376C94.7016 40.2575 92.3602 38.7926 89.8911 37.8001C87.2942 36.7559 84.6059 36.2262 81.9 36.2262ZM81.9 35.3473C93.4536 35.3473 103.945 44.7575 103.945 55.4274V81.9915L100.516 85.1391L63.3176 81.9176V52.1344C63.3176 41.4645 70.3465 35.3473 81.9 35.3473Z" fill="#6C7275"/>
<path d="M89.2183 32.0696C86.9344 34.3536 83.85 35.5653 80.5336 35.481C77.209 35.3966 74.0484 34.022 71.6355 31.6091C69.2226 29.1962 67.848 26.0368 67.7636 22.711C67.6793 19.3946 68.891 16.3103 71.175 14.0263C73.459 11.7423 76.5433 10.5306 79.8597 10.615C83.1843 10.6993 86.3449 12.0739 88.7578 14.4868C91.1707 16.8997 92.5453 20.0591 92.6297 23.3849C92.714 26.7013 91.5023 29.7857 89.2183 32.0696Z" fill="#141718"/>
<path d="M71.4855 14.3368C69.2883 16.534 68.1223 19.5047 68.2031 22.6993C68.284 25.9114 69.6141 28.9653 71.9461 31.2973C74.2793 33.6305 77.332 34.9594 80.5441 35.0403C83.7398 35.1211 86.7094 33.9551 88.9066 31.7579C91.1039 29.5606 92.2699 26.5899 92.1891 23.3954C92.1082 20.1833 90.7781 17.1293 88.4461 14.7973C86.1141 12.4653 83.0602 11.1352 79.848 11.0544C76.6523 10.9735 73.6828 12.1395 71.4855 14.3368ZM70.8633 13.7157C75.7629 8.81607 83.9133 9.02232 89.0672 14.1762C94.2211 19.3301 94.4273 27.4805 89.5277 32.3801C84.6281 37.2797 76.4777 37.0735 71.3238 31.9196C66.1699 26.7657 65.9637 18.6153 70.8633 13.7157Z" fill="#6C7275"/>
<path d="M100.07 84.7443L60.321 82.3091V52.9396C60.321 50.365 60.7406 48.0235 61.5679 45.9798C62.3753 43.9841 63.5753 42.265 65.1339 40.8728C66.6878 39.4829 68.6015 38.413 70.8222 37.6935C73.0769 36.9634 75.648 36.5919 78.464 36.5919C81.28 36.5919 83.9695 37.1321 86.6179 38.1974C89.1703 39.2239 91.4929 40.6771 93.5238 42.5169C95.557 44.3603 97.1625 46.4696 98.2945 48.7864C99.4722 51.197 100.07 53.7025 100.07 56.2325V84.7443Z" fill="#141718"/>
<path d="M78.464 37.0313C75.6937 37.0313 73.1683 37.3946 70.9582 38.1106C68.796 38.8114 66.9351 39.8508 65.4269 41.1997C63.9199 42.5473 62.7585 44.2114 61.9757 46.145C61.1695 48.136 60.7617 50.4223 60.7617 52.9395V81.8965L99.6316 84.2778V56.2337C99.6316 53.7715 99.0492 51.3317 97.9007 48.9809C96.7933 46.7133 95.2218 44.6485 93.2296 42.8438C91.2656 41.0637 88.9242 39.5989 86.455 38.6063C83.8582 37.5622 81.1699 37.0325 78.464 37.0325M78.464 36.1524C90.0175 36.1524 100.509 45.5626 100.509 56.2325V85.2106L59.8816 82.7215V52.9383C59.8816 42.2684 66.9105 36.1512 78.464 36.1512V36.1524Z" fill="#6C7275"/>
<path d="M69.443 30.0657C68.1821 31.3266 66.6024 32.318 64.7485 33.0129C62.9778 33.6762 60.9962 34.036 59.0192 34.0535C54.8368 34.0899 50.9649 32.6356 48.3938 30.0657C45.8649 27.5367 44.6766 24.0059 45.0493 20.1246C45.3985 16.4825 47.0883 12.9035 49.684 10.3078C52.186 7.80589 55.5633 6.47933 59.1962 6.57191C62.8372 6.66448 66.2977 8.16917 68.9391 10.8117C71.5805 13.4532 73.0864 16.9137 73.179 20.5547C73.2704 24.1875 71.9438 27.566 69.443 30.0668V30.0657Z" fill="#232627"/>
<path d="M49.9957 10.6184C47.4703 13.1438 45.8273 16.6231 45.4875 20.1668C45.1277 23.9157 46.2703 27.32 48.7055 29.7551C51.1406 32.1903 54.9504 33.6493 59.0156 33.6141C60.9422 33.5977 62.8711 33.2473 64.5937 32.6016C66.389 31.9289 67.916 30.9715 69.1324 29.7551C71.5476 27.3399 72.8297 24.0762 72.7406 20.5653C72.6515 17.0379 71.1914 13.684 68.6297 11.1223C66.068 8.56058 62.714 7.10043 59.1867 7.01136C55.6758 6.9223 52.4121 8.20433 49.9969 10.6196M49.3746 9.99613C54.7242 4.64652 63.6234 4.87152 69.2508 10.4989C74.8781 16.1262 75.1031 25.0254 69.7535 30.375C64.4039 35.7246 53.7105 36.0024 48.0832 30.375C42.4558 24.7477 44.0238 15.3457 49.3734 9.99496L49.3746 9.99613Z" fill="#FEFEFE"/>
<path d="M78.7243 88.4063L38.7024 84.9411V52.8246C38.7024 50.0086 39.1618 47.4469 40.0665 45.211C40.9512 43.0254 42.2649 41.1446 43.97 39.6188C45.6715 38.0977 47.7657 36.927 50.1961 36.1395C52.6618 35.3403 55.4731 34.9348 58.5528 34.9348C61.6325 34.9348 64.5751 35.5254 67.4719 36.6903C70.2622 37.8129 72.8028 39.402 75.0235 41.4141C77.2477 43.4297 79.0032 45.7371 80.2418 48.2719C81.5309 50.9098 82.1848 53.6508 82.1848 56.42V85.2305L78.7254 88.4051L78.7243 88.4063Z" fill="#232627"/>
<path d="M58.5528 35.3742C55.5188 35.3742 52.7532 35.7727 50.3321 36.5567C47.9602 37.3254 45.9188 38.4657 44.2641 39.9457C42.6094 41.4258 41.3344 43.2528 40.4754 45.375C39.5918 47.5582 39.143 50.0649 39.143 52.8235V84.5368L78.5707 87.9504L81.7454 85.0371V56.42C81.7454 53.7188 81.1067 51.0422 79.8469 48.4653C78.6329 45.9809 76.9114 43.718 74.7282 41.7399C72.5778 39.7899 70.0114 38.1856 67.3079 37.0981C64.4637 35.9543 61.5176 35.3742 58.5528 35.3742ZM58.5528 34.4953C71.1668 34.4953 82.6231 44.7703 82.6231 56.42V85.4239L78.879 88.8598L38.2629 85.343V52.8235C38.2629 41.1739 45.9375 34.4942 58.5528 34.4942V34.4953Z" fill="#FEFEFE"/>
<path d="M66.5708 30.9445C64.0688 33.4464 60.6915 34.773 57.0587 34.6804C53.4176 34.5879 49.9571 33.0832 47.3157 30.4406C44.6743 27.7992 43.1684 24.3386 43.0758 20.6976C42.9844 17.0648 44.311 13.6863 46.8118 11.1855C49.3137 8.68356 52.6911 7.357 56.3239 7.44958C59.9649 7.54215 63.4255 9.04684 66.0669 11.6894C68.7083 14.3308 70.2141 17.7914 70.3067 21.4324C70.3981 25.0652 69.0715 28.4437 66.5708 30.9445Z" fill="#141718"/>
<path d="M47.1235 11.4973C44.7083 13.9125 43.4262 17.1762 43.5153 20.6871C43.6043 24.2145 45.0645 27.5684 47.6262 30.1301C50.1879 32.6918 53.5419 34.152 57.0692 34.241C60.5801 34.3301 63.8438 33.0481 66.259 30.6328C68.6743 28.2176 69.9563 24.9539 69.8672 21.443C69.7782 17.9156 68.318 14.5617 65.7563 12C63.1946 9.43831 59.8407 7.97815 56.3133 7.88909C52.8024 7.80002 49.5387 9.08206 47.1235 11.4973ZM46.5012 10.8762C51.8508 5.52659 60.7501 5.75159 66.3774 11.3789C72.0047 17.0063 72.2297 25.9055 66.8801 31.2551C61.5305 36.6047 52.6313 36.3797 47.004 30.7524C41.3766 25.125 41.1516 16.2258 46.5012 10.8762Z" fill="#FEFEFE"/>
<path d="M78.4312 88.4731L34.95 85.8094V53.7036C34.95 50.8875 35.4093 48.3258 36.314 46.0899C37.1988 43.9043 38.5125 42.0235 40.2175 40.4977C41.9191 38.9766 44.0132 37.8059 46.4437 37.0184C48.9093 36.2192 51.7207 35.8137 54.8003 35.8137C57.88 35.8137 60.8226 36.4043 63.7195 37.5692C66.5097 38.6918 69.0503 40.2809 71.271 42.293C73.4953 44.3086 75.2507 46.6161 76.4894 49.1508C77.7785 51.7887 78.4324 54.5297 78.4324 57.2989V88.4719L78.4312 88.4731Z" fill="#141718"/>
<path d="M54.8003 36.2532C51.7664 36.2532 49.0007 36.6516 46.5796 37.4356C44.2078 38.2043 42.1664 39.3446 40.5117 40.8246C38.857 42.3047 37.582 44.1317 36.723 46.2539C35.8394 48.4371 35.3906 50.9438 35.3906 53.7024V85.3957L77.9929 88.0055V57.2989C77.9929 54.5977 77.3543 51.9211 76.0945 49.3442C74.8804 46.8598 73.1589 44.5969 70.9757 42.6188C68.8253 40.6688 66.2589 39.0645 63.5554 37.977C60.7113 36.8332 57.7652 36.2532 54.8003 36.2532ZM54.8003 35.3742C67.4144 35.3742 78.8707 45.6493 78.8707 57.2989V88.9395L34.5105 86.2219V53.7024C34.5105 42.0528 42.1851 35.3731 54.8003 35.3731V35.3742Z" fill="#FEFEFE"/>
<path d="M55.3746 75.0196C62.3955 75.0196 68.0582 80.5174 68.0582 87.2637C68.0582 94.01 62.3955 99.5078 55.3746 99.5078C48.3538 99.5078 42.691 94.01 42.691 87.2637C42.691 80.5174 48.3538 75.0196 55.3746 75.0196Z" fill="#141718" stroke="#FEFEFE"/>
<path d="M57.2242 82.9042C56.9894 82.5165 56.431 82.5222 56.2066 82.9204L55.3667 84.4089L55.1327 84.8218L50.9552 92.222L49.94 94.0211C49.8346 94.2061 49.6854 94.3562 49.5102 94.4608C49.3349 94.5638 49.1334 94.6214 48.9232 94.6214C48.5037 94.6214 48.1166 94.3943 47.9064 94.0211C47.6979 93.6504 47.6979 93.1938 47.9064 92.8223L54.3499 81.4101C54.5592 81.0386 54.9471 80.8098 55.3667 80.8098C55.7862 80.8098 56.1733 81.0386 56.3811 81.4101L57.225 82.9042H57.2242Z" fill="#00D47E"/>
<path d="M57.9189 84.1356L56.5651 86.5342L55.3658 84.4106L56.2058 82.9221C56.4302 82.5238 56.9886 82.5174 57.2234 82.9059L57.9181 84.1364L57.9189 84.1356Z" fill="#00D47E"/>
<path d="M62.8236 94.0212C62.6143 94.3944 62.228 94.6215 61.8084 94.6215H55.967C55.4094 94.6215 55.0605 94.005 55.3365 93.5102C55.3373 93.5094 55.3373 93.5078 55.3389 93.5069L56.0646 92.2221H59.778L58.329 89.6556L58.5685 89.233L59.6828 87.2586L62.8236 92.8223C63.0338 93.1938 63.0338 93.6513 62.8236 94.0212Z" fill="#00D47E"/>
<path d="M60.9892 83.4979L59.2744 86.5349L57.9205 88.9335L56.0638 92.2228L55.3381 93.5076C55.3381 93.5076 55.3373 93.5101 55.3357 93.5109C55.0597 94.0057 55.4087 94.6222 55.9663 94.6222H53.272C53.0578 94.6222 52.8746 94.5321 52.7438 94.3926C52.7279 94.3748 52.712 94.3577 52.697 94.3391C52.6399 94.2628 52.5947 94.1776 52.5677 94.0844C52.5629 94.0665 52.5582 94.0495 52.555 94.0316C52.5518 94.0187 52.5494 94.0049 52.5471 93.9919C52.5463 93.987 52.5463 93.9838 52.5447 93.9789C52.5439 93.9732 52.5439 93.9684 52.5439 93.9627C52.5415 93.9513 52.5407 93.9408 52.5391 93.9286C52.5288 93.7842 52.5574 93.6342 52.6367 93.4946L53.3545 92.2228L56.5659 86.5341L57.9197 84.1355L58.9572 82.2974C59.4029 81.5082 60.5125 81.4944 60.9765 82.2731C61.2001 82.6478 61.2049 83.1183 60.99 83.4979H60.9892Z" fill="#00D47E"/>
<path d="M62.8112 80.3541C62.9155 79.6975 62.4795 79.0787 61.8374 78.9721C61.1953 78.8655 60.5903 79.3115 60.4861 79.9681C60.3819 80.6248 60.8179 81.2435 61.4599 81.3501C62.102 81.4567 62.707 81.0108 62.8112 80.3541Z" fill="#00D47E"/>
<path d="M103.709 110.071C103.709 113.954 85.0699 117.102 62.0789 117.102C39.0879 117.102 20.4492 113.954 20.4492 110.071C20.4492 106.187 39.0879 103.039 62.0789 103.039C85.0699 103.039 103.709 106.187 103.709 110.071Z" fill="#232627"/>
</g>
<defs>
<clipPath id="clip0_5974_49594">
<rect width="120" height="120" fill="white"/>
</clipPath>
</defs>
</svg>
