<svg width="20" height="20" viewBox="0 0 20 20" fill="none" xmlns="http://www.w3.org/2000/svg">
<path d="M17.0834 1.66663H2.91675C2.58523 1.66663 2.26729 1.79832 2.03286 2.03274C1.79844 2.26716 1.66675 2.58511 1.66675 2.91663V17.0833C1.66675 17.4148 1.79844 17.7328 2.03286 17.9672C2.26729 18.2016 2.58523 18.3333 2.91675 18.3333H17.0834C17.4149 18.3333 17.7329 18.2016 17.9673 17.9672C18.2017 17.7328 18.3334 17.4148 18.3334 17.0833V2.91663C18.3334 2.58511 18.2017 2.26716 17.9673 2.03274C17.7329 1.79832 17.4149 1.66663 17.0834 1.66663ZM6.66675 15.8333H4.16675V8.33329H6.66675V15.8333ZM5.41675 6.87496C5.13023 6.86677 4.85249 6.77433 4.61821 6.60919C4.38393 6.44405 4.20351 6.21353 4.09949 5.94644C3.99548 5.67935 3.97248 5.38752 4.03336 5.10743C4.09425 4.82735 4.23633 4.57141 4.44184 4.3716C4.64736 4.1718 4.90719 4.03699 5.18889 3.98401C5.47058 3.93104 5.76164 3.96225 6.02569 4.07374C6.28975 4.18524 6.5151 4.37208 6.67357 4.61092C6.83205 4.84975 6.91663 5.12999 6.91675 5.41663C6.91017 5.80858 6.74869 6.182 6.46762 6.45526C6.18655 6.72853 5.80874 6.87942 5.41675 6.87496ZM15.8334 15.8333H13.3334V11.8833C13.3334 10.7 12.8334 10.275 12.1834 10.275C11.9928 10.2876 11.8066 10.3379 11.6355 10.4227C11.4644 10.5076 11.3118 10.6254 11.1863 10.7694C11.0609 10.9135 10.9651 11.0808 10.9046 11.262C10.844 11.4431 10.8198 11.6344 10.8334 11.825C10.8293 11.8637 10.8293 11.9028 10.8334 11.9416V15.8333H8.33341V8.33329H10.7501V9.41663C10.9939 9.04579 11.3288 8.74377 11.7227 8.53949C12.1167 8.33521 12.5565 8.23551 13.0001 8.24996C14.2917 8.24996 15.8001 8.96663 15.8001 11.3L15.8334 15.8333Z" fill="currentColor"/>
</svg>
