<svg width="48" height="48" viewBox="0 0 48 48" fill="none" xmlns="http://www.w3.org/2000/svg">
<rect width="48" height="48" rx="12" fill="#6C7275"/>
<path d="M27.6537 14.6101C27.1944 13.8685 26.1021 13.8794 25.663 14.6412L24.0199 17.4883L23.5622 18.278L15.3901 32.433L13.4041 35.8743C13.1978 36.2281 12.9061 36.5151 12.5632 36.7153C12.2203 36.9123 11.8262 37.0225 11.415 37.0225C10.5942 37.0225 9.83708 36.5881 9.42592 35.8743C9.01786 35.1653 9.01786 34.2917 9.42592 33.5811L22.0308 11.7522C22.4404 11.0415 23.1992 10.604 24.0199 10.604C24.8407 10.604 25.5979 11.0415 26.0044 11.7522L27.6553 14.6101H27.6537Z" fill="white" fill-opacity="0.8"/>
<path d="M29.013 16.9656L26.3645 21.5536L24.0186 17.4916L25.6617 14.6445C26.1008 13.8826 27.1931 13.8702 27.6523 14.6134L29.0115 16.9672L29.013 16.9656Z" fill="white" fill-opacity="0.8"/>
<path d="M38.6079 35.8749C38.1983 36.5886 37.4426 37.023 36.6219 37.023H25.1946C24.1038 37.023 23.4211 35.8438 23.9611 34.8974C23.9626 34.8958 23.9626 34.8927 23.9657 34.8912L25.3854 32.4335H32.6499L29.8151 27.5243L30.2837 26.716L32.4637 22.9395L38.6079 33.5816C39.019 34.2923 39.019 35.1673 38.6079 35.8749Z" fill="white" fill-opacity="0.8"/>
<path d="M35.0191 15.7457L31.6646 21.5548L29.0161 26.1428L25.3839 32.4344L23.9642 34.892C23.9642 34.892 23.9626 34.8967 23.9595 34.8982C23.4196 35.8447 24.1023 37.0239 25.193 37.0239H19.9223C19.5034 37.0239 19.145 36.8517 18.889 36.5848C18.858 36.5507 18.8269 36.5181 18.7975 36.4824C18.6858 36.3365 18.5973 36.1736 18.5446 35.9952C18.5352 35.9611 18.5259 35.9285 18.5197 35.8943C18.5135 35.8695 18.5089 35.8431 18.5042 35.8183C18.5027 35.809 18.5027 35.8028 18.4996 35.7935C18.498 35.7826 18.498 35.7733 18.498 35.7625C18.4934 35.7407 18.4918 35.7206 18.4887 35.6973C18.4685 35.4211 18.5244 35.1341 18.6795 34.8672L20.0837 32.4344L26.366 21.5532L29.0145 16.9652L31.044 13.4494C31.9159 11.9397 34.0866 11.9134 34.9942 13.4029C35.4318 14.1197 35.4411 15.0196 35.0206 15.7457H35.0191Z" fill="white" fill-opacity="0.8"/>
<path d="M38.5834 9.73259C38.7873 8.47653 37.9344 7.293 36.6783 7.08911C35.4222 6.88523 34.2387 7.73818 34.0348 8.99425C33.8309 10.2503 34.6839 11.4338 35.94 11.6377C37.196 11.8416 38.3795 10.9887 38.5834 9.73259Z" fill="white" fill-opacity="0.8"/>
<g style="mix-blend-mode:multiply" opacity="0.5">
<path d="M25.1077 35.71C25.2411 35.4509 26.0604 34.025 26.9773 32.4331H25.3854L23.9657 34.8908C23.9657 34.8908 23.9642 34.8954 23.9611 34.897C23.4211 35.8434 24.1038 37.0226 25.1946 37.0226C24.9137 36.8597 24.7819 36.3399 25.1061 35.71H25.1077Z" fill="white" fill-opacity="0.8"/>
</g>
</svg>
