<svg width="94" height="21" viewBox="0 0 94 21" fill="none" xmlns="http://www.w3.org/2000/svg">
<g clip-path="url(#clip0_1690_4571)">
<path d="M88.2762 9.19824C90.9201 9.19824 92.5865 10.9535 92.5865 13.6419V20.5517H91.4534V13.6419C91.4534 11.5978 90.2758 10.2647 88.1873 10.2647C86.0099 10.2647 84.2991 11.6867 84.2991 14.6861V20.5517H83.1882V9.44264H84.2991V11.5534C85.1434 9.90922 86.5654 9.19824 88.2762 9.19824Z" fill="currentColor"/>
<path d="M74.5758 9.19824C77.9529 9.19824 80.0637 11.9977 80.0637 15.0416C80.0637 15.2194 80.0414 15.3971 80.0414 15.5748H69.9766C70.2433 18.0855 72.154 19.7296 74.6869 19.7296C76.5088 19.7296 77.8863 18.8853 78.5306 17.7078L79.5082 18.2855C78.5973 19.7963 76.8642 20.7961 74.6647 20.7961C71.2431 20.7961 68.8213 18.3521 68.8213 14.9972C68.8213 11.7311 71.1764 9.19824 74.5758 9.19824ZM74.5758 10.2647C72.0429 10.2647 70.1988 12.0199 69.9766 14.4862H78.9083C78.6639 11.7755 76.7532 10.2647 74.5758 10.2647Z" fill="currentColor"/>
<path d="M64.5858 4.99902H65.6967V20.5517H64.5858V17.9744C63.6749 19.6852 61.9641 20.7961 59.8089 20.7961C56.6317 20.7961 54.0544 18.2855 54.0544 14.9972C54.0544 11.7089 56.6317 9.19825 59.8089 9.19825C61.9641 9.19825 63.6749 10.3092 64.5858 12.02V4.99902ZM59.8756 19.7296C62.5196 19.7296 64.5858 17.6411 64.5858 14.9972C64.5858 12.3532 62.5196 10.2647 59.8756 10.2647C57.2316 10.2647 55.1653 12.3532 55.1653 14.9972C55.1653 17.6411 57.2316 19.7296 59.8756 19.7296Z" fill="currentColor"/>
<path d="M47.1958 20.5517V9.99805H50.5285V20.5517H47.1958Z" fill="currentColor"/>
<path d="M46.8611 7.02112C46.8611 8.1098 47.772 9.02075 48.8607 9.02075C49.9494 9.02075 50.8603 8.1098 50.8603 7.02112C50.8603 5.93243 49.9494 5.02148 48.8607 5.02148C47.772 5.02148 46.8611 5.93243 46.8611 7.02112Z" fill="#00AB66"/>
<path d="M40.758 20.5517L39.9804 18.1077H34.2036L33.426 20.5517H29.5378L34.8258 4.99902H39.3583L44.6462 20.5517H40.758ZM35.2701 14.775H38.9139L37.092 9.06494L35.2701 14.775Z" fill="currentColor"/>
<path d="M13.1104 5.42328C12.8017 4.91351 12.0676 4.92098 11.7725 5.44461L10.6682 7.40157L10.3606 7.9444L4.86836 17.6737L3.53363 20.0391C3.39494 20.2823 3.1989 20.4796 2.96845 20.6172C2.738 20.7526 2.47314 20.8283 2.1968 20.8283C1.64518 20.8283 1.13631 20.5297 0.859982 20.0391C0.585735 19.5518 0.585735 18.9514 0.859982 18.4629L9.33139 3.45886C9.60668 2.97042 10.1166 2.66968 10.6682 2.66968C11.2198 2.66968 11.7287 2.97042 12.0019 3.45886L13.1114 5.42328H13.1104Z" fill="#00D47E"/>
<path d="M14.0239 7.04219L12.2439 10.1957L10.6672 7.40372L11.7715 5.44677C12.0666 4.92313 12.8007 4.9146 13.1094 5.42544L14.0228 7.04326L14.0239 7.04219Z" fill="#00D47E"/>
<path d="M20.4722 20.0393C20.197 20.5299 19.6891 20.8285 19.1375 20.8285H11.4576C10.7245 20.8285 10.2657 20.018 10.6286 19.3674C10.6296 19.3664 10.6296 19.3642 10.6317 19.3632L11.5858 17.6739H16.468L14.5629 14.2996L14.8778 13.744L16.3429 11.1482L20.4722 18.4631C20.7486 18.9515 20.7486 19.553 20.4722 20.0393Z" fill="#00D47E"/>
<path d="M18.0605 6.20395L15.806 10.1968L14.026 13.3503L11.5849 17.6748L10.6308 19.3641C10.6308 19.3641 10.6298 19.3673 10.6277 19.3684C10.2648 20.0189 10.7236 20.8294 11.4567 20.8294H7.91442C7.63287 20.8294 7.39199 20.711 7.21994 20.5276C7.19908 20.5041 7.17823 20.4817 7.15841 20.4572C7.08333 20.357 7.0239 20.245 6.98844 20.1223C6.98219 20.0989 6.97593 20.0765 6.97176 20.053C6.96759 20.036 6.96446 20.0178 6.96133 20.0008C6.96029 19.9944 6.96029 19.9901 6.9582 19.9837C6.95716 19.9762 6.95716 19.9698 6.95716 19.9624C6.95403 19.9475 6.95299 19.9336 6.9509 19.9176C6.93735 19.7278 6.97489 19.5305 7.07916 19.347L8.02286 17.6748L12.245 10.1957L14.025 7.04219L15.3889 4.62559C15.975 3.58792 17.4338 3.56979 18.0438 4.59359C18.3379 5.0863 18.3441 5.70485 18.0615 6.20395H18.0605Z" fill="#00D47E"/>
<path d="M20.456 2.07073C20.593 1.20738 20.0198 0.393885 19.1756 0.253743C18.3314 0.113601 17.536 0.699879 17.399 1.56323C17.262 2.42658 17.8352 3.24007 18.6794 3.38021C19.5235 3.52036 20.319 2.93408 20.456 2.07073Z" fill="#00D47E"/>
</g>
<defs>
<clipPath id="clip0_1690_4571">
<rect width="92.6912" height="20.8295" fill="white" transform="translate(0.654297)"/>
</clipPath>
</defs>
</svg>
