<svg width="177" height="40" viewBox="0 0 177 40" fill="none" xmlns="http://www.w3.org/2000/svg">
<path d="M168.265 17.6639C173.342 17.6639 176.542 21.0346 176.542 26.1973V39.4666H174.366V26.1973C174.366 22.2719 172.105 19.7119 168.094 19.7119C163.913 19.7119 160.627 22.4426 160.627 28.2026V39.4666H158.494V18.1333H160.627V22.1866C162.249 19.0293 164.979 17.6639 168.265 17.6639Z" fill="currentColor"/>
<path d="M141.956 17.6639C148.441 17.6639 152.495 23.0399 152.495 28.8853C152.495 29.2266 152.452 29.5679 152.452 29.9093H133.124C133.636 34.7306 137.305 37.8879 142.169 37.8879C145.668 37.8879 148.313 36.2666 149.551 34.0053L151.428 35.1146C149.679 38.0159 146.351 39.9359 142.127 39.9359C135.556 39.9359 130.905 35.2426 130.905 28.7999C130.905 22.5279 135.428 17.6639 141.956 17.6639ZM141.956 19.7119C137.092 19.7119 133.551 23.0826 133.124 27.8186H150.276C149.807 22.6133 146.137 19.7119 141.956 19.7119Z" fill="currentColor"/>
<path d="M122.772 9.59985H124.905V39.4665H122.772V34.5172C121.023 37.8025 117.737 39.9359 113.599 39.9359C107.497 39.9359 102.548 35.1145 102.548 28.7999C102.548 22.4852 107.497 17.6639 113.599 17.6639C117.737 17.6639 121.023 19.7972 122.772 23.0825V9.59985ZM113.727 37.8879C118.804 37.8879 122.772 33.8772 122.772 28.7999C122.772 23.7225 118.804 19.7119 113.727 19.7119C108.649 19.7119 104.681 23.7225 104.681 28.7999C104.681 33.8772 108.649 37.8879 113.727 37.8879Z" fill="currentColor"/>
<path d="M89.376 39.4666V19.1999H95.776V39.4666H89.376Z" fill="currentColor"/>
<path d="M88.7334 13.4826C88.7334 15.5732 90.4827 17.3226 92.5734 17.3226C94.6641 17.3226 96.4134 15.5732 96.4134 13.4826C96.4134 11.3919 94.6641 9.64258 92.5734 9.64258C90.4827 9.64258 88.7334 11.3919 88.7334 13.4826Z" fill="#00D47E"/>
<path d="M77.0135 39.4666L75.5201 34.7733H64.4268L62.9335 39.4666H55.4668L65.6215 9.59998H74.3255L84.4801 39.4666H77.0135ZM66.4748 28.3733H73.4721L69.9735 17.408L66.4748 28.3733Z" fill="currentColor"/>
<path d="M23.92 10.4148C23.3273 9.43591 21.9176 9.45025 21.3509 10.4558L19.2303 14.2139L18.6395 15.2563L8.0925 33.94L5.52933 38.4825C5.263 38.9494 4.88654 39.3283 4.44399 39.5925C4.00144 39.8526 3.49281 39.998 2.96216 39.998C1.90285 39.998 0.925644 39.4245 0.394988 38.4825C-0.131663 37.5465 -0.131663 36.3935 0.394988 35.4556L16.6631 6.64246C17.1917 5.70448 18.1709 5.12695 19.2303 5.12695C20.2896 5.12695 21.2668 5.70448 21.7914 6.64246L23.9221 10.4148H23.92Z" fill="#00D47E"/>
<path d="M25.6735 13.5238L22.2553 19.5797L19.2275 14.2181L21.3482 10.46C21.9149 9.45449 23.3246 9.4381 23.9173 10.4191L25.6715 13.5259L25.6735 13.5238Z" fill="#00D47E"/>
<path d="M38.0571 38.4827C37.5285 39.4248 36.5533 39.9982 35.4939 39.9982H20.7457C19.338 39.9982 18.4569 38.4417 19.1538 37.1924C19.1558 37.1904 19.1558 37.1863 19.1598 37.1843L20.992 33.9402H30.3676L26.7091 27.4604L27.3138 26.3934L30.1273 21.4086L38.0571 35.4558C38.5878 36.3937 38.5878 37.5488 38.0571 38.4827Z" fill="#00D47E"/>
<path d="M33.4264 11.9139L29.097 19.5816L25.6788 25.6375L20.991 33.942L19.1588 37.1861C19.1588 37.1861 19.1568 37.1922 19.1527 37.1942C18.4559 38.4435 19.337 40 20.7447 40H13.9423C13.4016 40 12.9391 39.7727 12.6087 39.4204C12.5686 39.3754 12.5286 39.3323 12.4905 39.2852C12.3463 39.0927 12.2322 38.8777 12.1641 38.6422C12.1521 38.5971 12.1401 38.5541 12.1321 38.5091C12.1241 38.4763 12.1181 38.4415 12.1121 38.4087C12.11 38.3964 12.11 38.3882 12.106 38.3759C12.104 38.3616 12.104 38.3493 12.104 38.335C12.098 38.3063 12.096 38.2797 12.092 38.249C12.066 37.8844 12.1381 37.5055 12.3383 37.1533L14.1506 33.942L22.2586 19.5795L25.6768 13.5236L28.296 8.8829C29.4214 6.89021 32.2229 6.8554 33.3943 8.82146C33.959 9.76763 33.9711 10.9555 33.4284 11.9139H33.4264Z" fill="#00D47E"/>
<path d="M38.0267 3.97652C38.2898 2.31858 37.189 0.756385 35.5679 0.487263C33.9468 0.218142 32.4193 1.344 32.1561 3.00194C31.893 4.65988 32.9938 6.22207 34.6149 6.49119C36.236 6.76032 37.7635 5.63446 38.0267 3.97652Z" fill="#00D47E"/>
</svg>

