<svg width="34" height="34" viewBox="0 0 34 34" fill="none" xmlns="http://www.w3.org/2000/svg">
<rect width="34" height="34" rx="17" fill="currentColor"/>
<path d="M18.8113 11.6035C18.5434 11.1709 17.9062 11.1772 17.6501 11.6216L16.6916 13.2824L16.4246 13.7431L11.6575 22.0002L10.499 24.0076C10.3787 24.214 10.2085 24.3814 10.0085 24.4982C9.80845 24.6131 9.57856 24.6774 9.33872 24.6774C8.85993 24.6774 8.41825 24.424 8.1784 24.0076C7.94037 23.594 7.94037 23.0844 8.1784 22.6699L15.5313 9.93636C15.7702 9.52183 16.2128 9.2666 16.6916 9.2666C17.1704 9.2666 17.6121 9.52183 17.8492 9.93636L18.8122 11.6035H18.8113Z" fill="#141416"/>
<path d="M19.6036 12.977L18.0587 15.6533L16.6902 13.2838L17.6487 11.623C17.9048 11.1786 18.542 11.1714 18.8099 11.6049L19.6027 12.9779L19.6036 12.977Z" fill="#141416"/>
<path d="M25.2009 24.0071C24.962 24.4234 24.5212 24.6768 24.0424 24.6768H17.3765C16.7402 24.6768 16.342 23.989 16.657 23.4369C16.6579 23.436 16.6579 23.4342 16.6597 23.4333L17.4878 21.9996H21.7254L20.0718 19.1359L20.3452 18.6644L21.6168 16.4614L25.2009 22.6694C25.4408 23.0839 25.4408 23.5944 25.2009 24.0071Z" fill="#141416"/>
<path d="M23.1072 12.2656L21.1504 15.6542L19.6054 18.3305L17.4866 22.0006L16.6585 23.4343C16.6585 23.4343 16.6576 23.437 16.6558 23.4379C16.3408 23.99 16.739 24.6779 17.3753 24.6779H14.3008C14.0564 24.6779 13.8473 24.5774 13.698 24.4217C13.6799 24.4018 13.6618 24.3828 13.6446 24.362C13.5794 24.2769 13.5278 24.1819 13.4971 24.0778C13.4916 24.0579 13.4862 24.0389 13.4826 24.019C13.4789 24.0045 13.4762 23.9891 13.4735 23.9746C13.4726 23.9692 13.4726 23.9656 13.4708 23.9601C13.4699 23.9538 13.4699 23.9484 13.4699 23.942C13.4672 23.9294 13.4663 23.9176 13.4645 23.904C13.4527 23.7429 13.4853 23.5755 13.5758 23.4198L14.3949 22.0006L18.0596 15.6533L19.6045 12.977L20.7884 10.9261C21.297 10.0454 22.5632 10.0301 23.0927 10.8989C23.3479 11.3171 23.3534 11.842 23.1081 12.2656H23.1072Z" fill="#141416"/>
<path d="M25.1867 8.75734C25.3056 8.02464 24.8081 7.33425 24.0754 7.21531C23.3427 7.09638 22.6523 7.59394 22.5333 8.32664C22.4144 9.05935 22.912 9.74974 23.6447 9.86867C24.3774 9.98761 25.0678 9.49005 25.1867 8.75734Z" fill="#141416"/>
<g style="mix-blend-mode:multiply" opacity="0.5">
<path d="M17.3263 23.9115C17.4042 23.7604 17.882 22.9286 18.4169 22H17.4883L16.6602 23.4336C16.6602 23.4336 16.6593 23.4364 16.6575 23.4373C16.3425 23.9894 16.7407 24.6772 17.377 24.6772C17.2132 24.5822 17.1363 24.279 17.3254 23.9115H17.3263Z" fill="#141416"/>
</g>
</svg>
