<svg width="20" height="20" viewBox="0 0 20 20" fill="none" xmlns="http://www.w3.org/2000/svg">
<rect width="20" height="20" rx="10" fill="#00D47E"/>
<path d="M11.5225 6.08768C11.3311 5.77866 10.876 5.78319 10.693 6.10061L10.0084 7.28691L9.8177 7.61597L6.41266 13.5139L5.58516 14.9478C5.49917 15.0952 5.37764 15.2148 5.23476 15.2982C5.09189 15.3803 4.92768 15.4262 4.75636 15.4262C4.41437 15.4262 4.09889 15.2451 3.92757 14.9478C3.75754 14.6523 3.75754 14.2883 3.92757 13.9923L9.17962 4.89686C9.35029 4.60077 9.66642 4.41846 10.0084 4.41846C10.3504 4.41846 10.6659 4.60077 10.8353 4.89686L11.5231 6.08768H11.5225Z" fill="#141416"/>
<path d="M12.0888 7.06868L10.9853 8.98034L10.0078 7.28784L10.6924 6.10154C10.8754 5.78411 11.3305 5.77894 11.5219 6.08861L12.0882 7.06933L12.0888 7.06868Z" fill="#141416"/>
<path d="M16.0867 14.9474C15.9161 15.2447 15.6012 15.4258 15.2592 15.4258H10.4979C10.0434 15.4258 9.75894 14.9344 9.98392 14.5401C9.98457 14.5394 9.98457 14.5381 9.98586 14.5375L10.5774 13.5135H13.6042L12.4231 11.468L12.6183 11.1312L13.5267 9.55762L16.0867 13.9919C16.2581 14.288 16.2581 14.6526 16.0867 14.9474Z" fill="#141416"/>
<path d="M14.5915 6.56019L13.1938 8.98063L12.0902 10.8923L10.5768 13.5138L9.98525 14.5378C9.98525 14.5378 9.9846 14.5398 9.98331 14.5404C9.75833 14.9348 10.0428 15.4261 10.4973 15.4261H8.30115C8.1266 15.4261 7.97726 15.3543 7.87059 15.2431C7.85766 15.2289 7.84473 15.2153 7.83245 15.2005C7.7859 15.1397 7.74905 15.0718 7.72707 14.9975C7.72319 14.9832 7.71931 14.9697 7.71673 14.9554C7.71414 14.9451 7.7122 14.9341 7.71026 14.9238C7.70962 14.9199 7.70962 14.9173 7.70832 14.9134C7.70768 14.9089 7.70768 14.905 7.70768 14.9005C7.70574 14.8914 7.70509 14.883 7.7038 14.8733C7.69539 14.7583 7.71867 14.6387 7.78332 14.5275L8.36839 13.5138L10.986 8.97998L12.0896 7.06832L12.9352 5.60339C13.2985 4.97436 14.2029 4.96337 14.5811 5.58399C14.7634 5.88267 14.7673 6.25763 14.5921 6.56019H14.5915Z" fill="#141416"/>
<path d="M16.0764 4.05484C16.1614 3.53148 15.806 3.03834 15.2826 2.95339C14.7593 2.86844 14.2661 3.22384 14.1812 3.7472C14.0962 4.27056 14.4516 4.76369 14.975 4.84865C15.4983 4.9336 15.9915 4.5782 16.0764 4.05484Z" fill="#141416"/>
<g style="mix-blend-mode:multiply" opacity="0.5">
<path d="M10.4617 14.8791C10.5173 14.7711 10.8586 14.177 11.2407 13.5137H10.5774L9.98586 14.5377C9.98586 14.5377 9.98521 14.5396 9.98392 14.5403C9.75894 14.9346 10.0434 15.426 10.4979 15.426C10.3809 15.3581 10.3259 15.1415 10.461 14.8791H10.4617Z" fill="#141416"/>
</g>
</svg>
