<svg width="90" height="23" viewBox="0 0 90 23" fill="none" xmlns="http://www.w3.org/2000/svg">
<path d="M83.2898 6.55444C87.0389 6.55444 89.4018 9.04334 89.4018 12.8554V22.6535H87.795V12.8554C87.795 9.95698 86.1253 8.06668 83.1638 8.06668C80.0763 8.06668 77.6504 10.083 77.6504 14.3362V22.6535H76.0752V6.901H77.6504V9.89397C78.8476 7.5626 80.8639 6.55444 83.2898 6.55444Z" fill="#101213"/>
<path d="M63.8632 6.55444C68.6519 6.55444 71.6449 10.5241 71.6449 14.8402C71.6449 15.0923 71.6134 15.3443 71.6134 15.5964H57.3416C57.7197 19.1564 60.4291 21.4878 64.0207 21.4878C66.6041 21.4878 68.5574 20.2906 69.471 18.6208L70.8573 19.44C69.5655 21.5823 67.1082 23 63.9892 23C59.1374 23 55.7034 19.5345 55.7034 14.7772C55.7034 10.146 59.0429 6.55444 63.8632 6.55444ZM63.8632 8.06668C60.2716 8.06668 57.6567 10.5556 57.3416 14.0526H70.0066C69.6601 10.209 66.9506 8.06668 63.8632 8.06668Z" fill="#101213"/>
<path d="M49.6978 0.599854H51.273V22.6533H49.6978V18.9988C48.4061 21.4246 45.9802 22.9999 42.9242 22.9999C38.419 22.9999 34.7644 19.4398 34.7644 14.7771C34.7644 10.1144 38.419 6.55429 42.9242 6.55429C45.9802 6.55429 48.4061 8.12954 49.6978 10.5554V0.599854ZM43.0187 21.4876C46.7678 21.4876 49.6978 18.5262 49.6978 14.7771C49.6978 11.028 46.7678 8.06653 43.0187 8.06653C39.2696 8.06653 36.3397 11.028 36.3397 14.7771C36.3397 18.5262 39.2696 21.4876 43.0187 21.4876Z" fill="#101213"/>
<path d="M25.0386 22.6533V7.68848H29.7643V22.6533H25.0386Z" fill="#101213"/>
<path d="M24.5642 3.46692C24.5642 5.01066 25.8559 6.30236 27.3997 6.30236C28.9434 6.30236 30.2351 5.01066 30.2351 3.46692C30.2351 1.92317 28.9434 0.63147 27.3997 0.63147C25.8559 0.63147 24.5642 1.92317 24.5642 3.46692Z" fill="#00D47E"/>
<path d="M15.91 22.6534L14.8073 19.1879H6.61604L5.51337 22.6534H0L7.49818 0.599976H13.9252L21.4234 22.6534H15.91ZM8.12828 14.4622H13.2951L10.7117 6.36538L8.12828 14.4622Z" fill="#101213"/>
</svg>
