<svg width="40" height="40" viewBox="0 0 40 40" fill="none" xmlns="http://www.w3.org/2000/svg">
<rect width="40" height="40" rx="8.88889" fill="#00D47E"/>
<path d="M23.0452 12.1749C22.6625 11.5568 21.7522 11.5659 21.3863 12.2007L20.0171 14.5733L19.6356 15.2315L12.8256 27.0272L11.1706 29.895C10.9986 30.1898 10.7555 30.429 10.4698 30.5958C10.184 30.76 9.85561 30.8518 9.51297 30.8518C8.82899 30.8518 8.19802 30.4898 7.85538 29.895C7.51533 29.3041 7.51533 28.5762 7.85538 27.984L18.3595 9.79322C18.7008 9.20104 19.3331 8.83643 20.0171 8.83643C20.701 8.83643 21.332 9.20104 21.6708 9.79322L23.0465 12.1749H23.0452Z" fill="#141416"/>
<path d="M24.1777 14.1374L21.9706 17.9607L20.0156 14.5757L21.3849 12.2031C21.7508 11.5682 22.661 11.5579 23.0438 12.1772L24.1764 14.1387L24.1777 14.1374Z" fill="#141416"/>
<path d="M32.1735 29.8947C31.8321 30.4895 31.2025 30.8515 30.5185 30.8515H20.9957C20.0868 30.8515 19.5179 29.8689 19.9678 29.0802C19.9691 29.0789 19.9691 29.0763 19.9717 29.075L21.1548 27.0269H27.2085L24.8462 22.936L25.2367 22.2623L27.0533 19.1152L32.1735 27.9837C32.5161 28.5759 32.5161 29.3051 32.1735 29.8947Z" fill="#141416"/>
<path d="M29.1827 13.1209L26.3873 17.9617L24.1802 21.7851L21.1533 27.0281L19.9702 29.0761C19.9702 29.0761 19.969 29.08 19.9664 29.0813C19.5164 29.87 20.0853 30.8527 20.9943 30.8527H16.6021C16.253 30.8527 15.9543 30.7091 15.7409 30.4868C15.7151 30.4583 15.6892 30.4312 15.6647 30.4014C15.5716 30.2799 15.4979 30.1441 15.4539 29.9954C15.4461 29.967 15.4384 29.9398 15.4332 29.9114C15.428 29.8907 15.4242 29.8687 15.4203 29.848C15.419 29.8403 15.419 29.8351 15.4164 29.8273C15.4151 29.8183 15.4151 29.8105 15.4151 29.8015C15.4112 29.7834 15.4099 29.7666 15.4074 29.7472C15.3905 29.517 15.4371 29.2778 15.5664 29.0554L16.7365 27.0281L21.9718 17.9605L24.1789 14.1371L25.8701 11.2073C26.5967 9.9492 28.4056 9.92722 29.162 11.1685C29.5266 11.7658 29.5343 12.5158 29.184 13.1209H29.1827Z" fill="#141416"/>
<path d="M32.1528 8.10968C32.3227 7.06296 31.612 6.07669 30.5652 5.90678C29.5185 5.73687 28.5322 6.44767 28.3623 7.49439C28.1924 8.54111 28.9032 9.52739 29.9499 9.69729C30.9967 9.8672 31.9829 9.1564 32.1528 8.10968Z" fill="#141416"/>
<g style="mix-blend-mode:multiply" opacity="0.5">
<path d="M20.9233 29.7581C21.0345 29.5422 21.7172 28.3539 22.4814 27.0273H21.1548L19.9717 29.0754C19.9717 29.0754 19.9704 29.0793 19.9678 29.0806C19.5179 29.8693 20.0868 30.852 20.9957 30.852C20.7617 30.7162 20.6518 30.283 20.9221 29.7581H20.9233Z" fill="#141416"/>
</g>
</svg>
