<svg viewBox="0 0 21 21" fill="none" xmlns="http://www.w3.org/2000/svg">
<path d="M13.0464 5.4678C12.7231 4.95385 11.9542 4.96138 11.6451 5.4893L10.4885 7.46228L10.1663 8.00955L4.41378 17.8185L3.01579 20.2033C2.87053 20.4484 2.6652 20.6474 2.42383 20.7861C2.18245 20.9226 1.90504 20.9989 1.61561 20.9989C1.03785 20.9989 0.504861 20.6979 0.215433 20.2033C-0.071811 19.7119 -0.071811 19.1066 0.215433 18.6142L9.08832 3.48729C9.37666 2.99485 9.91073 2.69165 10.4885 2.69165C11.0663 2.69165 11.5992 2.99485 11.8854 3.48729L13.0475 5.4678H13.0464Z" fill="white"/>
<path d="M14.003 7.10002L12.1387 10.2794L10.4873 7.46451L11.6439 5.49153C11.953 4.96361 12.7219 4.95501 13.0452 5.47003L14.0019 7.1011L14.003 7.10002Z" fill="white"/>
<path d="M20.757 20.2034C20.4687 20.698 19.9368 20.999 19.359 20.999H11.3151C10.5473 20.999 10.0668 20.1819 10.4468 19.526C10.4479 19.5249 10.4479 19.5228 10.4501 19.5217L11.4495 17.8186H16.563L14.5676 14.4167L14.8975 13.8565L16.432 11.2395L20.757 18.6142C21.0465 19.1067 21.0465 19.7131 20.757 20.2034Z" fill="white"/>
<path d="M18.2312 6.25483L15.8699 10.2803L14.0055 13.4597L11.4487 17.8196L10.4494 19.5227C10.4494 19.5227 10.4483 19.5259 10.4461 19.527C10.066 20.1829 10.5466 21 11.3144 21H7.60425C7.30936 21 7.05707 20.8807 6.87686 20.6957C6.85501 20.6721 6.83317 20.6495 6.81242 20.6248C6.73378 20.5237 6.67153 20.4108 6.63439 20.2872C6.62784 20.2635 6.62129 20.2409 6.61692 20.2173C6.61255 20.2001 6.60927 20.1818 6.60599 20.1646C6.6049 20.1581 6.6049 20.1538 6.60272 20.1474C6.60163 20.1399 6.60163 20.1334 6.60163 20.1259C6.59835 20.1108 6.59726 20.0968 6.59507 20.0807C6.58087 19.8893 6.62019 19.6904 6.72941 19.5055L7.71784 17.8196L12.1401 10.2793L14.0044 7.09993L15.433 4.66354C16.0468 3.61738 17.5748 3.5991 18.2137 4.63129C18.5217 5.12803 18.5283 5.75164 18.2323 6.25483H18.2312Z" fill="white"/>
<path d="M20.7401 2.08772C20.8836 1.2173 20.2832 0.397151 19.399 0.255862C18.5148 0.114574 17.6817 0.705651 17.5382 1.57607C17.3947 2.44649 17.9951 3.26664 18.8793 3.40793C19.7634 3.54921 20.5965 2.95814 20.7401 2.08772Z" fill="#00D47E"/>
</svg>
