<svg viewBox="0 0 22 23" fill="none" xmlns="http://www.w3.org/2000/svg">
<path d="M13.4382 5.85159C13.1052 5.30162 12.3132 5.30968 11.9949 5.8746L10.8035 7.98586L10.4716 8.57149L4.54635 19.068L3.10637 21.6199C2.95674 21.8822 2.74525 22.0951 2.49662 22.2435C2.248 22.3896 1.96226 22.4713 1.66413 22.4713C1.06902 22.4713 0.520024 22.1492 0.221903 21.6199C-0.0739678 21.0941 -0.0739678 20.4464 0.221903 19.9194L9.36128 3.73227C9.65828 3.20532 10.2084 2.88086 10.8035 2.88086C11.3986 2.88086 11.9476 3.20532 12.2424 3.73227L13.4394 5.85159H13.4382Z" fill="#00D47E"/>
<path d="M14.4237 7.5986L12.5033 11.0008L10.8024 7.98864L11.9937 5.87737C12.3121 5.31245 13.1041 5.30325 13.4371 5.85436L14.4226 7.59975L14.4237 7.5986Z" fill="#00D47E"/>
<path d="M21.3805 21.6215C21.0835 22.1507 20.5356 22.4729 19.9405 22.4729H11.655C10.8641 22.4729 10.3691 21.5984 10.7606 20.8966C10.7618 20.8955 10.7618 20.8932 10.764 20.892L11.7934 19.0695H17.0606L15.0052 15.4292L15.3449 14.8297L16.9256 12.0293L21.3805 19.9209C21.6786 20.4479 21.6786 21.0968 21.3805 21.6215Z" fill="#00D47E"/>
<path d="M18.7787 6.69288L16.3465 11.0006L14.4262 14.4027L11.7926 19.0682L10.7632 20.8907C10.7632 20.8907 10.7621 20.8942 10.7599 20.8953C10.3684 21.5971 10.8634 22.4716 11.6542 22.4716H7.83264C7.5289 22.4716 7.26902 22.3439 7.0834 22.146C7.0609 22.1206 7.0384 22.0965 7.01703 22.07C6.93603 21.9619 6.8719 21.8411 6.83365 21.7087C6.8269 21.6834 6.82015 21.6593 6.81565 21.634C6.81115 21.6156 6.80778 21.596 6.8044 21.5776C6.80328 21.5707 6.80328 21.5661 6.80103 21.5592C6.7999 21.5511 6.7999 21.5442 6.7999 21.5362C6.79653 21.5201 6.7954 21.5051 6.79316 21.4878C6.77853 21.283 6.81903 21.0702 6.93153 20.8723L7.94964 19.0682L12.5047 10.9994L14.4251 7.59721L15.8965 4.99006C16.5288 3.87057 18.1026 3.85101 18.7607 4.95554C19.078 5.4871 19.0847 6.15442 18.7799 6.69288H18.7787Z" fill="#00D47E"/>
<path d="M21.3631 2.23406C21.5109 1.30264 20.8925 0.425001 19.9817 0.273809C19.071 0.122618 18.2129 0.755124 18.065 1.68655C17.9172 2.61798 18.5357 3.49561 19.4464 3.6468C20.3571 3.798 21.2152 3.16549 21.3631 2.23406Z" fill="#00D47E"/>
</svg>
