<svg width="32" height="33" viewBox="0 0 32 33" fill="none" xmlns="http://www.w3.org/2000/svg">
<path d="M19.7349 8.83188C19.2607 8.04873 18.1329 8.0602 17.6796 8.86465L15.9831 11.8711L15.5105 12.705L7.07288 27.652L5.02234 31.286C4.80928 31.6595 4.50811 31.9626 4.15407 32.174C3.80003 32.3821 3.39313 32.4984 2.9686 32.4984C2.12116 32.4984 1.33939 32.0396 0.914867 31.286C0.493547 30.5372 0.493547 29.6148 0.914867 28.8644L13.9293 5.81397C14.3523 5.06359 15.1356 4.60156 15.9831 4.60156C16.8305 4.60156 17.6123 5.06359 18.032 5.81397L19.7365 8.83188H19.7349Z" fill="#00D47E"/>
<path d="M21.1382 11.319L18.4036 16.1637L15.9814 11.8744L17.6779 8.86796C18.1313 8.06352 19.2591 8.05041 19.7333 8.8352L21.1366 11.3206L21.1382 11.319Z" fill="#00D47E"/>
<path d="M31.0449 31.2861C30.6219 32.0397 29.8418 32.4985 28.9943 32.4985H17.1958C16.0696 32.4985 15.3647 31.2533 15.9222 30.2539C15.9238 30.2523 15.9238 30.249 15.927 30.2473L17.3928 27.6521H24.8933L21.9664 22.4683L22.4502 21.6147L24.701 17.6268L31.0449 28.8645C31.4694 29.6149 31.4694 30.539 31.0449 31.2861Z" fill="#00D47E"/>
<path d="M27.3396 10.0311L23.8762 16.1652L21.1416 21.01L17.3914 27.6536L15.9255 30.2488C15.9255 30.2488 15.9239 30.2537 15.9207 30.2554C15.3632 31.2548 16.0681 32.5 17.1943 32.5H11.7524C11.3199 32.5 10.9498 32.3181 10.6855 32.0363C10.6534 32.0003 10.6214 31.9659 10.5909 31.9282C10.4756 31.7742 10.3843 31.6021 10.3298 31.4137C10.3202 31.3777 10.3106 31.3433 10.3042 31.3072C10.2978 31.281 10.293 31.2532 10.2882 31.2269C10.2866 31.2171 10.2866 31.2106 10.2834 31.2007C10.2818 31.1893 10.2818 31.1794 10.2818 31.168C10.277 31.145 10.2754 31.1237 10.2722 31.0991C10.2513 30.8075 10.309 30.5044 10.4692 30.2226L11.919 27.6536L18.4054 16.1636L21.14 11.3189L23.2354 7.6063C24.1357 6.01215 26.3769 5.98429 27.314 7.55715C27.7658 8.31408 27.7754 9.26435 27.3412 10.0311H27.3396Z" fill="#00D47E"/>
<path d="M31.02 3.68119C31.2305 2.35484 30.3498 1.10508 29.0529 0.889785C27.756 0.674488 26.5341 1.57518 26.3235 2.90153C26.113 4.22788 26.9937 5.47763 28.2906 5.69293C29.5875 5.90823 30.8094 5.00754 31.02 3.68119Z" fill="#00D47E"/>
</svg>
