<svg width="20" height="20" viewBox="0 0 20 20" fill="none" xmlns="http://www.w3.org/2000/svg">
<path d="M5.64062 4.32068C2.52541 4.32068 0 6.86352 0 9.99999C0 13.1365 2.52559 15.6793 5.64062 15.6793C8.75566 15.6793 11.2812 13.1366 11.2812 9.99999C11.2812 6.86334 8.75597 4.32068 5.64062 4.32068ZM14.6484 4.65337C13.0908 4.65337 11.8283 7.04771 11.8283 10.0001C11.8283 12.9525 13.091 15.347 14.6486 15.347C16.2063 15.347 17.469 12.9526 17.469 10.0001H17.4688C17.4688 7.04687 16.2063 4.65337 14.6485 4.65337H14.6484ZM19.008 5.21027C18.4603 5.21027 18.0163 7.3549 18.0163 10.0001C18.0163 12.6453 18.46 14.7899 19.008 14.7899C19.556 14.7899 20 12.6447 20 9.99999C20 7.35471 19.5558 5.21027 19.0081 5.21027H19.008Z" fill="currentColor"/>
</svg>
