<svg width="16" height="17" viewBox="0 0 16 17" fill="none" xmlns="http://www.w3.org/2000/svg">
<g clip-path="url(#clip0_1487_12081)">
<path d="M3.33333 7.16699C2.6 7.16699 2 7.76699 2 8.50033C2 9.23366 2.6 9.83366 3.33333 9.83366C4.06667 9.83366 4.66667 9.23366 4.66667 8.50033C4.66667 7.76699 4.06667 7.16699 3.33333 7.16699ZM12.6667 7.16699C11.9333 7.16699 11.3333 7.76699 11.3333 8.50033C11.3333 9.23366 11.9333 9.83366 12.6667 9.83366C13.4 9.83366 14 9.23366 14 8.50033C14 7.76699 13.4 7.16699 12.6667 7.16699ZM8 7.16699C7.26667 7.16699 6.66667 7.76699 6.66667 8.50033C6.66667 9.23366 7.26667 9.83366 8 9.83366C8.73333 9.83366 9.33333 9.23366 9.33333 8.50033C9.33333 7.76699 8.73333 7.16699 8 7.16699Z" fill="#6C7275"/>
</g>
<defs>
<clipPath id="clip0_1487_12081">
<rect width="16" height="16" fill="white" transform="translate(0 0.5)"/>
</clipPath>
</defs>
</svg>
