<svg width="60" height="60" viewBox="0 0 60 60" fill="none" xmlns="http://www.w3.org/2000/svg">
<path d="M43.5352 55.4883L43.5176 55.623L43.4648 55.7578L43.377 55.8925L43.2422 56.039L43.0488 56.1914L42.8145 56.3379L42.5156 56.4961L42.1406 56.6543L41.6895 56.8183L41.0918 57L40.3887 57.1757L39.5684 57.3515L38.748 57.498L37.8398 57.6386L36.832 57.7675L34.7461 57.9609L32.4492 58.084L30 58.125L27.5508 58.084L25.2539 57.9609L23.168 57.7675L22.1602 57.6386L21.252 57.498L20.4316 57.3515L19.6113 57.1757L18.9082 57L18.3105 56.8183L17.8594 56.6543L17.4844 56.4961L17.1855 56.3379L16.9512 56.1914L16.7578 56.039L16.623 55.8925L16.5352 55.7578L16.4824 55.623L16.4648 55.4883L16.4824 55.3535L16.5352 55.2187L16.623 55.084L16.7578 54.9375L16.9512 54.7851L17.1855 54.6386L17.4844 54.4804L17.8594 54.3222L18.3105 54.1582L18.9082 53.9765L19.6113 53.8008L20.4316 53.625L21.252 53.4785L22.1602 53.3379L23.168 53.209L25.2539 53.0156L27.5508 52.8925L30 52.8515L32.4492 52.8925L34.7461 53.0156L36.832 53.209L37.8398 53.3379L38.748 53.4785L39.5684 53.625L40.3887 53.8008L41.0918 53.9765L41.6895 54.1582L42.1406 54.3222L42.5156 54.4804L42.8145 54.6386L43.0488 54.7851L43.2422 54.9375L43.377 55.084L43.4648 55.2187L43.5176 55.3535L43.5352 55.4883Z" fill="#E8ECEF"/>
<path d="M47.543 39.1992L47.5254 39.6679L47.4668 40.1191L47.3789 40.5703L47.25 41.0097L47.0918 41.4433L46.8984 41.8593L46.6758 42.2754L46.4238 42.6738L46.1367 43.0722L45.8145 43.459L45.4805 43.8222L45.1113 44.1738L44.7188 44.5136L44.291 44.8476L43.834 45.164L43.377 45.457L42.8906 45.7382L42.375 46.0019L41.8418 46.2539L41.2734 46.4824L40.7109 46.6933L40.125 46.8808L39.5215 47.0508L38.9004 47.2031L38.25 47.3379L37.6113 47.4433L36.9551 47.5254L36.2813 47.584L35.5898 47.625L34.8867 47.6367L34.1836 47.625L33.4922 47.584L32.8242 47.5254L32.1621 47.4433L31.5234 47.3379L30.873 47.2031L30.252 47.0508L29.6484 46.8808L29.0625 46.6933L28.5 46.4824L27.9375 46.2539L27.3984 46.0019L26.8887 45.7382L26.4023 45.457L25.9395 45.164L25.4824 44.8476L25.0547 44.5136L24.6621 44.1738L24.2988 43.8222L23.959 43.459L23.6367 43.0722L23.3496 42.6738L23.0977 42.2754L22.875 41.8593L22.6816 41.4433L22.5234 41.0097L22.3945 40.5703L22.3066 40.1191L22.248 39.6679L22.2305 39.1992L22.248 38.7363L22.3066 38.2793L22.3945 37.834L22.5234 37.3886L22.6816 36.955L22.875 36.539L23.0977 36.1289L23.3496 35.7246L23.6367 35.332L23.959 34.9394L24.2988 34.5761L24.6621 34.2246L25.0547 33.8847L25.4824 33.5566L25.9395 33.2343L26.4023 32.9414L26.8887 32.6601L27.3984 32.3965L27.9375 32.1504L28.5 31.916L29.0625 31.705L29.6484 31.5175L30.252 31.3476L30.873 31.1953L31.5234 31.0664L32.1621 30.955L32.8242 30.873L33.4922 30.8144L34.1836 30.7734L34.8867 30.7617L35.5898 30.7734L36.2813 30.8144L36.9551 30.873L37.6113 30.955L38.25 31.0664L38.9004 31.1953L39.5215 31.3476L40.125 31.5175L40.7109 31.705L41.2734 31.916L41.8418 32.1504L42.375 32.3965L42.8906 32.6601L43.377 32.9414L43.834 33.2343L44.291 33.5566L44.7188 33.8847L45.1113 34.2246L45.4805 34.5761L45.8145 34.9394L46.1367 35.332L46.4238 35.7246L46.6758 36.1289L46.8984 36.539L47.0918 36.955L47.25 37.3886L47.3789 37.834L47.4668 38.2793L47.5254 38.7363L47.543 39.1992Z" fill="#FEFEFE"/>
<path d="M34.8867 31.1133L34.0723 31.1308L33.2578 31.1836L32.4492 31.2715L31.6465 31.4004L30.8496 31.5644L30.0586 31.7636L29.3672 31.9687L28.6875 32.2148L28.0254 32.4902L27.375 32.8008L26.748 33.1465L26.1328 33.5273L25.752 33.7851L25.3828 34.0664L25.0313 34.3593L24.6914 34.6758L24.375 35.0097L24.0703 35.3613L23.7891 35.7246L23.5254 36.1054L23.3086 36.457L23.1211 36.8203L22.9629 37.1953L22.8281 37.582L22.7227 37.9804L22.6465 38.3789L22.5996 38.7832L22.582 39.1992L22.5996 39.6152L22.6465 40.0195L22.7227 40.4179L22.8281 40.8164L22.9629 41.2031L23.1211 41.5781L23.3086 41.9414L23.5254 42.2929L23.7891 42.6738L24.0703 43.0429L24.375 43.3886L24.6914 43.7226L25.0313 44.039L25.3828 44.332L25.752 44.6133L26.1328 44.8711L26.748 45.2519L27.3809 45.5976L28.0254 45.9082L28.6875 46.1836L29.3672 46.4297L30.0586 46.6347L30.8496 46.834L31.6465 46.998L32.4492 47.1269L33.2578 47.2148L34.0723 47.2675L34.8867 47.2851L35.7012 47.2675L36.5156 47.2148L37.3242 47.1269L38.127 46.998L38.9297 46.834L39.7207 46.6347L40.4062 46.4297L41.0859 46.1836L41.748 45.9082L42.3984 45.5976L43.0254 45.2519L43.6406 44.8769L44.0273 44.6133L44.3906 44.332L44.7422 44.039L45.082 43.7226L45.3984 43.3886L45.7031 43.0429L45.9844 42.6797L46.2539 42.2988L46.4648 41.9414L46.6523 41.5781L46.8105 41.2031L46.9453 40.8164L47.0508 40.4179L47.127 40.0195L47.1738 39.6152L47.1914 39.1992L47.1738 38.789L47.127 38.3789L47.0508 37.9804L46.9453 37.582L46.8105 37.1953L46.6523 36.8203L46.4648 36.457L46.2539 36.1054L45.9844 35.7246L45.7031 35.3613L45.4043 35.0097L45.082 34.6758L44.7422 34.3652L44.3906 34.0664L44.0273 33.7851L43.6406 33.5273L43.0254 33.1465L42.3984 32.8008L41.748 32.4902L41.0859 32.2148L40.4062 31.9687L39.7207 31.7636L38.9238 31.5644L38.127 31.4004L37.3242 31.2715L36.5156 31.1836L35.7012 31.1308L34.8867 31.1133ZM34.8867 30.7617L35.5898 30.7734L36.2813 30.8144L36.9551 30.873L37.6113 30.955L38.25 31.0664L38.9004 31.1953L39.5215 31.3476L40.125 31.5175L40.7109 31.705L41.2734 31.916L41.8418 32.1504L42.375 32.3965L42.8906 32.6601L43.377 32.9414L43.834 33.2343L44.291 33.5566L44.7188 33.8847L45.1113 34.2246L45.4805 34.5761L45.8145 34.9394L46.1367 35.332L46.4238 35.7246L46.6758 36.1289L46.8984 36.539L47.0918 36.955L47.25 37.3886L47.3789 37.834L47.4668 38.2793L47.5254 38.7363L47.543 39.1992L47.5254 39.6679L47.4668 40.1191L47.3789 40.5703L47.25 41.0097L47.0918 41.4433L46.8984 41.8593L46.6758 42.2754L46.4238 42.6738L46.1367 43.0722L45.8145 43.459L45.4805 43.8222L45.1113 44.1738L44.7188 44.5136L44.291 44.8476L43.834 45.164L43.377 45.457L42.8906 45.7382L42.375 46.0019L41.8418 46.2539L41.2734 46.4883L40.7109 46.6933L40.125 46.8808L39.5215 47.0508L38.9004 47.2031L38.25 47.3379L37.6113 47.4433L36.9551 47.5254L36.2813 47.584L35.5898 47.625L34.8867 47.6367L34.1836 47.625L33.4922 47.584L32.8242 47.5254L32.168 47.4433L31.5234 47.3379L30.873 47.2031L30.252 47.0508L29.6484 46.8808L29.0625 46.6933L28.5 46.4883L27.9375 46.2539L27.3984 46.0019L26.8887 45.7382L26.4023 45.457L25.9395 45.164L25.4824 44.8476L25.0547 44.5136L24.6621 44.1738L24.2988 43.8222L23.959 43.459L23.6367 43.0722L23.3496 42.6738L23.0977 42.2754L22.875 41.8593L22.6816 41.4433L22.5234 41.0097L22.3945 40.5703L22.3066 40.1191L22.248 39.6679L22.2305 39.1992L22.248 38.7363L22.3066 38.2793L22.3945 37.834L22.5234 37.3886L22.6816 36.955L22.875 36.539L23.0977 36.1289L23.3496 35.7246L23.6367 35.332L23.959 34.9394L24.2988 34.5761L24.6621 34.2246L25.0547 33.8847L25.4824 33.5566L25.9395 33.2343L26.4023 32.9414L26.8887 32.6601L27.3984 32.3965L27.9375 32.1504L28.5 31.916L29.0625 31.705L29.6484 31.5175L30.252 31.3476L30.873 31.1953L31.5234 31.0664L32.168 30.955L32.8242 30.873L33.4922 30.8144L34.1836 30.7734L34.8867 30.7617Z" fill="#141718"/>
<path d="M51.0938 7.61716L23.7539 8.97653L23.5547 9.01169L23.1445 9.15817L22.7754 9.37497L22.6113 9.51559L22.4707 9.66208L22.3535 9.82614L22.2598 10.0019L22.207 10.1836L22.1895 10.3711L10.8867 45.1406L10.9277 45.4863L11.0859 46.0195L11.2266 46.3593L11.3965 46.6816L11.584 46.9804L11.7305 47.1679L12.0176 47.455L12.1816 47.5547L12.334 47.6133L12.4863 47.6367H34.8809L35.0215 47.625L35.3613 47.5195L35.5605 47.414L36.082 47.0683L36.375 46.8281L36.8027 46.4414L37.248 46.0019L37.6875 45.5332L38.5312 44.5605L39.5625 43.2715L40.166 42.4629L41.0098 42.6035L42.4277 42.7617L43.5703 42.8203L44.1504 42.8144L44.7305 42.7851L45.2812 42.7207L45.6387 42.6562L45.9727 42.5742L46.2773 42.4746L46.5703 42.3515L46.8223 42.205L47.0391 42.041L47.1797 41.8945L47.2969 41.7363L47.3906 41.5605L47.4609 41.3672L53.9648 10.5L53.9941 10.2363L53.9883 9.99606L53.959 9.77341L53.9062 9.55075L53.8301 9.34567L53.7305 9.15231L53.6133 8.97067L53.4375 8.74802L53.2383 8.5488L53.0156 8.36716L52.7812 8.20309L52.3008 7.94528L51.9375 7.79294L51.6152 7.69919L51.3047 7.63474L51.0938 7.61716Z" fill="#FEFEFE"/>
<path d="M51.6035 8.61911L23.9473 9.31638L23.6367 9.35739L23.4668 9.40427L23.2324 9.50973L23.0156 9.63864L22.8809 9.74411L22.6758 9.97848L22.5996 10.1074L22.5527 10.2363L22.5234 10.4824L11.2441 45.1933L11.3086 45.539L11.4023 45.873L11.5371 46.1953L11.7012 46.5058L11.8652 46.7695L12.0176 46.9629L12.1465 47.0976L12.293 47.2148L12.4043 47.2734L12.4863 47.2851L34.9629 47.2793L35.25 47.1797L35.4785 47.0566L35.7188 46.8984L36.041 46.6523L36.3867 46.3535L36.8203 45.9316L37.2832 45.457L38.2559 44.3437L39.2754 43.0722L40.0137 42.0761L40.9395 42.2343L41.6543 42.334L42.3633 42.4043L43.0781 42.4453L44.1738 42.4746L44.9238 42.416L45.6621 42.2871L46.0254 42.1933L46.3301 42.0761L46.5762 41.9531L46.7637 41.8183L46.8867 41.6953L46.9863 41.5664L47.0625 41.4316L47.1152 41.2851L53.9004 10.834V10.4648L53.8242 10.1015L53.6719 9.76169L53.5664 9.60348L53.4199 9.44528L53.0977 9.16403L52.7344 8.94138L52.3125 8.75973L52.084 8.69528L51.6094 8.61911M51.5977 8.26755L51.8086 8.27927L52.1016 8.33786L52.4063 8.42575L52.7402 8.55466L53.1855 8.79489L53.3965 8.94723L53.5957 9.11716L53.7773 9.30466L53.9355 9.52145L54.123 9.87888L54.2344 10.3008L54.2578 10.5175V10.7519L54.2227 11.0097L47.4609 41.3672L47.3906 41.5605L47.2969 41.7363L47.1797 41.8945L47.0391 42.041L46.8223 42.205L46.5703 42.3515L46.2773 42.4804L45.9727 42.5742L45.6387 42.6562L45.2812 42.7207L44.7305 42.7851L44.1504 42.8144L42.9961 42.7968L41.9121 42.7148L41.0098 42.6035L40.166 42.4629L39.5625 43.2715L38.5312 44.5605L37.6875 45.5332L36.8027 46.4472L36.375 46.8281L35.8125 47.2617L35.3613 47.5195L35.1855 47.584L34.8809 47.6367H12.4863L12.334 47.6191L12.1816 47.5547L12.0176 47.455L11.7305 47.1679L11.584 46.9863L11.3965 46.6816L11.2266 46.3593L11.0859 46.0195L10.9277 45.4863L10.8867 45.1465L22.1895 10.3711L22.207 10.1836L22.2598 10.0019L22.3535 9.82614L22.4707 9.66208L22.6113 9.51559L22.957 9.25778L23.3437 9.07614L23.5547 9.01169L23.9473 8.96481L51.5977 8.26755Z" fill="#141718"/>
<path d="M51.7031 7.55856H22.5293L22.1367 7.60544L21.7324 7.75192L21.3633 7.96872L21.1992 8.10934L21.0586 8.25583L20.9414 8.41989L20.8477 8.59567L20.7949 8.77731L20.7773 8.96481L10.9336 44.8242L10.8984 45.0117L10.9043 45.3222L10.9336 45.457L11.0098 45.6211L11.1152 45.7675L11.25 45.8906L11.4023 45.9961L11.5723 46.084L11.7598 46.1484L12.1465 46.2246L33.4277 46.2304L33.5684 46.2187L33.9082 46.1133L34.1074 46.0078L34.623 45.6621L34.916 45.4218L35.3438 45.0351L35.7891 44.5957L36.2285 44.1269L37.0664 43.1543L38.0977 41.8652L38.6953 41.0566L39.5391 41.2207L40.9629 41.4316L42.1055 41.5429L43.2773 41.584L44.1973 41.5371L44.8477 41.4316L45.1465 41.3437L45.4102 41.2441L45.627 41.1211L45.7793 41.0097L45.9023 40.8867L46.0019 40.7519L46.0781 40.6054L53.1094 8.96481L53.0918 8.77145L53.0566 8.58981L52.998 8.41989L52.916 8.25583L52.6934 7.96872L52.4121 7.75192L52.248 7.66989L52.0781 7.6113L51.8965 7.57028L51.7031 7.55856Z" fill="#FEFEFE"/>
<path d="M22.541 7.91013L22.2246 7.95114L22.0605 7.99802L21.8262 8.10349L21.6035 8.23239L21.4687 8.33786L21.2637 8.57224L21.1934 8.70114L21.1465 8.83005L21.1289 9.01169L11.2441 44.9179L11.209 45.0703L11.2148 45.2226L11.25 45.3691L11.3262 45.5039L11.4668 45.6269L11.6133 45.7207L11.7773 45.7968L11.9531 45.8496L12.1289 45.8789L33.5508 45.873L33.8437 45.7734L34.0664 45.6504L34.3066 45.4922L34.6348 45.2461L34.9746 44.9472L35.4141 44.5254L35.877 44.0508L36.8496 42.9375L37.8633 41.666L38.6074 40.664L39.7148 40.8808L40.5996 41.0215L41.4844 41.1211L42.3809 41.1972L43.2773 41.2383L43.834 41.2207L44.3027 41.1797L44.6895 41.1211L45.0117 41.0449L45.2812 40.9511L45.4863 40.8515L45.6387 40.7402L45.75 40.623L45.8262 40.5L52.8633 8.92966L52.8398 8.74216L52.7871 8.57224L52.7051 8.41403L52.5996 8.27341L52.4766 8.15036L52.3301 8.05075L52.166 7.97458L51.9961 7.9277L51.8027 7.91013H22.541ZM22.541 7.55856H51.8086L52.002 7.57028L52.1836 7.6113L52.3535 7.66989L52.6641 7.85153L52.9219 8.10349L53.0215 8.25583L53.1035 8.41989L53.1621 8.58981L53.2031 8.77145L53.2148 8.96481L46.166 40.6054L46.0898 40.7519L45.9902 40.8867L45.8672 41.0097L45.7148 41.1211L45.4922 41.2441L45.2285 41.3437L44.9297 41.4316L44.6191 41.4902L43.9102 41.5664L43.3535 41.584L42.7676 41.5781L41.6016 41.4961L40.5117 41.3613L39.6035 41.2207L38.7598 41.0566L38.1562 41.8652L37.125 43.1543L36.2812 44.1269L35.3965 45.0351L34.9687 45.4218L34.4004 45.8554L33.9551 46.1133L33.7734 46.1777L33.4688 46.2304H12.3164L11.9238 46.1953L11.7305 46.1484L11.543 46.084L11.373 45.9961L11.2207 45.8906L11.0859 45.7675L10.9805 45.6211L10.9043 45.457L10.8691 45.3222L10.8574 45.1758L10.9043 44.8242L20.7773 8.96481L20.8008 8.77731L20.8535 8.59567L20.9414 8.41989L21.0586 8.25583L21.1992 8.10934L21.5449 7.85153L21.9375 7.66989L22.1426 7.60544L22.541 7.55856Z" fill="#141718"/>
<path d="M42.0762 33.5156L42.0586 33.9785L42 34.4355L41.9121 34.8808L41.7832 35.3261L41.625 35.7597L41.4316 36.1758L41.209 36.5859L40.957 36.9902L40.6699 37.3886L40.3477 37.7754L40.0078 38.1386L39.6445 38.4902L39.252 38.83L38.8242 39.164L38.3672 39.4804L37.9043 39.7734L37.418 40.0547L36.9082 40.3183L36.3691 40.5644L35.8066 40.7988L35.2441 41.0097L34.6582 41.1972L34.0547 41.3672L33.4336 41.5195L32.7832 41.6543L32.1445 41.7597L31.4824 41.8418L30.8145 41.9004L30.123 41.9414L29.4199 41.9531L28.7168 41.9414L28.0254 41.9004L27.3516 41.8418L26.6953 41.7597L26.0566 41.6543L25.4062 41.5195L24.7852 41.3672L24.1816 41.1972L23.5957 41.0097L23.0332 40.7988L22.4648 40.5644L21.9316 40.3183L21.416 40.0547L20.9297 39.7734L20.4727 39.4804L20.0156 39.164L19.5879 38.83L19.1953 38.4902L18.8262 38.1386L18.4922 37.7754L18.1699 37.3886L17.8828 36.9902L17.6309 36.5859L17.4082 36.1758L17.2148 35.7597L17.0566 35.3261L16.9277 34.8808L16.8398 34.4355L16.7812 33.9785L16.7637 33.5156L16.7812 33.0527L16.8398 32.5957L16.9277 32.1504L17.0566 31.705L17.2148 31.2715L17.4082 30.8554L17.6309 30.4453L17.8828 30.041L18.1699 29.6425L18.4922 29.2558L18.8262 28.8925L19.1953 28.541L19.5879 28.2011L20.0156 27.8672L20.4727 27.5508L20.9297 27.2578L21.416 26.9765L21.9316 26.7129L22.4648 26.4668L23.0332 26.2324L23.5957 26.0215L24.1816 25.834L24.7852 25.664L25.4062 25.5117L26.0566 25.3769L26.6953 25.2715L27.3516 25.1894L28.0254 25.1308L28.7168 25.0898L29.4199 25.0781L30.123 25.0898L30.8145 25.1308L31.4824 25.1894L32.1445 25.2715L32.7832 25.3769L33.4336 25.5117L34.0547 25.664L34.6582 25.834L35.2441 26.0215L35.8066 26.2324L36.3691 26.4668L36.9082 26.7129L37.418 26.9765L37.9043 27.2578L38.3672 27.5508L38.8242 27.8672L39.252 28.2011L39.6445 28.541L40.0078 28.8925L40.3477 29.2558L40.6699 29.6425L40.957 30.041L41.209 30.4453L41.4316 30.8554L41.625 31.2715L41.7832 31.705L41.9121 32.1504L42 32.5957L42.0586 33.0527L42.0762 33.5156Z" fill="#141718"/>
<path d="M29.4199 25.4297L28.6055 25.4472L27.791 25.5L26.9824 25.5879L26.1797 25.7168L25.377 25.8808L24.5859 26.08L23.9004 26.2851L23.2207 26.5312L22.5586 26.8066L21.9082 27.1172L21.2813 27.4629L20.666 27.8437L20.2793 28.1015L19.916 28.3828L19.5645 28.6758L19.2246 28.9922L18.9082 29.3261L18.6035 29.6718L18.3223 30.041L18.0527 30.4218L17.8418 30.7734L17.6543 31.1367L17.4961 31.5117L17.3613 31.8984L17.2559 32.2968L17.1797 32.6953L17.1328 33.0996L17.1152 33.5156L17.1328 33.9258L17.1797 34.3359L17.2559 34.7343L17.3613 35.1328L17.4961 35.5195L17.6543 35.8945L17.8418 36.2578L18.0527 36.6093L18.3223 36.9902L18.6035 37.3535L18.9023 37.705L19.2246 38.039L19.5645 38.3554L19.916 38.6484L20.2793 38.9297L20.666 39.1875L21.2813 39.5683L21.9082 39.914L22.5586 40.2246L23.2207 40.5L23.9004 40.7461L24.5918 40.9511L25.3828 41.1504L26.1797 41.3144L26.9824 41.4433L27.791 41.5312L28.6055 41.584L29.4199 41.6015L30.2344 41.584L31.0488 41.5312L31.8574 41.4433L32.6602 41.3144L33.457 41.1504L34.248 40.9511L34.9395 40.7461L35.6191 40.5L36.2812 40.2246L36.9316 39.914L37.5586 39.5683L38.1738 39.1875L38.5547 38.9297L38.9238 38.6484L39.2754 38.3554L39.6152 38.039L39.9316 37.705L40.2363 37.3593L40.5176 36.9902L40.7812 36.6152L40.998 36.2578L41.1855 35.8945L41.3437 35.5195L41.4785 35.1328L41.584 34.7343L41.6602 34.3359L41.707 33.9316L41.7246 33.5156L41.707 33.1054L41.6602 32.6953L41.584 32.2968L41.4785 31.8984L41.3437 31.5117L41.1855 31.1367L40.998 30.7734L40.7871 30.4218L40.5176 30.041L40.2363 29.6777L39.9316 29.3261L39.6152 28.9922L39.2754 28.6758L38.9238 28.3828L38.5547 28.1015L38.1738 27.8437L37.5586 27.4629L36.9258 27.1172L36.2812 26.8066L35.6191 26.5312L34.9395 26.2851L34.248 26.08L33.457 25.8808L32.6602 25.7168L31.8574 25.5879L31.0488 25.5L30.2344 25.4472L29.4199 25.4297ZM29.4199 25.0781L30.123 25.0898L30.8145 25.1308L31.4824 25.1894L32.1387 25.2715L32.7832 25.3769L33.4336 25.5117L34.0547 25.664L34.6582 25.834L35.2441 26.0215L35.8066 26.2324L36.3691 26.4668L36.9082 26.7129L37.418 26.9765L37.9043 27.2578L38.3672 27.5508L38.8242 27.8672L39.252 28.2011L39.6445 28.541L40.0078 28.8925L40.3477 29.2558L40.6699 29.6425L40.957 30.041L41.209 30.4453L41.4316 30.8554L41.625 31.2715L41.7832 31.705L41.9121 32.1504L42 32.5957L42.0586 33.0527L42.0762 33.5156L42.0586 33.9785L42 34.4355L41.9121 34.8808L41.7832 35.3261L41.625 35.7597L41.4316 36.1758L41.209 36.5859L40.957 36.9902L40.6699 37.3886L40.3477 37.7754L40.0078 38.1386L39.6445 38.4902L39.252 38.83L38.8242 39.164L38.3672 39.4804L37.9043 39.7734L37.418 40.0547L36.9082 40.3183L36.3691 40.5644L35.8066 40.7988L35.2441 41.0097L34.6582 41.1972L34.0547 41.3672L33.4336 41.5195L32.7832 41.6543L32.1387 41.7597L31.4824 41.8418L30.8145 41.9004L30.123 41.9414L29.4199 41.9531L28.7168 41.9414L28.0254 41.9004L27.3516 41.8418L26.6953 41.7597L26.0566 41.6543L25.4062 41.5195L24.7852 41.3672L24.1816 41.1972L23.5957 41.0097L23.0332 40.7988L22.4648 40.5644L21.9316 40.3183L21.416 40.0547L20.9297 39.7734L20.4727 39.4804L20.0156 39.164L19.5879 38.83L19.1953 38.4902L18.8262 38.1386L18.4922 37.7754L18.1699 37.3886L17.8828 36.9902L17.6309 36.5859L17.4082 36.1758L17.2148 35.7597L17.0566 35.3261L16.9277 34.8808L16.8398 34.4355L16.7812 33.9785L16.7637 33.5156L16.7812 33.0527L16.8398 32.5957L16.9277 32.1504L17.0566 31.705L17.2148 31.2715L17.4082 30.8554L17.6309 30.4453L17.8828 30.041L18.1699 29.6425L18.4922 29.2558L18.8262 28.8925L19.1953 28.541L19.5879 28.2011L20.0156 27.8672L20.4727 27.5508L20.9297 27.2578L21.416 26.9765L21.9316 26.7129L22.4648 26.4668L23.0332 26.2324L23.5957 26.0215L24.1816 25.834L24.7852 25.664L25.4062 25.5117L26.0566 25.3769L26.6953 25.2715L27.3516 25.1894L28.0254 25.1308L28.7168 25.0898L29.4199 25.0781Z" fill="#141718"/>
<path d="M46.4824 1.88083L18.2871 3.29294L18.082 3.32809L17.6777 3.47458L17.3086 3.69138L17.1445 3.832L17.0039 3.97849L16.8867 4.14255L16.793 4.31247L16.7402 4.49411L16.7168 4.68747L5.41992 39.457L5.46094 39.8027L5.51367 40.0195L5.61328 40.3359L5.75977 40.6699L5.92969 40.998L6.11719 41.2968L6.4043 41.6425L6.55078 41.7656L6.70898 41.8711L6.86719 41.9297L7.01367 41.9531H29.4082L29.5547 41.9414L29.8945 41.83L30.0938 41.7304L30.6152 41.3847L30.9082 41.1445L31.3359 40.7578L31.7813 40.3183L32.2207 39.8496L33.0645 38.8769L34.0957 37.5879L34.6992 36.7793L35.543 36.9199L36.9609 37.0781L38.0977 37.1367L38.6836 37.1308L39.2578 37.1015L39.8086 37.0371L40.5059 36.8906L40.8106 36.791L41.1035 36.6679L41.3555 36.5215L41.5664 36.3574L41.7129 36.2109L41.8301 36.0527L41.918 35.8769L41.9883 35.6836L49.1074 4.62302L49.1367 4.3652V4.12497L49.1191 3.90817L49.002 3.4863L48.8203 3.12888L48.6563 2.91794L48.4805 2.72458L48.2813 2.55466L48.0645 2.40817L47.625 2.16794L47.2852 2.03317L46.9805 1.94528L46.6934 1.89255L46.4824 1.87497V1.88083Z" fill="#E8ECEF"/>
<path d="M46.4883 2.23239L18.4805 3.63278L18.1641 3.6738L18 3.72067L17.7656 3.82614L17.543 3.95505L17.4141 4.06052L17.2031 4.29489L17.1328 4.4238L17.0859 4.5527L17.0566 4.7988L5.77734 39.5097L5.83594 39.8554L5.93555 40.1894L6.07031 40.5117L6.23438 40.8222L6.39844 41.0859L6.54492 41.2793L6.67969 41.414L6.82617 41.5312L6.9375 41.584L7.01953 41.6015L29.4902 41.5957L29.7832 41.4961L30.0059 41.373L30.252 41.2148L30.5742 40.9687L30.9141 40.6699L31.3535 40.248L31.8164 39.7734L32.7891 38.6601L33.8027 37.3886L34.541 36.3925L35.4727 36.5508L36.1816 36.6445L36.8965 36.7148L37.6113 36.7617L38.3262 36.7851L39.082 36.7675L39.8262 36.6797L40.5586 36.5097L40.8633 36.3925L41.1035 36.2695L41.2969 36.1347L41.4199 36.0117L41.5195 35.8828L41.5957 35.748L41.6484 35.6015L48.7559 4.63473L48.7852 4.44724V4.07809L48.709 3.71481L48.5508 3.37497L48.4453 3.21677L48.3047 3.0527L47.9824 2.77731L47.6191 2.55466L47.1973 2.37302L46.9629 2.30856L46.4883 2.23239ZM46.4824 1.88083L46.6934 1.89255L46.9805 1.95114L47.2852 2.03903L47.625 2.16794L48.0645 2.40817L48.2812 2.56052L48.4805 2.73044L48.6621 2.91794L48.8203 3.13474L49.0078 3.49216L49.1191 3.90817L49.1426 4.13083L49.1367 4.3652L49.1074 4.62302L41.9883 35.6836L41.9238 35.8769L41.8301 36.0527L41.7129 36.2109L41.5723 36.3574L41.3555 36.5215L41.1035 36.6679L40.8105 36.7968L40.5059 36.8965L40.1719 36.9785L39.8145 37.0429L39.2637 37.1015L38.6836 37.1308L37.5234 37.1191L36.4453 37.0312L35.543 36.9199L34.6992 36.7793L34.0957 37.5879L33.0645 38.8769L32.2207 39.8496L31.3359 40.7578L30.9082 41.1445L30.3398 41.5781L29.8945 41.8359L29.7129 41.9004L29.4082 41.9531H7.01367L6.86719 41.9297L6.70898 41.8711L6.55078 41.7715L6.26367 41.4843L6.11719 41.2968L5.92969 40.998L5.75977 40.6758L5.61328 40.3359L5.46094 39.8027L5.41992 39.4629L16.7168 4.68747L16.7402 4.49411L16.793 4.31247L16.8867 4.14255L17.0039 3.97849L17.1445 3.832L17.3086 3.69138L17.6777 3.47458L17.877 3.39255L18.2871 3.29294L46.4824 1.88083Z" fill="#141718"/>
<path d="M46.2773 1.87497H17.0801L16.6816 1.92184L16.2773 2.06833L15.9082 2.28513L15.7441 2.42575L15.6035 2.57224L15.4863 2.7363L15.3926 2.90622L15.3398 3.08786L15.3223 3.28122L5.4668 39.1406L5.43164 39.3281V39.6386L5.4668 39.7734L5.54297 39.9375L5.64844 40.084L5.7832 40.207L5.93555 40.3125L6.10547 40.4004L6.48047 40.5117L6.87305 40.5468H27.9844L28.125 40.5351L28.4648 40.4238L28.6641 40.3242L29.1856 39.9785L29.4785 39.7383L29.9004 39.3515L30.3516 38.9121L30.7852 38.4433L31.6289 37.4707L32.6602 36.1816L33.2578 35.373L34.1074 35.5371L35.5254 35.748L36.6738 35.8593L37.8457 35.9004L38.7656 35.8535L39.416 35.748L39.7207 35.6601L39.9785 35.5547L40.2012 35.4375L40.3535 35.3261L40.4766 35.2031L40.5762 35.0683L40.6523 34.9218L47.6836 3.28122L47.6719 3.08786L47.6367 2.90622L47.5781 2.7363L47.4961 2.57224L47.2734 2.28513L46.9922 2.06833L46.8281 1.9863L46.6523 1.9277L46.4707 1.88669L46.2773 1.87497Z" fill="#FEFEFE"/>
<path d="M17.0742 2.22656L16.7578 2.26758L16.5938 2.31445L16.3535 2.41992L16.1367 2.54883L16.002 2.6543L15.7969 2.88867L15.7207 3.01758L15.6797 3.14648L15.6621 3.32812L5.77734 39.2344L5.74219 39.3867L5.74805 39.5391L5.7832 39.6855L5.85937 39.8203L5.99414 39.9434L6.14648 40.0371L6.31055 40.1133L6.48633 40.166L6.66211 40.1953H6.84961L28.084 40.1895L28.377 40.0898L28.5996 39.9668L28.8398 39.8086L29.168 39.5625L29.5078 39.2637L29.9473 38.8418L30.4043 38.3672L31.377 37.2539L32.3965 35.9824L33.1406 34.9805L34.248 35.1973L35.1328 35.3379L36.0176 35.4375L36.9082 35.5137L37.8047 35.5547L38.3672 35.5371L38.8359 35.4961L39.2227 35.4375L39.5449 35.3613L39.8144 35.2676L40.0195 35.168L40.1719 35.0566L40.2832 34.9395L40.3594 34.8164L47.3965 3.24609L47.373 3.05859L47.3203 2.88867L47.2383 2.73047L47.1328 2.58398L47.0098 2.4668L46.8574 2.36719L46.6992 2.29102L46.5234 2.24414L46.3359 2.22656H17.0742ZM17.0742 1.875H46.3359L46.5293 1.88672L46.7109 1.92773L46.8867 1.98633L47.1973 2.16797L47.4551 2.41992L47.5547 2.57227L47.6367 2.73047L47.6953 2.90625L47.7363 3.08789L47.748 3.28125L40.6934 34.9219L40.623 35.0684L40.5234 35.2031L40.3945 35.3262L40.2422 35.4375L40.0254 35.5547L39.7617 35.6602L39.457 35.748L39.1465 35.8066L38.4434 35.8828L37.8867 35.9004L37.3008 35.8945L36.1289 35.8125L35.0449 35.6777L34.1367 35.5371L33.2871 35.373L32.6895 36.1816L31.6582 37.4707L30.8145 38.4434L29.9238 39.3516L29.4961 39.7383L28.9336 40.1719L28.4883 40.4238L28.3066 40.4941L28.002 40.5469H6.84961L6.45703 40.5117L6.26367 40.4648L6.07617 40.4004L5.90625 40.3125L5.75391 40.207L5.61914 40.084L5.51367 39.9375L5.4375 39.7734L5.39062 39.4922L5.4375 39.1406L15.3105 3.28125L15.3281 3.08789L15.3867 2.90625L15.4746 2.73633L15.5918 2.57227L15.7324 2.42578L16.0781 2.16797L16.4707 1.98633L16.6758 1.92187L17.0742 1.875Z" fill="#141718"/>
<path d="M24.4805 12.9843H37.1367L37.3301 13.0019L37.5059 13.0488L37.6699 13.1308L37.8164 13.2304L37.9453 13.3593L38.0508 13.5058L38.127 13.6699L38.1738 13.8457L38.1914 14.039L38.1738 14.2324L38.127 14.4082L38.0508 14.5722L37.9453 14.7187L37.8164 14.8476L37.6699 14.9472L37.5059 15.0293L37.3301 15.0761L37.1367 15.0937H24.4805L24.2871 15.0761L24.1113 15.0293L23.9473 14.9472L23.8008 14.8476L23.6777 14.7187L23.5723 14.5722L23.4902 14.4082L23.4434 14.2324L23.4258 14.039L23.4434 13.8457L23.4902 13.6699L23.5723 13.5058L23.6777 13.3593L23.8008 13.2304L23.9473 13.1308L24.1113 13.0488L24.2871 13.0019L24.4805 12.9843Z" fill="#E8ECEF"/>
<path d="M18.5391 12.6738H20.6484L20.7422 12.6914L20.8242 12.7265L20.9531 12.8496L21 13.0254L20.2969 14.7832L20.25 14.9648L20.1211 15.0879L20.0391 15.123L19.9453 15.1347H17.8359L17.7422 15.123L17.6602 15.0879L17.5313 14.9648L17.4961 14.8828L17.4844 14.7832L17.8418 13.8164L18.0996 13.2011L18.2109 12.9843L18.3633 12.7558L18.4219 12.709L18.5391 12.6738Z" fill="#E8ECEF"/>
<path d="M17.2441 18.0058H19.3535L19.4473 18.0175L19.5293 18.0527L19.6582 18.1816L19.6934 18.2636L19.7051 18.3574L19.002 20.1152L18.9902 20.209L18.9023 20.3613L18.7441 20.455L18.6504 20.4668H16.541L16.4473 20.455L16.3652 20.4199L16.2363 20.291L16.1895 20.1152L16.8926 18.3574L16.9395 18.1816L17.0684 18.0527L17.2441 18.0058Z" fill="#E8ECEF"/>
<path d="M16.0312 23.3789H18.1406L18.3164 23.4258L18.4453 23.5547L18.4746 23.6367L18.4922 23.7304L17.7891 25.4883L17.7715 25.582L17.7422 25.664L17.6133 25.7929L17.4375 25.8398H15.3281L15.2285 25.8281L15.1465 25.7929L15.0234 25.664L14.9766 25.4883L15.334 24.5215L15.5918 23.9004L15.6973 23.6894L15.8555 23.4609L15.9141 23.414L16.0312 23.3789Z" fill="#E8ECEF"/>
<path d="M23.2266 18.3574H35.1973L35.3906 18.375L35.5664 18.4218L35.7305 18.5039L35.877 18.6035L36 18.7324L36.1055 18.8789L36.1816 19.0429L36.2344 19.2187L36.252 19.4121L36.2344 19.6054L36.1816 19.7812L36.1055 19.9453L36 20.0918L35.877 20.2207L35.7305 20.3203L35.5664 20.4023L35.3906 20.4492L35.1973 20.4668H23.2266L23.0332 20.4492L22.8574 20.4023L22.6934 20.3203L22.5469 20.2207L22.4238 20.0918L22.3184 19.9453L22.2363 19.7812L22.1895 19.6054L22.1719 19.4121L22.1895 19.2187L22.2363 19.0429L22.3184 18.8789L22.4238 18.7324L22.5469 18.6035L22.6934 18.5039L22.8574 18.4218L23.0332 18.375L23.2266 18.3574Z" fill="#E8ECEF"/>
<path d="M22.1426 23.7304H34.1074L34.3008 23.748L34.4766 23.7949L34.6406 23.8769L34.7871 23.9824L34.916 24.1054L35.0215 24.2519L35.0977 24.416L35.1445 24.5918L35.1621 24.7851L35.1445 24.9785L35.0977 25.1543L35.0215 25.3183L34.916 25.4648L34.7871 25.5937L34.6406 25.6992L34.4766 25.7754L34.3008 25.8222L34.1074 25.8398H22.1426L21.9492 25.8222L21.7734 25.7754L21.6094 25.6992L21.457 25.5937L21.334 25.4648L21.2285 25.3183L21.1523 25.1543L21.1055 24.9785L21.0879 24.7851L21.1055 24.5918L21.1523 24.416L21.2285 24.2519L21.334 24.1054L21.457 23.9824L21.6094 23.8769L21.7734 23.7949L21.9492 23.748L22.1426 23.7304Z" fill="#E8ECEF"/>
<path d="M13.9102 30.7617H33.2578L33.4512 30.7793L33.627 30.8261L33.791 30.9082L33.9375 31.0136L34.0664 31.1367L34.1719 31.2832L34.248 31.4472L34.2949 31.623L34.3125 31.8164L34.2949 32.0097L34.248 32.1855L34.1719 32.3496L34.0664 32.4961L33.9375 32.625L33.791 32.7304L33.627 32.8066L33.4512 32.8535L33.2578 32.8711H13.9102L13.7168 32.8535L13.541 32.8066L13.377 32.7304L13.2246 32.625L13.1016 32.4961L12.9961 32.3496L12.9199 32.1855L12.873 32.0097L12.8555 31.8164L12.873 31.623L12.9199 31.4472L12.9961 31.2832L13.1016 31.1367L13.2246 31.0136L13.377 30.9082L13.541 30.8261L13.7168 30.7793L13.9102 30.7617Z" fill="#E8ECEF"/>
<path d="M18.5742 13.8984L19.0078 14.3379L19.9102 13.4355" stroke="#141718" stroke-width="0.292969"/>
<path d="M17.2793 19.1718L17.7188 19.6113L18.6211 18.709" stroke="#141718" stroke-width="0.292969"/>
<path d="M16.1367 24.4453L16.5762 24.8847L17.4785 23.9824" stroke="#141718" stroke-width="0.292969"/>
</svg>
