<svg viewBox="0 0 24 24" fill="none" xmlns="http://www.w3.org/2000/svg">
<path d="M13.6964 4.75C14.4198 4.75008 15.1106 4.91371 15.7306 5.20801L14.5685 6.37012C14.2898 6.29245 13.9974 6.25005 13.6964 6.25H10.3038C8.74572 6.25017 7.40669 7.35662 7.11243 8.88672L5.40833 17.75H6.83606L5.33606 19.25H4.50012C4.27643 19.25 4.06447 19.15 3.922 18.9775C3.77952 18.8051 3.72154 18.5781 3.76379 18.3584L5.63977 8.60254C6.07003 6.36641 8.02667 4.75017 10.3038 4.75H13.6964ZM16.9855 6.07422C17.675 6.73595 18.1691 7.60768 18.3605 8.60254L20.2365 18.3584C20.2787 18.5781 20.2207 18.8051 20.0782 18.9775C19.9358 19.15 19.7238 19.25 19.5001 19.25H8.16418L9.66418 17.75H18.5919L16.8878 8.88672C16.7548 8.19523 16.4075 7.59117 15.924 7.13574L16.9855 6.07422Z" fill="currentColor"/>
<path d="M19 5L3 21" stroke="currentColor" stroke-width="1.5" stroke-linejoin="round"/>
<path d="M2 18.5H4" stroke="currentColor" stroke-width="1.5" stroke-linejoin="round"/>
<path d="M10 18.5H22" stroke="currentColor" stroke-width="1.5" stroke-linejoin="round"/>
<path d="M9 18.5H15V19.5C15 20.6046 14.1046 21.5 13 21.5H11C9.89543 21.5 9 20.6046 9 19.5V18.5Z" stroke="currentColor" stroke-width="1.5" stroke-linejoin="round"/>
<path d="M10 5.5H14V4.5C14 3.39543 13.1046 2.5 12 2.5V2.5C10.8954 2.5 10 3.39543 10 4.5V5.5Z" stroke="currentColor" stroke-width="1.5" stroke-linejoin="round"/>
</svg>
