<svg width="18" height="18" viewBox="0 0 18 18" fill="none" xmlns="http://www.w3.org/2000/svg">
<path d="M5.25 16.5H12.75C13.9926 16.5 15 15.4926 15 14.25V6L10.5 1.5H5.25C4.00736 1.5 3 2.50736 3 3.75V14.25C3 15.4926 4.00736 16.5 5.25 16.5Z" stroke="#6C7275" stroke-width="1.125" stroke-linejoin="round"/>
<path d="M10.5 3.75V1.5L15 6H12.75C11.5074 6 10.5 4.99264 10.5 3.75Z" stroke="#6C7275" stroke-width="1.125" stroke-linejoin="round"/>
<circle cx="9" cy="7.875" r="1.125" stroke="#6C7275" stroke-width="1.125" stroke-linejoin="round"/>
<path d="M9 9.375C7.75736 9.375 6.75 10.3824 6.75 11.625H11.25C11.25 10.3824 10.2426 9.375 9 9.375Z" stroke="#6C7275" stroke-width="1.125" stroke-linejoin="round"/>
<path d="M6.75 13.5H11.25" stroke="#6C7275" stroke-width="1.125" stroke-linejoin="round"/>
</svg>
