<svg width="35" height="35" viewBox="0 0 35 35" fill="none" xmlns="http://www.w3.org/2000/svg">
<path d="M18.2786 2.55212H20.2511V5.68332C23.9702 5.70417 27.6931 5.64504 31.4084 5.70076C32.2086 5.62419 32.8351 6.24763 32.7547 7.04709C32.8139 13.5464 32.7407 20.0487 32.7889 26.5514C32.7547 27.2541 32.8573 28.0334 32.455 28.6562C31.9471 29.0246 31.286 28.9761 30.6913 29.0041C27.2122 28.9867 23.733 28.9935 20.2505 28.9935V32.473H18.0869C12.7832 31.5057 7.47203 30.6222 2.16632 29.6898C2.1629 21.5728 2.1629 13.457 2.16632 5.34255C7.53492 4.41355 12.9032 3.46711 18.2786 2.55212Z" fill="#DC2E1B"/>
<path d="M3.77719 18.8535V14.6012H5.05278C5.53631 14.6012 5.85133 14.6225 5.99785 14.6651C6.22343 14.7289 6.41222 14.8677 6.5642 15.0814C6.71619 15.2952 6.7923 15.5712 6.79252 15.9096C6.79252 16.1705 6.74866 16.3898 6.66093 16.5676C6.58437 16.732 6.46979 16.8759 6.32665 16.9873C6.20437 17.0825 6.06348 17.1509 5.91308 17.1883C5.72304 17.229 5.44824 17.2494 5.08867 17.2494H4.57187V18.8535H3.77719ZM4.57187 15.3203V16.5272H5.00698C5.32029 16.5272 5.5297 16.505 5.6352 16.4606C5.7378 16.4186 5.82469 16.3456 5.88369 16.2517C5.94479 16.1525 5.976 16.0377 5.97358 15.9212C5.97895 15.7825 5.93404 15.6466 5.84711 15.5384C5.76636 15.4397 5.65325 15.3729 5.52787 15.3497C5.43263 15.3304 5.24202 15.3207 4.95605 15.3207L4.57187 15.3203ZM7.44228 14.6012H8.89526C9.2227 14.6012 9.47244 14.6283 9.64448 14.6825C9.87441 14.7556 10.0797 14.8908 10.2375 15.0732C10.4096 15.2739 10.5377 15.5086 10.6135 15.7619C10.6994 16.0338 10.7424 16.3689 10.7427 16.7672C10.7427 17.1172 10.7023 17.4187 10.6217 17.6719C10.5232 17.9813 10.3826 18.232 10.1999 18.4239C10.0632 18.569 9.87713 18.6821 9.64174 18.7633C9.46606 18.8234 9.23147 18.8534 8.93798 18.8532H7.44228V14.6012ZM8.2373 15.319V18.1357H8.83066C9.0526 18.1357 9.2129 18.1223 9.31157 18.0954C9.43195 18.0651 9.54241 18.0041 9.63217 17.9183C9.71716 17.8352 9.78644 17.6984 9.83998 17.5082C9.89353 17.3179 9.92053 17.0584 9.92099 16.7296C9.92099 16.4008 9.89399 16.1483 9.83998 15.9721C9.78598 15.796 9.7109 15.6593 9.61474 15.562C9.5139 15.4612 9.38605 15.3918 9.24662 15.362C9.13543 15.3349 8.91793 15.3214 8.59413 15.3214L8.2373 15.319ZM11.4215 18.8535V14.6012H14.12V15.319H12.2162V16.3256H13.8595V17.0433H12.2162V18.8535H11.4215Z" fill="white"/>
<path d="M27.8674 20.3912C27.8347 20.3559 27.7988 20.3237 27.7601 20.2951C27.6008 20.1748 27.2765 19.9991 26.637 19.847C26.5734 19.8318 26.5076 19.8171 26.4397 19.803C26.8642 20.1198 27.2259 20.3156 27.5232 20.384C27.7013 20.4284 27.8097 20.4114 27.8674 20.3912ZM24.2286 13.9794C24.3117 13.6882 24.3684 13.1656 24.2481 13.0607L24.2461 13.0631C24.0854 13.2852 23.8824 14.1975 23.9497 14.7478C24.0772 14.5208 24.1176 14.3691 24.2286 13.9794ZM24.2495 18.874C23.8657 18.3199 23.5612 17.715 23.3448 17.0768C22.872 17.7309 22.357 18.3534 21.8029 18.9403C22.3836 18.8828 23.3044 18.85 24.2495 18.874Z" fill="white"/>
<path d="M20.1353 6.72717V19.0971C20.4569 19.0052 20.6787 18.9587 20.6787 18.9587C20.8715 18.7577 20.8496 18.7765 21.081 18.5281C21.8157 17.7337 22.4999 16.8942 23.1297 16.0145C23.1236 15.9338 22.9024 12.9 23.8625 12.4964C23.9887 12.4444 24.1281 12.4342 24.2604 12.4673C24.4357 12.509 24.6022 12.6225 24.6876 12.7561C24.9043 13.1003 24.9002 13.6028 24.7218 14.3062C24.4388 15.4194 24.0075 16.0394 24.0075 16.0394C24.0075 16.0394 24.1442 17.4128 25.443 18.9375C26.0395 18.9881 26.5525 19.0636 26.9688 19.1628C27.6845 19.3337 28.1101 19.5702 28.2697 19.887C28.3599 20.0661 28.3722 20.2869 28.2642 20.5474C28.1562 20.8078 28.0465 20.937 27.8472 21.0136C27.6804 21.0779 27.4712 21.082 27.2275 21.0225C26.4988 20.8489 25.5326 20.1553 24.9033 19.5968C23.8854 19.5169 22.6502 19.508 21.2297 19.5695C20.8075 20.0232 20.4421 20.3861 20.1335 20.6581V27.9504H31.6162V6.72717H20.1353Z" fill="white"/>
</svg>
