<svg width="17" height="16" viewBox="0 0 17 16" fill="none" xmlns="http://www.w3.org/2000/svg">
<path fill-rule="evenodd" clip-rule="evenodd" d="M4.86115 1.57925C3.39661 1.77267 2.27267 2.89661 2.07925 4.36114C1.94627 5.36797 1.83325 6.62743 1.83325 7.99992C1.83325 9.3724 1.94627 10.6319 2.07925 11.6387C2.27267 13.1032 3.39661 14.2272 4.86114 14.4206C5.86797 14.5536 7.12743 14.6666 8.49992 14.6666C9.8724 14.6666 11.1319 14.5536 12.1387 14.4206C13.6032 14.2272 14.7272 13.1032 14.9206 11.6387C15.0536 10.6319 15.1666 9.3724 15.1666 7.99992C15.1666 6.62743 15.0536 5.36797 14.9206 4.36115C14.7272 2.89661 13.6032 1.77267 12.1387 1.57925C11.1319 1.44627 9.8724 1.33325 8.49992 1.33325C7.12743 1.33325 5.86797 1.44627 4.86115 1.57925ZM8.49992 4.66659C8.13173 4.66659 7.83325 4.96506 7.83325 5.33325V7.33325H5.83325C5.46506 7.33325 5.16659 7.63173 5.16659 7.99992C5.16659 8.36811 5.46506 8.66659 5.83325 8.66659H7.83325V10.6666C7.83325 11.0348 8.13173 11.3333 8.49992 11.3333C8.86811 11.3333 9.16659 11.0348 9.16659 10.6666V8.66659H11.1666C11.5348 8.66659 11.8333 8.36811 11.8333 7.99992C11.8333 7.63173 11.5348 7.33325 11.1666 7.33325H9.16659V5.33325C9.16659 4.96506 8.86811 4.66659 8.49992 4.66659Z" fill="currentColor"/>
</svg>
