<svg width="35" height="36" viewBox="0 0 35 36" fill="none" xmlns="http://www.w3.org/2000/svg">
<path d="M18.3306 2.90967H20.2925V6.02412C23.9914 6.04497 27.6941 5.98584 31.3896 6.04121C32.1853 5.96533 32.8084 6.58467 32.7288 7.38037C32.7875 13.8444 32.7147 20.3119 32.7629 26.7794C32.7288 27.4784 32.8313 28.2536 32.4307 28.8729C31.9255 29.2396 31.2686 29.1911 30.6766 29.2188C27.2163 29.2017 23.7559 29.2082 20.2921 29.2082V32.6689H18.1388C12.8666 31.7061 7.58242 30.8276 2.30542 29.9007C2.302 21.8277 2.302 13.7558 2.30542 5.68506C7.64497 4.76084 12.9842 3.81953 18.3306 2.90967Z" fill="#D24625"/>
<path d="M20.2925 7.0625H31.7119V28.1702H20.2925V25.4016H28.5982V24.0173H20.2925V22.2878H28.5982V20.9036H20.2959C20.2925 20.2254 20.2925 19.547 20.2887 18.8688C21.6593 19.2944 23.22 19.2841 24.445 18.4587C25.7705 17.6726 26.4616 16.1748 26.5768 14.6801C25.0575 14.6699 23.5385 14.6733 22.023 14.6733C22.0192 13.1694 22.0401 11.6627 21.9919 10.1616C21.4241 10.2723 20.8577 10.3888 20.2928 10.5109L20.2925 7.0625Z" fill="white"/>
<path d="M22.7182 9.43933C25.1221 9.55007 27.1441 11.5742 27.2723 13.9722C25.753 13.9897 24.2341 13.9828 22.7151 13.9828C22.7148 12.4673 22.711 10.9514 22.7182 9.43933ZM9.91211 13.924C10.5937 13.8929 11.4382 13.7682 11.8979 14.4084C12.2927 15.0865 12.2715 15.9806 11.9431 16.6782C11.5483 17.3912 10.6555 17.3219 9.96714 17.4049C9.89433 16.2459 9.90083 15.0865 9.91211 13.924Z" fill="#D24625"/>
<path d="M3.90778 19.1225V14.8934H5.17653C5.65732 14.8934 5.97063 14.9146 6.11647 14.957C6.34091 15.0201 6.52879 15.1581 6.68009 15.3709C6.83139 15.5837 6.90704 15.8582 6.90704 16.1943C6.90704 16.4539 6.86341 16.6721 6.77614 16.8492C6.69989 17.0126 6.58591 17.1555 6.44357 17.2662C6.32219 17.3606 6.18252 17.4288 6.03341 17.4665C5.84474 17.5066 5.5713 17.5268 5.2131 17.527H4.69835V19.1225H3.90778ZM4.69835 15.6074V16.8075H5.13107C5.44256 16.8075 5.65083 16.7854 5.75587 16.7412C5.85796 16.6995 5.94439 16.6268 6.00299 16.5334C6.06395 16.4347 6.09505 16.3205 6.09254 16.2046C6.09786 16.0667 6.05333 15.9315 5.9671 15.8238C5.88667 15.7256 5.77404 15.6591 5.64923 15.6362C5.55467 15.6172 5.36508 15.6077 5.08048 15.6074H4.69835ZM7.55577 19.1225V14.8934H8.82452C9.30532 14.8934 9.61863 14.9146 9.76447 14.957C9.98891 15.0201 10.1768 15.1581 10.3281 15.3709C10.4794 15.5837 10.555 15.8582 10.555 16.1943C10.555 16.4539 10.5114 16.6721 10.4241 16.8492C10.3479 17.0126 10.2339 17.1555 10.0916 17.2662C9.97019 17.3606 9.83052 17.4288 9.68141 17.4665C9.49274 17.5066 9.2193 17.5268 8.8611 17.527H8.34601V19.1225H7.55577ZM8.34601 15.6074V16.8075H8.77872C9.09021 16.8075 9.29848 16.7854 9.40353 16.7412C9.50561 16.6995 9.59204 16.6268 9.65065 16.5334C9.7116 16.4347 9.74271 16.3205 9.7402 16.2046C9.74552 16.0667 9.70098 15.9315 9.61476 15.8238C9.53432 15.7256 9.4217 15.6591 9.29689 15.6362C9.20232 15.6172 9.01274 15.6077 8.72814 15.6074H8.34601ZM12.0849 19.1225V15.6074H10.9228V14.8934H14.0332V15.6074H12.8755V19.1211L12.0849 19.1225Z" fill="white"/>
</svg>
