<svg width="200" height="200" viewBox="0 0 200 200" fill="none" xmlns="http://www.w3.org/2000/svg">
<path d="M17.3438 143.828L14.7461 143.379L12.6758 142.91L11.0156 142.441L9.76563 141.992L8.78906 141.543L8.04688 141.094L7.48047 140.645L7.10938 140.254L6.64063 139.453L6.44531 138.809L6.36719 138.105L6.40625 135.449V29.5703L6.46484 28.6914L6.64063 27.8711L6.91406 27.0898L7.28516 26.3477L7.75391 25.6641L8.30078 25.0586L8.90625 24.5117L9.58984 24.0625L10.3516 23.6719L11.1328 23.3984L11.9727 23.2422L137.09 13.8672L138.262 13.9062L139.414 14.0234L140.527 14.2188L141.641 14.5117L142.695 14.8438L143.73 15.2734L144.727 15.7617L145.684 16.3281L147.285 17.5391L148.477 18.7695L148.984 19.4141L149.727 20.7031L149.961 21.3477L150.117 21.9727L150.156 22.5586L141.113 128.184L140.938 129.023L140.664 129.805L140.293 130.547L139.824 131.211L139.277 131.836L138.652 132.383L137.988 132.832L137.227 133.203L136.445 133.477L135.605 133.652L17.3438 143.828Z" fill="#232627"/>
<path d="M137.109 14.4531L12.0508 23.8086L11.2891 23.9648L10.5664 24.2188L9.90234 24.5508L9.27734 24.9805L8.71094 25.4687L8.22266 26.0156L7.79297 26.6406L7.46094 27.3047L7.20703 28.0273L7.05078 28.7695L6.99219 29.5703L6.95312 138.125L7.03125 138.73L7.1875 139.258L7.57812 139.902L8.39844 140.625L9.12109 141.055L10.0391 141.484L11.25 141.914L12.8516 142.363L14.8633 142.793L17.3633 143.242L135.527 133.066L136.289 132.91L137.012 132.656L137.676 132.324L138.301 131.914L138.867 131.426L139.355 130.859L139.785 130.254L140.117 129.57L140.371 128.867L140.527 128.105L149.59 22.5391L149.531 22.0313L149.395 21.4648L149.141 20.8594L148.457 19.6875L147.988 19.082L146.875 17.9688L146.211 17.4219L145.254 16.7383L144.219 16.1523L143.145 15.6445L141.992 15.2344L140.82 14.9023L139.629 14.6484L138.379 14.5117L137.109 14.4531ZM137.07 13.2812L139.434 13.4375L141.582 13.8867L142.949 14.3164L144.199 14.8438L145.352 15.4492L146.445 16.1523L147.422 16.875L148.242 17.6563L149.004 18.4961L149.629 19.3164L150.098 20.1367L150.391 20.8008L150.586 21.4258L150.742 22.5977L141.68 128.262L141.504 129.18L141.211 130.039L140.801 130.84L140.293 131.582L139.688 132.246L139.023 132.832L138.281 133.34L137.461 133.75L136.602 134.043L135.684 134.219L17.3242 144.414L15.1562 144.043L11.9336 143.34L10.5078 142.91L9.39453 142.48L8.53516 142.07L7.73437 141.582L7.10938 141.113L6.67969 140.645L6.30859 140.117L6.05469 139.59L5.89844 139.062L5.78125 138.223L5.82031 29.5703L5.87891 28.6133L6.07422 27.7148L6.36719 26.8555L6.77734 26.0352L7.28516 25.3125L7.87109 24.6289L8.55469 24.043L9.29687 23.5547L10.1172 23.1445L10.9766 22.832L11.875 22.6562L137.07 13.2812Z" fill="#FEFEFE"/>
<path d="M18.6915 144.18L17.8126 144.121L16.9728 143.945L16.1915 143.672L15.4493 143.301L14.7657 142.852L14.1407 142.305L13.5939 141.68L13.1447 141.016L12.7736 140.273L12.5001 139.492L12.3243 138.672L12.2657 137.793V35.4297L12.3243 34.5508L12.5001 33.7305L12.7736 32.9492L13.1447 32.207L13.6134 31.5234L14.1603 30.8984L14.7657 30.3711L15.4493 29.9023L16.2111 29.5312L16.9923 29.2578L17.8322 29.1016L145.293 19.7266L146.172 19.7852L147.012 19.9609L147.793 20.2344L148.535 20.6055L149.219 21.0742L149.844 21.6016L150.371 22.2266L150.84 22.8906L151.211 23.6328L151.484 24.4141L151.66 25.2539L151.719 26.1133V128.477L151.66 129.355L151.484 130.176L151.211 130.977L150.84 131.719L150.371 132.383L149.824 133.008L149.199 133.535L148.535 134.004L147.774 134.375L146.992 134.648L146.152 134.805L18.6915 144.18Z" fill="#141718"/>
<path d="M145.313 20.3125L17.9102 29.668L17.1485 29.8242L16.4258 30.0781L15.7422 30.4102L15.1368 30.8398L14.5704 31.3281L14.0626 31.875L13.6524 32.5L13.3204 33.1641L13.0665 33.8867L12.9102 34.6289L12.8516 35.4297V137.793L12.9102 138.574L13.0665 139.336L13.3008 140.039L13.6524 140.703L14.0626 141.328L14.5508 141.875L15.1172 142.363L15.7227 142.793L16.4063 143.125L17.1094 143.379L17.8712 143.535L18.6719 143.594L146.074 134.238L146.836 134.082L147.559 133.828L148.223 133.496L148.848 133.086L149.414 132.578L149.902 132.031L150.332 131.406L150.664 130.742L150.918 130.02L151.074 129.277L151.133 128.477V26.1133L151.074 25.332L150.918 24.5703L150.664 23.8672L150.332 23.2031L149.922 22.5781L149.434 22.0313L148.867 21.543L148.262 21.1133L147.578 20.7813L146.856 20.5273L146.113 20.3711L145.313 20.3125ZM145.273 19.1406L146.231 19.1992L147.148 19.3945L148.008 19.6875L148.828 20.0977L149.57 20.5859L150.234 21.1914L150.84 21.8555L151.348 22.5977L151.758 23.3984L152.051 24.2578L152.227 25.1563L152.305 26.1133V128.477L152.227 129.434L152.051 130.352L151.758 131.191L151.348 132.012L150.84 132.754L150.234 133.418L149.57 134.004L148.828 134.512L148.008 134.922L147.148 135.215L146.231 135.391L18.711 144.766L17.7344 144.707L16.836 144.512L15.9766 144.219L15.1563 143.809L14.4141 143.32L13.7305 142.715L13.1446 142.051L12.6368 141.309L12.2266 140.508L11.9337 139.648L11.7383 138.75L11.6797 137.793V35.4297L11.7383 34.4727L11.9337 33.5742L12.2266 32.7148L12.6368 31.8945L13.1446 31.1523L13.7305 30.4883L14.4141 29.9023L15.1563 29.3945L15.9766 29.0039L16.836 28.6914L17.7344 28.5156L145.273 19.1406Z" fill="#FEFEFE"/>
<path d="M137.637 45.8008L26.7968 54.9023L26.3672 55L25.664 55.3906L25.2734 55.7422L24.9414 56.1914L24.6875 56.6797L24.5117 57.2266L24.3945 57.793V58.9648L24.6875 60.0781L24.9414 60.5664L25.2734 61.0156L25.664 61.3672L25.9961 61.582L26.7968 61.8555L27.2851 61.8945L138.125 52.793L138.555 52.6953L139.258 52.3242L139.648 51.9531L139.98 51.5234L140.234 51.0156L140.41 50.4687L140.527 49.9023V48.7305L140.234 47.6367L139.98 47.1289L139.648 46.6992L139.258 46.3281L138.926 46.1133L138.125 45.8398L137.637 45.8008Z" fill="#232627"/>
<path d="M101.797 105.801L26.7969 111.289L26.3672 111.387L25.6641 111.777L25.2735 112.129L24.9415 112.559L24.6876 113.066L24.5118 113.613L24.3751 114.766L24.5118 115.918L24.6876 116.465L24.9415 116.953L25.2735 117.383L25.6641 117.754L26.3672 118.145L26.7969 118.242L27.2852 118.281L102.285 112.793L102.715 112.676L103.418 112.305L103.809 111.934L104.141 111.504L104.395 110.996L104.57 110.469L104.668 109.902V108.73L104.395 107.617L104.141 107.109L103.809 106.68L103.418 106.309L103.086 106.094L102.285 105.84L101.797 105.801Z" fill="#232627"/>
<path d="M135.234 59.6289L27.9883 68.3398L27.4415 68.4766L26.9337 68.6914L25.9962 69.3164L25.2344 70.2148L24.6876 71.3086L24.4141 72.5391L24.3751 73.2227V99.0039L24.4141 99.6875L24.6876 100.918L24.9415 101.484L25.586 102.48L25.9962 102.891L26.9337 103.535L27.4415 103.75L27.9883 103.867L28.5547 103.926L135.801 94.0234L136.348 93.9062L136.856 93.6914L137.774 93.0664L138.535 92.168L139.082 91.0742L139.375 89.8438L139.414 64.5508L139.375 63.8672L139.082 62.6367L138.828 62.0508L138.184 61.0742L137.774 60.6445L136.856 60.0195L136.348 59.8047L135.801 59.668L135.234 59.6289Z" fill="#232627"/>
<path d="M60.9571 40.0781L60.918 40.6055L60.7813 41.0937L60.5665 41.5625L60.2735 41.9727L59.9219 42.3047L59.5118 42.5977L59.0626 42.8125L58.5743 42.9492L58.0274 43.0078L57.5001 42.9492L57.0118 42.8125L56.5626 42.5977L56.1524 42.3047L55.8008 41.9727L55.5079 41.5625L55.293 41.0937L55.1563 40.6055L55.0977 40.0781L55.1563 39.5312L55.293 39.043L55.5079 38.5938L55.8008 38.1836L56.1524 37.832L56.5626 37.5391L57.0118 37.3242L57.5001 37.1875L58.0274 37.1484L58.5743 37.1875L59.0626 37.3242L59.5118 37.5391L59.9219 37.832L60.2735 38.1836L60.5665 38.5938L60.7813 39.043L60.918 39.5312L60.9571 40.0781Z" stroke="#FEFEFE" stroke-width="1.17188"/>
<path d="M45.8204 41.2305L45.7813 41.7773L45.6446 42.2656L45.4297 42.7148L45.1368 43.125L44.7852 43.4766L44.3751 43.7695L43.9258 43.9844L43.4376 44.1211L42.8907 44.1602L42.3633 44.1211L41.8751 43.9844L41.4258 43.7695L41.0157 43.4766L40.6641 43.125L40.3712 42.7148L40.1563 42.2656L40.0196 41.7773L39.961 41.2305L40.0196 40.7031L40.1563 40.2148L40.3712 39.7656L40.6641 39.3555L41.0157 39.0039L41.4258 38.7109L41.8751 38.4961L42.3633 38.3594L42.8907 38.3008L43.4376 38.3594L43.9258 38.4961L44.3751 38.7109L44.7852 39.0039L45.1368 39.3555L45.4297 39.7656L45.6446 40.2148L45.7813 40.7031L45.8204 41.2305Z" stroke="#FEFEFE" stroke-width="1.17188"/>
<path d="M30.8204 42.4023L30.7618 42.9297L30.6251 43.418L30.4103 43.8867L30.1173 44.2969L29.7657 44.6484L29.3556 44.9414L28.9064 45.1562L28.4181 45.2734L27.8907 45.332L27.3439 45.2734L26.8556 45.1562L26.4064 44.9414L25.9962 44.6484L25.6447 44.2969L25.3517 43.8867L25.1368 43.418L25.0001 42.9297L24.9611 42.4023L25.0001 41.875L25.1368 41.3867L25.3517 40.918L25.6447 40.5078L25.9962 40.1562L26.4064 39.8633L26.8556 39.6484L27.3439 39.5312L27.8907 39.4727L28.4181 39.5312L28.9064 39.6484L29.3556 39.8633L29.7657 40.1562L30.1173 40.5078L30.4103 40.918L30.6251 41.3867L30.7618 41.875L30.8204 42.4023Z" stroke="#FEFEFE" stroke-width="1.17188"/>
<path d="M130.176 136.602L127.871 134.98L125.703 133.34L123.711 131.68L121.836 130.039L120.02 128.281L118.359 126.523L116.856 124.785L115.488 123.066L114.434 121.582L113.496 120.137L112.656 118.691L111.914 117.266L111.27 115.859L110.273 113.125L109.59 110.449L109.375 109.082L109.238 107.754L109.199 106.426L109.219 105.117L109.336 103.77L109.531 102.441L109.824 101.133L110.195 99.8242L110.625 98.5352L111.172 97.2656L111.777 95.9961L112.5 94.7461L113.262 93.5547L114.082 92.4609L114.941 91.4648L115.859 90.5273L116.856 89.668L117.891 88.9062L118.984 88.2031L120.137 87.5977L121.25 87.0898L122.422 86.6602L123.652 86.3086L124.961 86.0156L127.598 85.6641L130.488 85.5859L132.344 85.7031L134.297 85.9375L136.348 86.2891L138.359 86.7383L140.469 87.3242L142.656 88.0469L144.746 88.8086L146.875 89.6875L149.063 90.7031L151.211 91.7578L153.399 92.9492L155.625 94.2383L157.734 95.5664L159.746 96.9336L161.66 98.3594L163.477 99.8438L165.234 101.426L166.895 103.008L168.418 104.648L169.844 106.309L171.191 108.047L172.422 109.785L173.496 111.543L174.473 113.32L175.117 114.668L176.152 117.305L176.875 119.902L177.129 121.191L177.383 123.711V125L177.305 126.27L177.149 127.48L176.895 128.672L176.563 129.844L176.133 130.977L175.625 132.09L175.039 133.164L174.375 134.199L173.633 135.195L172.832 136.133L171.953 137.031L171.035 137.891L170.039 138.672L168.984 139.414L167.871 140.098L165.527 141.25L164.297 141.738L161.68 142.52L158.887 143.066L157.402 143.242L155.391 143.359L153.301 143.379L151.152 143.262L149.004 143.027L146.797 142.676L144.512 142.207L142.168 141.582L139.785 140.84L137.363 139.961L135 138.965L132.598 137.852L130.176 136.602Z" fill="#141718"/>
<mask id="path-12-inside-1_4226_4139" fill="white">
<path d="M155.332 94.7461L150.957 92.2852L148.828 91.2305L146.641 90.2344L144.531 89.3555L142.461 88.5937L140.313 87.8906L138.223 87.3242L136.231 86.875L134.219 86.5234L132.305 86.2891L130.469 86.1719L127.656 86.25L125.078 86.582L123.809 86.875L122.617 87.2266L121.484 87.6367L120.391 88.125L119.277 88.7109L118.223 89.3945L117.207 90.1367L116.25 90.9766L115.371 91.8555L114.531 92.832L113.731 93.9062L112.988 95.0391L112.305 96.2695L111.699 97.5L111.191 98.75L110.742 99.9805L110.391 101.27L110.117 102.539L109.922 103.848L109.805 105.137L109.785 106.426L109.824 107.715L109.961 109.023L110.449 111.641L111.27 114.277L111.797 115.625L112.441 117.012L113.184 118.418L114.004 119.844L114.941 121.27L115.957 122.715L117.305 124.434L118.789 126.152L120.449 127.871L122.246 129.609L124.082 131.25L126.074 132.871L128.203 134.492L130.488 136.113L132.871 137.344L135.234 138.437L137.578 139.414L139.981 140.293L142.324 141.016L144.648 141.641L146.895 142.109L149.063 142.461L151.172 142.676L153.301 142.793L155.352 142.773L157.344 142.656L159.258 142.422L161.074 142.07L162.813 141.621L164.082 141.191L166.465 140.176L168.652 138.926L169.688 138.223L171.523 136.641L172.363 135.781L173.145 134.863L173.867 133.887L174.531 132.871L175.098 131.836L175.586 130.762L175.996 129.668L176.328 128.535L176.563 127.383L176.719 126.211L176.797 124.98V123.73L176.543 121.289L176.309 120.02L175.586 117.48L174.57 114.902L173.945 113.574L173.008 111.875L171.953 110.156L170.762 108.438L169.473 106.797L168.066 105.156L166.543 103.516L164.883 101.914L163.145 100.352L161.309 98.8477L159.395 97.4219L157.402 96.0547L155.332 94.7461ZM155.938 93.7305L158.106 95.0977L160.156 96.5234L162.109 97.9883L163.945 99.4922L165.742 101.094L167.402 102.734L168.965 104.375L170.371 106.035L171.738 107.793L172.949 109.551L174.043 111.309L174.981 113.047L175.684 114.512L176.289 115.957L176.797 117.383L177.207 118.789L177.539 120.176L177.793 121.621L177.93 123.027L177.988 124.395L177.93 125.762L177.793 127.09L177.559 128.418L177.207 129.727L176.758 130.996L176.211 132.246L175.547 133.477L174.766 134.648L173.945 135.742L173.047 136.777L172.07 137.734L171.035 138.652L169.941 139.473L168.789 140.234L167.559 140.937L166.27 141.562L164.922 142.129L163.535 142.617L162.109 143.027L160.625 143.359L159.082 143.633L157.461 143.828L155.449 143.945L153.379 143.965L151.211 143.848L148.945 143.613L146.719 143.262L144.453 142.793L142.09 142.168L139.648 141.406L137.285 140.566L134.883 139.57L132.402 138.418L129.863 137.109L127.578 135.488L125.449 133.887L123.477 132.266L121.641 130.645L119.941 129.023L118.262 127.285L116.719 125.566L115.352 123.867L114.102 122.148L113.008 120.469L111.973 118.672L111.094 116.895L110.352 115.137L109.727 113.398L109.258 111.68L108.945 110.176L108.75 108.711L108.633 107.246L108.613 105.801L108.691 104.355L108.867 102.91L109.121 101.484L109.492 100.078L109.961 98.6719L110.527 97.2656L111.211 95.8594L111.992 94.4531L112.871 93.0859L113.809 91.875L114.785 90.7617L115.82 89.7852L116.895 88.9062L118.047 88.0859L119.258 87.3828L120.508 86.7773L121.797 86.25L123.164 85.8203L124.531 85.5078L125.957 85.2539L127.422 85.0781L128.926 85H130.508L132.422 85.1172L134.414 85.3516L136.484 85.7227L138.613 86.2109L140.684 86.7773L142.793 87.4805L144.961 88.2812L147.188 89.1992L149.336 90.1758L151.523 91.2695L153.711 92.4414L155.938 93.7305Z"/>
</mask>
<path d="M155.332 94.7461L150.957 92.2852L148.828 91.2305L146.641 90.2344L144.531 89.3555L142.461 88.5937L140.313 87.8906L138.223 87.3242L136.231 86.875L134.219 86.5234L132.305 86.2891L130.469 86.1719L127.656 86.25L125.078 86.582L123.809 86.875L122.617 87.2266L121.484 87.6367L120.391 88.125L119.277 88.7109L118.223 89.3945L117.207 90.1367L116.25 90.9766L115.371 91.8555L114.531 92.832L113.731 93.9062L112.988 95.0391L112.305 96.2695L111.699 97.5L111.191 98.75L110.742 99.9805L110.391 101.27L110.117 102.539L109.922 103.848L109.805 105.137L109.785 106.426L109.824 107.715L109.961 109.023L110.449 111.641L111.27 114.277L111.797 115.625L112.441 117.012L113.184 118.418L114.004 119.844L114.941 121.27L115.957 122.715L117.305 124.434L118.789 126.152L120.449 127.871L122.246 129.609L124.082 131.25L126.074 132.871L128.203 134.492L130.488 136.113L132.871 137.344L135.234 138.437L137.578 139.414L139.981 140.293L142.324 141.016L144.648 141.641L146.895 142.109L149.063 142.461L151.172 142.676L153.301 142.793L155.352 142.773L157.344 142.656L159.258 142.422L161.074 142.07L162.813 141.621L164.082 141.191L166.465 140.176L168.652 138.926L169.688 138.223L171.523 136.641L172.363 135.781L173.145 134.863L173.867 133.887L174.531 132.871L175.098 131.836L175.586 130.762L175.996 129.668L176.328 128.535L176.563 127.383L176.719 126.211L176.797 124.98V123.73L176.543 121.289L176.309 120.02L175.586 117.48L174.57 114.902L173.945 113.574L173.008 111.875L171.953 110.156L170.762 108.438L169.473 106.797L168.066 105.156L166.543 103.516L164.883 101.914L163.145 100.352L161.309 98.8477L159.395 97.4219L157.402 96.0547L155.332 94.7461ZM155.938 93.7305L158.106 95.0977L160.156 96.5234L162.109 97.9883L163.945 99.4922L165.742 101.094L167.402 102.734L168.965 104.375L170.371 106.035L171.738 107.793L172.949 109.551L174.043 111.309L174.981 113.047L175.684 114.512L176.289 115.957L176.797 117.383L177.207 118.789L177.539 120.176L177.793 121.621L177.93 123.027L177.988 124.395L177.93 125.762L177.793 127.09L177.559 128.418L177.207 129.727L176.758 130.996L176.211 132.246L175.547 133.477L174.766 134.648L173.945 135.742L173.047 136.777L172.07 137.734L171.035 138.652L169.941 139.473L168.789 140.234L167.559 140.937L166.27 141.562L164.922 142.129L163.535 142.617L162.109 143.027L160.625 143.359L159.082 143.633L157.461 143.828L155.449 143.945L153.379 143.965L151.211 143.848L148.945 143.613L146.719 143.262L144.453 142.793L142.09 142.168L139.648 141.406L137.285 140.566L134.883 139.57L132.402 138.418L129.863 137.109L127.578 135.488L125.449 133.887L123.477 132.266L121.641 130.645L119.941 129.023L118.262 127.285L116.719 125.566L115.352 123.867L114.102 122.148L113.008 120.469L111.973 118.672L111.094 116.895L110.352 115.137L109.727 113.398L109.258 111.68L108.945 110.176L108.75 108.711L108.633 107.246L108.613 105.801L108.691 104.355L108.867 102.91L109.121 101.484L109.492 100.078L109.961 98.6719L110.527 97.2656L111.211 95.8594L111.992 94.4531L112.871 93.0859L113.809 91.875L114.785 90.7617L115.82 89.7852L116.895 88.9062L118.047 88.0859L119.258 87.3828L120.508 86.7773L121.797 86.25L123.164 85.8203L124.531 85.5078L125.957 85.2539L127.422 85.0781L128.926 85H130.508L132.422 85.1172L134.414 85.3516L136.484 85.7227L138.613 86.2109L140.684 86.7773L142.793 87.4805L144.961 88.2812L147.188 89.1992L149.336 90.1758L151.523 91.2695L153.711 92.4414L155.938 93.7305Z" stroke="#FEFEFE" stroke-width="3" mask="url(#path-12-inside-1_4226_4139)"/>
<path d="M157.148 90.7031L159.297 92.0703L161.348 93.4961L163.281 94.9805L165.098 96.5039L166.856 98.125L168.496 99.7852L170 101.465L171.387 103.164L172.695 104.961L173.867 106.758L174.902 108.535L175.801 110.312L176.465 111.797L177.031 113.262L177.5 114.707L177.891 116.152L178.184 117.559L178.398 119.023L178.535 120.43L178.555 121.816L178.496 123.184L178.34 124.512L178.106 125.84L177.754 127.129L177.305 128.379L176.758 129.609L176.113 130.801L175.352 131.934L174.531 132.988L173.633 133.984L172.656 134.883L171.602 135.723L170.488 136.484L169.316 137.188L168.086 137.812L166.777 138.359L165.391 138.848L164.004 139.258L162.559 139.59L161.055 139.844L159.492 140.039L157.871 140.156L155.879 140.195L153.809 140.117L151.68 139.922L149.492 139.609L147.344 139.18L145.137 138.633L142.91 137.969L140.664 137.188L138.457 136.309L136.231 135.293L134.023 134.16L131.797 132.891L129.629 131.523L127.578 130.098L125.645 128.613L123.828 127.07L122.07 125.449L120.43 123.789L118.926 122.109L117.559 120.41L116.23 118.613L115.078 116.836L114.043 115.039L113.125 113.262L112.461 111.777L111.914 110.312L111.426 108.867L111.055 107.441L110.742 106.016L110.527 104.57L110.41 103.145L110.371 101.758L110.43 100.41L110.586 99.0625L110.84 97.7344L111.172 96.4453L111.621 95.1953L112.168 93.9648L112.832 92.7734L113.574 91.6406L114.395 90.5859L115.293 89.6094L116.27 88.6914L117.324 87.8516L118.438 87.0898L119.609 86.4062L120.84 85.7813L122.148 85.2148L123.535 84.7266L124.922 84.3359L126.367 84.0039L127.871 83.7305L129.434 83.5547L131.055 83.4375L133.047 83.3984L135.117 83.4766L137.246 83.6719L139.434 83.9844L141.602 84.3945L143.789 84.9414L146.016 85.6055L148.281 86.3867L150.488 87.2852L152.695 88.3008L154.922 89.4336L157.148 90.7031Z" fill="#141718"/>
<path d="M156.836 91.1914L158.965 92.5391L160.977 93.9453L162.891 95.4102L164.668 96.9141L166.406 98.5156L168.008 100.137L169.492 101.777L170.859 103.457L172.168 105.215L173.32 106.973L174.336 108.711L175.234 110.469L176.035 112.285L176.699 114.063L177.207 115.82L177.598 117.559L177.813 118.984L177.949 120.371L177.988 121.719L177.93 123.047L177.774 124.355L177.539 125.664L177.207 126.914L176.777 128.145L176.231 129.336L175.606 130.508L174.883 131.602L174.063 132.637L173.184 133.594L172.246 134.492L171.211 135.312L170.117 136.055L168.965 136.719L167.754 137.324L166.465 137.871L165.117 138.34L163.398 138.809L161.602 139.18L159.707 139.434L157.734 139.59L155.762 139.609L153.75 139.531L151.66 139.336L149.492 139.023L147.383 138.594L145.234 138.066L143.047 137.402L140.82 136.621L138.633 135.742L136.465 134.746L134.277 133.633L132.09 132.383L129.961 131.035L127.949 129.629L126.055 128.184L124.258 126.68L122.52 125.078L120.918 123.457L119.434 121.797L118.066 120.137L116.777 118.379L115.625 116.621L114.59 114.863L113.691 113.125L112.891 111.309L112.246 109.512L111.719 107.754L111.328 106.035L111.113 104.609L110.977 103.223L110.957 101.855L110.996 100.527L111.152 99.2188L111.387 97.9297L111.719 96.6602L112.168 95.4297L112.695 94.2383L113.32 93.0859L114.063 91.9727L114.863 90.9375L115.742 89.9805L116.699 89.1016L117.734 88.2813L118.809 87.5391L119.961 86.8555L121.172 86.25L122.461 85.7227L123.828 85.2344L125.527 84.7656L127.324 84.3945L129.219 84.1406L131.191 84.0039L133.164 83.9648L135.176 84.0625L137.266 84.2578L139.434 84.5703L141.543 84.9805L143.711 85.5273L145.899 86.1719L148.125 86.9531L150.293 87.832L152.461 88.8281L154.649 89.9414L156.836 91.1914Z" stroke="#FEFEFE" stroke-width="1.5"/>
<path d="M137.601 91.1572V91.1582L139.162 91.2734L140.745 91.5L142.353 91.79L143.94 92.168L145.581 92.6504L147.232 93.2207L148.859 93.8789L150.471 94.5996L152.091 95.4385H152.092L153.739 96.3682L155.322 97.3604L156.827 98.4219L158.229 99.5166L159.563 100.622L160.832 101.815H160.833L162.034 103.036L163.112 104.266L164.1 105.518V105.519L165.062 106.846L165.91 108.177L166.663 109.457L167.305 110.759L167.876 112.13L168.345 113.441L168.706 114.772L168.985 116.056L169.154 117.374L169.229 118.643L169.191 119.87L169.044 121.068L168.802 122.279L168.454 123.415L167.992 124.523L167.424 125.587L166.741 126.602L165.984 127.524L165.138 128.372L164.216 129.146L163.217 129.83L162.131 130.448L160.98 130.986L159.749 131.434L158.465 131.812L157.155 132.092L155.747 132.302L154.293 132.434L152.831 132.472L151.305 132.434L149.783 132.302L148.154 132.089L146.585 131.786L144.984 131.405L143.344 130.923L141.693 130.354L140.072 129.717L138.451 128.973L136.828 128.151L135.178 127.22L133.598 126.211L132.109 125.181L130.704 124.083L129.374 122.962L128.077 121.762L126.887 120.533L125.82 119.316L124.814 118.06L123.863 116.747L123.025 115.433L122.274 114.104L121.616 112.806L121.051 111.467L120.576 110.118L120.22 108.822L119.939 107.537L119.771 106.219L119.696 104.95L119.733 103.703L119.88 102.511L120.123 101.311L120.471 100.178L120.933 99.0693L121.501 98.0059L122.185 96.9893L122.94 96.0498L123.782 95.2266L124.726 94.4492L125.731 93.7598L126.795 93.1445L127.945 92.6064L129.198 92.1387L130.459 91.7812L131.778 91.4795L133.179 91.2715L134.65 91.1396L136.1 91.1016L137.601 91.1572Z" stroke="#FEFEFE" stroke-width="1.5"/>
<path d="M153.828 96.2305L155.391 97.2266L156.895 98.2617L158.301 99.3555L159.629 100.469L160.918 101.66L162.09 102.871L163.203 104.102L164.199 105.352L165.156 106.66L165.996 107.988L166.758 109.297L167.422 110.605L168.008 111.953L168.477 113.301L168.848 114.609L169.141 115.918L169.316 117.246L169.395 118.555L169.355 119.805L169.238 121.035L168.984 122.266L168.633 123.437L168.164 124.57L167.559 125.684L166.875 126.719L166.094 127.656L165.215 128.535L164.258 129.316L163.223 130.02L162.129 130.625L160.957 131.172L159.687 131.641L158.418 132.012L157.07 132.285L155.664 132.5L154.18 132.617L152.715 132.656L151.211 132.598L149.648 132.461L148.047 132.246L146.465 131.934L144.863 131.543L143.242 131.074L141.582 130.488L139.98 129.844L138.359 129.121L136.738 128.281L135.117 127.363L133.535 126.367L132.031 125.312L130.625 124.238L129.297 123.125L128.008 121.914L126.836 120.703L125.742 119.473L124.727 118.223L123.77 116.914L122.93 115.605L122.168 114.297L121.504 112.988L120.918 111.621L120.449 110.293L120.078 108.965L119.785 107.656L119.609 106.328L119.531 105.039L119.57 103.77L119.707 102.539L119.941 101.328L120.293 100.156L120.781 99.0234L121.367 97.9102L122.051 96.875L122.852 95.918L123.711 95.0586L124.668 94.2773L125.703 93.5742L126.797 92.9492L127.969 92.4023L129.238 91.9531L130.508 91.582L131.855 91.2891L133.262 91.0937L134.746 90.9766L136.211 90.9375L137.715 90.9766L139.277 91.1133L140.879 91.3477L142.461 91.6406L144.062 92.0313L145.684 92.5195L147.344 93.0859L148.965 93.7305L150.566 94.4727L152.188 95.293L153.828 96.2305Z" stroke="#FEFEFE" stroke-width="1.5"/>
<path d="M151.699 99.7461L153.262 100.723L156.113 102.773L157.422 103.848L159.863 106.152L161.953 108.516L162.91 109.766L163.77 110.996L165.215 113.457L165.82 114.746L166.328 115.996L166.719 117.227L167.031 118.438L167.266 119.668L167.363 120.859L167.383 122.031L167.305 123.164L167.109 124.277L166.797 125.352L166.387 126.387L165.859 127.383L165.215 128.32L164.512 129.16L163.691 129.941L162.813 130.645L161.856 131.25L160.82 131.777L159.707 132.246L158.516 132.617L157.305 132.93L156.016 133.145L154.688 133.281L153.262 133.34L150.41 133.242L148.926 133.066L147.363 132.793L144.297 132.051L141.113 130.977L139.551 130.332L136.406 128.77L134.805 127.871L133.262 126.895L130.41 124.824L129.102 123.75L126.641 121.445L124.551 119.082L123.594 117.852L122.734 116.602L121.309 114.141L120.684 112.871L120.195 111.602L119.785 110.371L119.473 109.18L119.258 107.93L119.141 106.738L119.121 105.566L119.219 104.453L119.414 103.32L119.707 102.246L120.137 101.211L120.664 100.215L121.289 99.2969L122.012 98.4375L122.813 97.6758L123.711 96.9727L124.668 96.3672L125.703 95.8203L126.816 95.3711L128.008 94.9805L129.219 94.6875L130.488 94.4727L131.836 94.3164L133.242 94.2578L136.094 94.375L137.598 94.5508L139.141 94.8047L142.207 95.5469L145.391 96.6406L146.953 97.2852L150.117 98.8281L151.699 99.7461Z" fill="#141718"/>
<path d="M151.406 100.234L152.91 101.191L155.703 103.203L156.992 104.258L159.395 106.504L161.445 108.789L162.383 110L163.223 111.211L164.649 113.594L165.254 114.844L165.742 116.055L166.152 117.246L166.445 118.418L166.68 119.629L166.797 120.781L166.817 121.914L166.738 123.008L166.543 124.082L166.25 125.117L165.859 126.113L165.352 127.09L164.746 127.988L164.043 128.789L163.262 129.531L162.402 130.215L161.465 130.801L160.469 131.309L159.395 131.738L158.223 132.109L157.051 132.383L155.801 132.598L154.492 132.734L153.125 132.773L150.352 132.656L148.887 132.48L145.899 131.875L142.852 130.977L141.27 130.41L138.203 129.062L136.66 128.242L135.117 127.363L132.168 125.41L130.801 124.395L128.281 122.227L127.129 121.113L125.059 118.809L124.121 117.598L122.539 115.195L121.27 112.754L120.762 111.543L120.371 110.352L120.059 109.18L119.844 107.969L119.727 106.816L119.707 105.703L119.785 104.609L119.961 103.516L120.254 102.48L120.645 101.484L121.152 100.527L121.777 99.6289L122.461 98.8086L123.242 98.0664L124.121 97.4023L125.039 96.8164L126.035 96.3086L127.129 95.8594L128.281 95.4883L129.473 95.2148L130.703 95L132.012 94.8828L133.399 94.8242L136.172 94.9414L137.617 95.1367L139.141 95.3906L142.129 96.1328L145.234 97.1875L146.777 97.832L149.844 99.3555L151.406 100.234Z" stroke="#FEFEFE" stroke-width="1.5"/>
<path d="M137.363 123.398L138.555 124.355L139.805 125.215L141.113 125.977L142.481 126.641L143.887 127.188L145.332 127.637L146.797 127.988L148.32 128.223" stroke="#FEFEFE" stroke-width="1.5" stroke-linecap="round"/>
<path d="M180.059 139.121L179.258 138.945L178.457 138.887L177.91 138.906L177.402 139.004L176.895 139.18L176.426 139.434L175.996 139.824L175.566 140.332L175.273 141.25L175.078 142.168L175 143.105L175.059 144.062L175.156 144.297L175.723 145.059L177.207 146.484L179.258 148.164L181.602 149.883L184.004 151.465L185.176 152.148L187.246 153.125L188.027 153.379L188.73 153.477L189.414 153.457L190.059 153.32L190.703 153.066L191.289 152.734L191.836 152.324L192.344 151.836L192.773 151.289L193.164 150.703L193.457 150.059L193.672 149.395L193.809 148.691L193.828 148.008L193.75 147.305L193.574 146.621L193.301 146.074L192.891 145.508L192.324 144.922L191.68 144.395L190.078 143.301L188.73 142.539L187.285 141.836L184.395 140.586L181.836 139.648L180.059 139.121Z" fill="#141718" stroke="#FEFEFE" stroke-width="1.5"/>
<path d="M180.43 135.625L179.922 135.566L179.395 135.605L178.867 135.762L177.852 136.289L177.363 136.68L176.699 137.324L176.133 138.047L175.684 138.809L175.371 139.531L175.215 140.449L175.273 140.801L175.371 141.035L175.957 141.855L176.602 142.559L178.418 144.277L180.703 146.172L183.164 148.008L185.566 149.57L187.363 150.508L188.477 150.918L189.824 151.074L191.035 150.938L192.148 150.547L193.047 149.941L193.418 149.551L193.73 149.102L193.965 148.633L194.141 148.105L194.219 147.559V146.973L194.141 146.348L193.945 145.684L193.691 145.098L193.281 144.473L192.051 143.086L190.449 141.641L189.121 140.605L187.676 139.57L184.805 137.734L182.246 136.348L181.152 135.879L180.43 135.625Z" fill="#141718" stroke="#FEFEFE" stroke-width="1.5"/>
<path d="M154.981 177.93L154.922 178.301L154.766 178.691L154.512 179.082L154.102 179.492L153.516 179.941L152.813 180.371L150.762 181.309L149.375 181.797L147.578 182.344L145.43 182.891L142.891 183.418L137.52 184.355L134.375 184.785L127.832 185.508L120.508 186.094L112.598 186.484L108.555 186.621L100 186.719L91.4453 186.621L87.4024 186.484L79.4922 186.094L72.168 185.508L65.625 184.785L62.4805 184.355L57.1094 183.418L54.5703 182.891L52.4219 182.344L50.625 181.797L48.1055 180.84L46.4844 179.941L45.8985 179.492L45.4883 179.082L45.2344 178.691L45.0782 178.301L45.0391 177.93L45.0782 177.559L45.2344 177.168L45.4883 176.777L45.8985 176.367L46.4844 175.918L48.1055 175.02L50.625 174.063L52.4219 173.516L54.5703 172.969L59.6485 171.953L62.4805 171.504L68.7696 170.703L72.168 170.352L79.4922 169.766L87.4024 169.375L91.4453 169.238L100 169.141L108.555 169.238L112.598 169.375L120.508 169.766L127.832 170.352L134.375 171.074L137.52 171.504L142.891 172.441L145.43 172.969L147.578 173.516L149.375 174.063L150.762 174.551L152.813 175.488L153.516 175.918L154.102 176.367L154.512 176.777L154.766 177.168L154.922 177.559L154.981 177.93Z" fill="#232627"/>
</svg>
