<svg width="190" height="174" viewBox="0 0 190 174" fill="none" xmlns="http://www.w3.org/2000/svg">
<path d="M12.3438 130.828L9.74609 130.379L7.67578 129.91L6.01563 129.441L4.76563 128.992L3.78906 128.543L3.04688 128.094L2.48047 127.645L2.10938 127.254L1.64063 126.453L1.44531 125.809L1.36719 125.105L1.40625 122.449V16.5703L1.46484 15.6914L1.64063 14.8711L1.91406 14.0898L2.28516 13.3477L2.75391 12.6641L3.30078 12.0586L3.90625 11.5117L4.58984 11.0625L5.35156 10.6719L6.13281 10.3984L6.97266 10.2422L132.09 0.867188L133.262 0.906249L134.414 1.02344L135.527 1.21875L136.641 1.51172L137.695 1.84375L138.73 2.27344L139.727 2.76172L140.684 3.32812L142.285 4.53906L143.477 5.76953L143.984 6.41406L144.727 7.70312L144.961 8.34766L145.117 8.97266L145.156 9.55859L136.113 115.184L135.938 116.023L135.664 116.805L135.293 117.547L134.824 118.211L134.277 118.836L133.652 119.383L132.988 119.832L132.227 120.203L131.445 120.477L130.605 120.652L12.3438 130.828Z" fill="#E8ECEF"/>
<path d="M132.109 1.45312L7.05078 10.8086L6.28906 10.9648L5.56641 11.2188L4.90234 11.5508L4.27734 11.9805L3.71094 12.4687L3.22266 13.0156L2.79297 13.6406L2.46094 14.3047L2.20703 15.0273L2.05078 15.7695L1.99219 16.5703L1.95312 125.125L2.03125 125.73L2.1875 126.258L2.57812 126.902L3.39844 127.625L4.12109 128.055L5.03906 128.484L6.25 128.914L7.85156 129.363L9.86328 129.793L12.3633 130.242L130.527 120.066L131.289 119.91L132.012 119.656L132.676 119.324L133.301 118.914L133.867 118.426L134.355 117.859L134.785 117.254L135.117 116.57L135.371 115.867L135.527 115.105L144.59 9.53906L144.531 9.03125L144.395 8.46484L144.141 7.85938L143.457 6.6875L142.988 6.08203L141.875 4.96875L141.211 4.42187L140.254 3.73828L139.219 3.15234L138.145 2.64453L136.992 2.23438L135.82 1.90234L134.629 1.64844L133.379 1.51172L132.109 1.45312ZM132.07 0.28125L134.434 0.437501L136.582 0.886718L137.949 1.31641L139.199 1.84375L140.352 2.44922L141.445 3.15234L142.422 3.875L143.242 4.65625L144.004 5.49609L144.629 6.31641L145.098 7.13672L145.391 7.80078L145.586 8.42578L145.742 9.59766L136.68 115.262L136.504 116.18L136.211 117.039L135.801 117.84L135.293 118.582L134.688 119.246L134.023 119.832L133.281 120.34L132.461 120.75L131.602 121.043L130.684 121.219L12.3242 131.414L10.1562 131.043L6.93359 130.34L5.50781 129.91L4.39453 129.48L3.53516 129.07L2.73437 128.582L2.10938 128.113L1.67969 127.645L1.30859 127.117L1.05469 126.59L0.898438 126.062L0.78125 125.223L0.820312 16.5703L0.878906 15.6133L1.07422 14.7148L1.36719 13.8555L1.77734 13.0352L2.28516 12.3125L2.87109 11.6289L3.55469 11.043L4.29687 10.5547L5.11719 10.1445L5.97656 9.83203L6.875 9.65625L132.07 0.28125Z" fill="#141718"/>
<path d="M13.6914 131.18L12.8125 131.121L11.9727 130.945L11.1914 130.672L10.4492 130.301L9.76562 129.852L9.14063 129.305L8.59375 128.68L8.14453 128.016L7.77344 127.273L7.5 126.492L7.32422 125.672L7.26562 124.793V22.4297L7.32422 21.5508L7.5 20.7305L7.77344 19.9492L8.14453 19.207L8.61328 18.5234L9.16016 17.8984L9.76562 17.3711L10.4492 16.9023L11.2109 16.5312L11.9922 16.2578L12.832 16.1016L140.293 6.72656L141.172 6.78516L142.012 6.96094L142.793 7.23437L143.535 7.60547L144.219 8.07422L144.844 8.60156L145.371 9.22656L145.84 9.89062L146.211 10.6328L146.484 11.4141L146.66 12.2539L146.719 13.1133V115.477L146.66 116.355L146.484 117.176L146.211 117.977L145.84 118.719L145.371 119.383L144.824 120.008L144.199 120.535L143.535 121.004L142.773 121.375L141.992 121.648L141.152 121.805L13.6914 131.18Z" fill="#FEFEFE"/>
<path d="M140.312 7.3125L12.9102 16.668L12.1484 16.8242L11.4258 17.0781L10.7422 17.4102L10.1367 17.8398L9.57031 18.3281L9.0625 18.875L8.65234 19.5L8.32031 20.1641L8.06641 20.8867L7.91016 21.6289L7.85156 22.4297V124.793L7.91016 125.574L8.06641 126.336L8.30078 127.039L8.65234 127.703L9.0625 128.328L9.55078 128.875L10.1172 129.363L10.7227 129.793L11.4062 130.125L12.1094 130.379L12.8711 130.535L13.6719 130.594L141.074 121.238L141.836 121.082L142.559 120.828L143.223 120.496L143.848 120.086L144.414 119.578L144.902 119.031L145.332 118.406L145.664 117.742L145.918 117.02L146.074 116.277L146.133 115.477V13.1133L146.074 12.332L145.918 11.5703L145.664 10.8672L145.332 10.2031L144.922 9.57812L144.434 9.03125L143.867 8.54297L143.262 8.11328L142.578 7.78125L141.855 7.52734L141.113 7.37109L140.312 7.3125ZM140.273 6.14062L141.23 6.19922L142.148 6.39453L143.008 6.6875L143.828 7.09766L144.57 7.58594L145.234 8.19141L145.84 8.85547L146.348 9.59766L146.758 10.3984L147.051 11.2578L147.227 12.1563L147.305 13.1133V115.477L147.227 116.434L147.051 117.352L146.758 118.191L146.348 119.012L145.84 119.754L145.234 120.418L144.57 121.004L143.828 121.512L143.008 121.922L142.148 122.215L141.23 122.391L13.7109 131.766L12.7344 131.707L11.8359 131.512L10.9766 131.219L10.1562 130.809L9.41406 130.32L8.73047 129.715L8.14453 129.051L7.63672 128.309L7.22656 127.508L6.93359 126.648L6.73828 125.75L6.67969 124.793V22.4297L6.73828 21.4727L6.93359 20.5742L7.22656 19.7148L7.63672 18.8945L8.14453 18.1523L8.73047 17.4883L9.41406 16.9023L10.1562 16.3945L10.9766 16.0039L11.8359 15.6914L12.7344 15.5156L140.273 6.14062Z" fill="#141718"/>
<path d="M132.637 32.8008L21.7969 41.9023L21.3672 42L20.6641 42.3906L20.2734 42.7422L19.9414 43.1914L19.6875 43.6797L19.5117 44.2266L19.3945 44.793V45.9648L19.6875 47.0781L19.9414 47.5664L20.2734 48.0156L20.6641 48.3672L20.9961 48.582L21.7969 48.8555L22.2852 48.8945L133.125 39.793L133.555 39.6953L134.258 39.3242L134.648 38.9531L134.98 38.5234L135.234 38.0156L135.41 37.4687L135.527 36.9023V35.7305L135.234 34.6367L134.98 34.1289L134.648 33.6992L134.258 33.3281L133.926 33.1133L133.125 32.8398L132.637 32.8008Z" fill="#E8ECEF"/>
<path d="M96.7969 92.8008L21.7969 98.2891L21.3672 98.3867L20.6641 98.7773L20.2734 99.1289L19.9414 99.5586L19.6875 100.066L19.5117 100.613L19.375 101.766L19.5117 102.918L19.6875 103.465L19.9414 103.953L20.2734 104.383L20.6641 104.754L21.3672 105.145L21.7969 105.242L22.2852 105.281L97.2852 99.793L97.7149 99.6758L98.418 99.3047L98.8086 98.9336L99.1406 98.5039L99.3945 97.9961L99.5703 97.4687L99.668 96.9023V95.7305L99.3945 94.6172L99.1406 94.1094L98.8086 93.6797L98.418 93.3086L98.0859 93.0937L97.2852 92.8398L96.7969 92.8008Z" fill="#E8ECEF"/>
<path d="M130.234 46.6289L22.9883 55.3398L22.4414 55.4766L21.9336 55.6914L20.9961 56.3164L20.2344 57.2148L19.6875 58.3086L19.4141 59.5391L19.375 60.2227V86.0039L19.4141 86.6875L19.6875 87.918L19.9414 88.4844L20.5859 89.4805L20.9961 89.8906L21.9336 90.5352L22.4414 90.75L22.9883 90.8672L23.5547 90.9258L130.801 81.0234L131.348 80.9062L131.855 80.6914L132.773 80.0664L133.535 79.168L134.082 78.0742L134.375 76.8438L134.414 51.5508L134.375 50.8672L134.082 49.6367L133.828 49.0508L133.184 48.0742L132.773 47.6445L131.855 47.0195L131.348 46.8047L130.801 46.668L130.234 46.6289Z" fill="#E8ECEF"/>
<path d="M55.957 27.0781L55.918 27.6055L55.7813 28.0937L55.5664 28.5625L55.2734 28.9727L54.9219 29.3047L54.5117 29.5977L54.0625 29.8125L53.5742 29.9492L53.0273 30.0078L52.5 29.9492L52.0117 29.8125L51.5625 29.5977L51.1523 29.3047L50.8008 28.9727L50.5078 28.5625L50.293 28.0937L50.1562 27.6055L50.0977 27.0781L50.1562 26.5312L50.293 26.043L50.5078 25.5938L50.8008 25.1836L51.1523 24.832L51.5625 24.5391L52.0117 24.3242L52.5 24.1875L53.0273 24.1484L53.5742 24.1875L54.0625 24.3242L54.5117 24.5391L54.9219 24.832L55.2734 25.1836L55.5664 25.5938L55.7813 26.043L55.918 26.5312L55.957 27.0781Z" stroke="#141718" stroke-width="1.17188"/>
<path d="M40.8203 28.2305L40.7812 28.7773L40.6445 29.2656L40.4297 29.7148L40.1367 30.125L39.7852 30.4766L39.375 30.7695L38.9258 30.9844L38.4375 31.1211L37.8906 31.1602L37.3633 31.1211L36.875 30.9844L36.4258 30.7695L36.0156 30.4766L35.6641 30.125L35.3711 29.7148L35.1562 29.2656L35.0195 28.7773L34.9609 28.2305L35.0195 27.7031L35.1562 27.2148L35.3711 26.7656L35.6641 26.3555L36.0156 26.0039L36.4258 25.7109L36.875 25.4961L37.3633 25.3594L37.8906 25.3008L38.4375 25.3594L38.9258 25.4961L39.375 25.7109L39.7852 26.0039L40.1367 26.3555L40.4297 26.7656L40.6445 27.2148L40.7812 27.7031L40.8203 28.2305Z" stroke="#141718" stroke-width="1.17188"/>
<path d="M25.8203 29.4023L25.7617 29.9297L25.625 30.418L25.4102 30.8867L25.1172 31.2969L24.7656 31.6484L24.3555 31.9414L23.9062 32.1562L23.418 32.2734L22.8906 32.332L22.3437 32.2734L21.8555 32.1562L21.4062 31.9414L20.9961 31.6484L20.6445 31.2969L20.3516 30.8867L20.1367 30.418L20 29.9297L19.9609 29.4023L20 28.875L20.1367 28.3867L20.3516 27.918L20.6445 27.5078L20.9961 27.1562L21.4062 26.8633L21.8555 26.6484L22.3437 26.5312L22.8906 26.4727L23.418 26.5312L23.9062 26.6484L24.3555 26.8633L24.7656 27.1562L25.1172 27.5078L25.4102 27.918L25.625 28.3867L25.7617 28.875L25.8203 29.4023Z" stroke="#141718" stroke-width="1.17188"/>
<path d="M125.176 123.602L122.871 121.98L120.703 120.34L118.711 118.68L116.836 117.039L115.02 115.281L113.359 113.523L111.855 111.785L110.488 110.066L109.434 108.582L108.496 107.137L107.656 105.691L106.914 104.266L106.27 102.859L105.273 100.125L104.59 97.4492L104.375 96.082L104.238 94.7539L104.199 93.4258L104.219 92.1172L104.336 90.7695L104.531 89.4414L104.824 88.1328L105.195 86.8242L105.625 85.5352L106.172 84.2656L106.777 82.9961L107.5 81.7461L108.262 80.5547L109.082 79.4609L109.941 78.4648L110.859 77.5273L111.855 76.668L112.891 75.9062L113.984 75.2031L115.137 74.5977L116.25 74.0898L117.422 73.6602L118.652 73.3086L119.961 73.0156L122.598 72.6641L125.488 72.5859L127.344 72.7031L129.297 72.9375L131.348 73.2891L133.359 73.7383L135.469 74.3242L137.656 75.0469L139.746 75.8086L141.875 76.6875L144.063 77.7031L146.211 78.7578L148.398 79.9492L150.625 81.2383L152.734 82.5664L154.746 83.9336L156.66 85.3594L158.477 86.8438L160.234 88.4258L161.895 90.0078L163.418 91.6484L164.844 93.3086L166.191 95.0469L167.422 96.7851L168.496 98.543L169.473 100.32L170.117 101.668L171.152 104.305L171.875 106.902L172.129 108.191L172.383 110.711V112L172.305 113.27L172.148 114.48L171.895 115.672L171.563 116.844L171.133 117.977L170.625 119.09L170.039 120.164L169.375 121.199L168.633 122.195L167.832 123.133L166.953 124.031L166.035 124.891L165.039 125.672L163.984 126.414L162.871 127.098L160.527 128.25L159.297 128.738L156.68 129.52L153.887 130.066L152.402 130.242L150.391 130.359L148.301 130.379L146.152 130.262L144.004 130.027L141.797 129.676L139.512 129.207L137.168 128.582L134.785 127.84L132.363 126.961L130 125.965L127.598 124.852L125.176 123.602Z" fill="#FEFEFE"/>
<mask id="path-12-inside-1_804_20054" fill="white">
<path d="M150.332 81.7461L145.957 79.2852L143.828 78.2305L141.641 77.2344L139.531 76.3555L137.461 75.5937L135.313 74.8906L133.223 74.3242L131.23 73.875L129.219 73.5234L127.305 73.2891L125.469 73.1719L122.656 73.25L120.078 73.582L118.809 73.875L117.617 74.2266L116.484 74.6367L115.391 75.125L114.277 75.7109L113.223 76.3945L112.207 77.1367L111.25 77.9766L110.371 78.8555L109.531 79.832L108.73 80.9062L107.988 82.0391L107.305 83.2695L106.699 84.5L106.191 85.75L105.742 86.9805L105.391 88.2695L105.117 89.5391L104.922 90.8477L104.805 92.1367L104.785 93.4258L104.824 94.7148L104.961 96.0234L105.449 98.6406L106.27 101.277L106.797 102.625L107.441 104.012L108.184 105.418L109.004 106.844L109.941 108.27L110.957 109.715L112.305 111.434L113.789 113.152L115.449 114.871L117.246 116.609L119.082 118.25L121.074 119.871L123.203 121.492L125.488 123.113L127.871 124.344L130.234 125.437L132.578 126.414L134.98 127.293L137.324 128.016L139.648 128.641L141.895 129.109L144.063 129.461L146.172 129.676L148.301 129.793L150.352 129.773L152.344 129.656L154.258 129.422L156.074 129.07L157.812 128.621L159.082 128.191L161.465 127.176L163.652 125.926L164.688 125.223L166.523 123.641L167.363 122.781L168.145 121.863L168.867 120.887L169.531 119.871L170.098 118.836L170.586 117.762L170.996 116.668L171.328 115.535L171.563 114.383L171.719 113.211L171.797 111.98V110.73L171.543 108.289L171.309 107.02L170.586 104.48L169.57 101.902L168.945 100.574L168.008 98.875L166.953 97.1562L165.762 95.4375L164.473 93.7969L163.066 92.1563L161.543 90.5156L159.883 88.9141L158.145 87.3516L156.309 85.8477L154.395 84.4219L152.402 83.0547L150.332 81.7461ZM150.938 80.7305L153.105 82.0977L155.156 83.5234L157.109 84.9883L158.945 86.4922L160.742 88.0937L162.402 89.7344L163.965 91.375L165.371 93.0352L166.738 94.793L167.949 96.5508L169.043 98.3086L169.98 100.047L170.684 101.512L171.289 102.957L171.797 104.383L172.207 105.789L172.539 107.176L172.793 108.621L172.93 110.027L172.988 111.395L172.93 112.762L172.793 114.09L172.559 115.418L172.207 116.727L171.758 117.996L171.211 119.246L170.547 120.477L169.766 121.648L168.945 122.742L168.047 123.777L167.07 124.734L166.035 125.652L164.941 126.473L163.789 127.234L162.559 127.937L161.27 128.562L159.922 129.129L158.535 129.617L157.109 130.027L155.625 130.359L154.082 130.633L152.461 130.828L150.449 130.945L148.379 130.965L146.211 130.848L143.945 130.613L141.719 130.262L139.453 129.793L137.09 129.168L134.648 128.406L132.285 127.566L129.883 126.57L127.402 125.418L124.863 124.109L122.578 122.488L120.449 120.887L118.477 119.266L116.641 117.645L114.941 116.023L113.262 114.285L111.719 112.566L110.352 110.867L109.102 109.148L108.008 107.469L106.973 105.672L106.094 103.895L105.352 102.137L104.727 100.398L104.258 98.6797L103.945 97.1758L103.75 95.7109L103.633 94.2461L103.613 92.8008L103.691 91.3555L103.867 89.9102L104.121 88.4844L104.492 87.0781L104.961 85.6719L105.527 84.2656L106.211 82.8594L106.992 81.4531L107.871 80.0859L108.809 78.875L109.785 77.7617L110.82 76.7852L111.895 75.9062L113.047 75.0859L114.258 74.3828L115.508 73.7773L116.797 73.25L118.164 72.8203L119.531 72.5078L120.957 72.2539L122.422 72.0781L123.926 72H125.508L127.422 72.1172L129.414 72.3516L131.484 72.7227L133.613 73.2109L135.684 73.7773L137.793 74.4805L139.961 75.2812L142.188 76.1992L144.336 77.1758L146.523 78.2695L148.711 79.4414L150.938 80.7305Z"/>
</mask>
<path d="M150.332 81.7461L145.957 79.2852L143.828 78.2305L141.641 77.2344L139.531 76.3555L137.461 75.5937L135.313 74.8906L133.223 74.3242L131.23 73.875L129.219 73.5234L127.305 73.2891L125.469 73.1719L122.656 73.25L120.078 73.582L118.809 73.875L117.617 74.2266L116.484 74.6367L115.391 75.125L114.277 75.7109L113.223 76.3945L112.207 77.1367L111.25 77.9766L110.371 78.8555L109.531 79.832L108.73 80.9062L107.988 82.0391L107.305 83.2695L106.699 84.5L106.191 85.75L105.742 86.9805L105.391 88.2695L105.117 89.5391L104.922 90.8477L104.805 92.1367L104.785 93.4258L104.824 94.7148L104.961 96.0234L105.449 98.6406L106.27 101.277L106.797 102.625L107.441 104.012L108.184 105.418L109.004 106.844L109.941 108.27L110.957 109.715L112.305 111.434L113.789 113.152L115.449 114.871L117.246 116.609L119.082 118.25L121.074 119.871L123.203 121.492L125.488 123.113L127.871 124.344L130.234 125.437L132.578 126.414L134.98 127.293L137.324 128.016L139.648 128.641L141.895 129.109L144.063 129.461L146.172 129.676L148.301 129.793L150.352 129.773L152.344 129.656L154.258 129.422L156.074 129.07L157.812 128.621L159.082 128.191L161.465 127.176L163.652 125.926L164.688 125.223L166.523 123.641L167.363 122.781L168.145 121.863L168.867 120.887L169.531 119.871L170.098 118.836L170.586 117.762L170.996 116.668L171.328 115.535L171.563 114.383L171.719 113.211L171.797 111.98V110.73L171.543 108.289L171.309 107.02L170.586 104.48L169.57 101.902L168.945 100.574L168.008 98.875L166.953 97.1562L165.762 95.4375L164.473 93.7969L163.066 92.1563L161.543 90.5156L159.883 88.9141L158.145 87.3516L156.309 85.8477L154.395 84.4219L152.402 83.0547L150.332 81.7461ZM150.938 80.7305L153.105 82.0977L155.156 83.5234L157.109 84.9883L158.945 86.4922L160.742 88.0937L162.402 89.7344L163.965 91.375L165.371 93.0352L166.738 94.793L167.949 96.5508L169.043 98.3086L169.98 100.047L170.684 101.512L171.289 102.957L171.797 104.383L172.207 105.789L172.539 107.176L172.793 108.621L172.93 110.027L172.988 111.395L172.93 112.762L172.793 114.09L172.559 115.418L172.207 116.727L171.758 117.996L171.211 119.246L170.547 120.477L169.766 121.648L168.945 122.742L168.047 123.777L167.07 124.734L166.035 125.652L164.941 126.473L163.789 127.234L162.559 127.937L161.27 128.562L159.922 129.129L158.535 129.617L157.109 130.027L155.625 130.359L154.082 130.633L152.461 130.828L150.449 130.945L148.379 130.965L146.211 130.848L143.945 130.613L141.719 130.262L139.453 129.793L137.09 129.168L134.648 128.406L132.285 127.566L129.883 126.57L127.402 125.418L124.863 124.109L122.578 122.488L120.449 120.887L118.477 119.266L116.641 117.645L114.941 116.023L113.262 114.285L111.719 112.566L110.352 110.867L109.102 109.148L108.008 107.469L106.973 105.672L106.094 103.895L105.352 102.137L104.727 100.398L104.258 98.6797L103.945 97.1758L103.75 95.7109L103.633 94.2461L103.613 92.8008L103.691 91.3555L103.867 89.9102L104.121 88.4844L104.492 87.0781L104.961 85.6719L105.527 84.2656L106.211 82.8594L106.992 81.4531L107.871 80.0859L108.809 78.875L109.785 77.7617L110.82 76.7852L111.895 75.9062L113.047 75.0859L114.258 74.3828L115.508 73.7773L116.797 73.25L118.164 72.8203L119.531 72.5078L120.957 72.2539L122.422 72.0781L123.926 72H125.508L127.422 72.1172L129.414 72.3516L131.484 72.7227L133.613 73.2109L135.684 73.7773L137.793 74.4805L139.961 75.2812L142.188 76.1992L144.336 77.1758L146.523 78.2695L148.711 79.4414L150.938 80.7305Z" stroke="#141718" stroke-width="3" mask="url(#path-12-inside-1_804_20054)"/>
<path d="M152.148 77.7031L154.297 79.0703L156.348 80.4961L158.281 81.9805L160.098 83.5039L161.855 85.125L163.496 86.7852L165 88.4648L166.387 90.1641L167.695 91.9609L168.867 93.7578L169.902 95.5352L170.801 97.3125L171.465 98.7969L172.031 100.262L172.5 101.707L172.891 103.152L173.184 104.559L173.398 106.023L173.535 107.43L173.555 108.816L173.496 110.184L173.34 111.512L173.105 112.84L172.754 114.129L172.305 115.379L171.758 116.609L171.113 117.801L170.352 118.934L169.531 119.988L168.633 120.984L167.656 121.883L166.602 122.723L165.488 123.484L164.316 124.188L163.086 124.812L161.777 125.359L160.391 125.848L159.004 126.258L157.559 126.59L156.055 126.844L154.492 127.039L152.871 127.156L150.879 127.195L148.809 127.117L146.68 126.922L144.492 126.609L142.344 126.18L140.137 125.633L137.91 124.969L135.664 124.188L133.457 123.309L131.23 122.293L129.023 121.16L126.797 119.891L124.629 118.523L122.578 117.098L120.645 115.613L118.828 114.07L117.07 112.449L115.43 110.789L113.926 109.109L112.559 107.41L111.23 105.613L110.078 103.836L109.043 102.039L108.125 100.262L107.461 98.7773L106.914 97.3125L106.426 95.8672L106.055 94.4414L105.742 93.0156L105.527 91.5703L105.41 90.1445L105.371 88.7578L105.43 87.4102L105.586 86.0625L105.84 84.7344L106.172 83.4453L106.621 82.1953L107.168 80.9648L107.832 79.7734L108.574 78.6406L109.395 77.5859L110.293 76.6094L111.27 75.6914L112.324 74.8516L113.438 74.0898L114.609 73.4062L115.84 72.7813L117.148 72.2148L118.535 71.7266L119.922 71.3359L121.367 71.0039L122.871 70.7305L124.434 70.5547L126.055 70.4375L128.047 70.3984L130.117 70.4766L132.246 70.6719L134.434 70.9844L136.602 71.3945L138.789 71.9414L141.016 72.6055L143.281 73.3867L145.488 74.2852L147.695 75.3008L149.922 76.4336L152.148 77.7031Z" fill="#FEFEFE"/>
<path d="M151.836 78.1914L153.965 79.5391L155.977 80.9453L157.891 82.4102L159.668 83.9141L161.406 85.5156L163.008 87.1367L164.492 88.7773L165.859 90.457L167.168 92.2148L168.32 93.9727L169.336 95.7109L170.234 97.4687L171.035 99.2852L171.699 101.063L172.207 102.82L172.598 104.559L172.813 105.984L172.949 107.371L172.988 108.719L172.93 110.047L172.773 111.355L172.539 112.664L172.207 113.914L171.777 115.145L171.23 116.336L170.605 117.508L169.883 118.602L169.063 119.637L168.184 120.594L167.246 121.492L166.211 122.312L165.117 123.055L163.965 123.719L162.754 124.324L161.465 124.871L160.117 125.34L158.398 125.809L156.602 126.18L154.707 126.434L152.734 126.59L150.762 126.609L148.75 126.531L146.66 126.336L144.492 126.023L142.383 125.594L140.234 125.066L138.047 124.402L135.82 123.621L133.633 122.742L131.465 121.746L129.277 120.633L127.09 119.383L124.961 118.035L122.949 116.629L121.055 115.184L119.258 113.68L117.52 112.078L115.918 110.457L114.434 108.797L113.066 107.137L111.777 105.379L110.625 103.621L109.59 101.863L108.691 100.125L107.891 98.3086L107.246 96.5117L106.719 94.7539L106.328 93.0352L106.113 91.6094L105.977 90.2227L105.957 88.8555L105.996 87.5273L106.152 86.2188L106.387 84.9297L106.719 83.6602L107.168 82.4297L107.695 81.2383L108.32 80.0859L109.063 78.9727L109.863 77.9375L110.742 76.9805L111.699 76.1016L112.734 75.2813L113.809 74.5391L114.961 73.8555L116.172 73.25L117.461 72.7227L118.828 72.2344L120.527 71.7656L122.324 71.3945L124.219 71.1406L126.191 71.0039L128.164 70.9648L130.176 71.0625L132.266 71.2578L134.434 71.5703L136.543 71.9805L138.711 72.5273L140.898 73.1719L143.125 73.9531L145.293 74.832L147.461 75.8281L149.648 76.9414L151.836 78.1914Z" stroke="#141718" stroke-width="1.5"/>
<path d="M132.601 78.1572V78.1582L134.162 78.2734L135.745 78.5L137.353 78.79L138.94 79.168L140.581 79.6504L142.232 80.2207L143.859 80.8789L145.471 81.5996L147.091 82.4385H147.092L148.739 83.3682L150.322 84.3604L151.827 85.4219L153.229 86.5166L154.563 87.6221L155.832 88.8154H155.833L157.034 90.0361L158.112 91.2656L159.1 92.5176V92.5186L160.062 93.8457L160.91 95.1768L161.663 96.457L162.305 97.7588L162.876 99.1299L163.345 100.441L163.706 101.772L163.985 103.056L164.154 104.374L164.229 105.643L164.191 106.87L164.044 108.068L163.802 109.279L163.454 110.415L162.992 111.523L162.424 112.587L161.741 113.602L160.984 114.524L160.138 115.372L159.216 116.146L158.217 116.83L157.131 117.448L155.98 117.986L154.749 118.434L153.465 118.812L152.155 119.092L150.747 119.302L149.293 119.434L147.831 119.472L146.305 119.434L144.783 119.302L143.154 119.089L141.585 118.786L139.984 118.405L138.344 117.923L136.693 117.354L135.072 116.717L133.451 115.973L131.828 115.151L130.178 114.22L128.598 113.211L127.109 112.181L125.704 111.083L124.374 109.962L123.077 108.762L121.887 107.533L120.82 106.316L119.814 105.06L118.863 103.747L118.025 102.433L117.274 101.104L116.616 99.8057L116.051 98.4668L115.576 97.1182L115.22 95.8223L114.939 94.5371L114.771 93.2188L114.696 91.9502L114.733 90.7031L114.88 89.5107L115.123 88.3105L115.471 87.1777L115.933 86.0693L116.501 85.0059L117.185 83.9893L117.94 83.0498L118.782 82.2266L119.726 81.4492L120.731 80.7598L121.795 80.1445L122.945 79.6064L124.198 79.1387L125.459 78.7812L126.778 78.4795L128.179 78.2715L129.65 78.1396L131.1 78.1016L132.601 78.1572Z" stroke="#141718" stroke-width="1.5"/>
<path d="M148.828 83.2305L150.391 84.2266L151.895 85.2617L153.301 86.3555L154.629 87.4688L155.918 88.6602L157.09 89.8711L158.203 91.1016L159.199 92.3516L160.156 93.6602L160.996 94.9883L161.758 96.2969L162.422 97.6055L163.008 98.9531L163.477 100.301L163.848 101.609L164.141 102.918L164.316 104.246L164.395 105.555L164.355 106.805L164.238 108.035L163.984 109.266L163.633 110.437L163.164 111.57L162.559 112.684L161.875 113.719L161.094 114.656L160.215 115.535L159.258 116.316L158.223 117.02L157.129 117.625L155.957 118.172L154.687 118.641L153.418 119.012L152.07 119.285L150.664 119.5L149.18 119.617L147.715 119.656L146.211 119.598L144.648 119.461L143.047 119.246L141.465 118.934L139.863 118.543L138.242 118.074L136.582 117.488L134.98 116.844L133.359 116.121L131.738 115.281L130.117 114.363L128.535 113.367L127.031 112.312L125.625 111.238L124.297 110.125L123.008 108.914L121.836 107.703L120.742 106.473L119.727 105.223L118.77 103.914L117.93 102.605L117.168 101.297L116.504 99.9883L115.918 98.6211L115.449 97.293L115.078 95.9648L114.785 94.6563L114.609 93.3281L114.531 92.0391L114.57 90.7695L114.707 89.5391L114.941 88.3281L115.293 87.1562L115.781 86.0234L116.367 84.9102L117.051 83.875L117.852 82.918L118.711 82.0586L119.668 81.2773L120.703 80.5742L121.797 79.9492L122.969 79.4023L124.238 78.9531L125.508 78.582L126.855 78.2891L128.262 78.0937L129.746 77.9766L131.211 77.9375L132.715 77.9766L134.277 78.1133L135.879 78.3477L137.461 78.6406L139.062 79.0313L140.684 79.5195L142.344 80.0859L143.965 80.7305L145.566 81.4727L147.188 82.293L148.828 83.2305Z" stroke="#141718" stroke-width="1.5"/>
<path d="M146.699 86.7461L148.262 87.7227L151.113 89.7734L152.422 90.8477L154.863 93.1523L156.953 95.5156L157.91 96.7656L158.77 97.9961L160.215 100.457L160.82 101.746L161.328 102.996L161.719 104.227L162.031 105.438L162.266 106.668L162.363 107.859L162.383 109.031L162.305 110.164L162.109 111.277L161.797 112.352L161.387 113.387L160.859 114.383L160.215 115.32L159.512 116.16L158.691 116.941L157.812 117.645L156.855 118.25L155.82 118.777L154.707 119.246L153.516 119.617L152.305 119.93L151.016 120.145L149.687 120.281L148.262 120.34L145.41 120.242L143.926 120.066L142.363 119.793L139.297 119.051L136.113 117.977L134.551 117.332L131.406 115.77L129.805 114.871L128.262 113.895L125.41 111.824L124.102 110.75L121.641 108.445L119.551 106.082L118.594 104.852L117.734 103.602L116.309 101.141L115.684 99.8711L115.195 98.6016L114.785 97.3711L114.473 96.1797L114.258 94.9297L114.141 93.7383L114.121 92.5664L114.219 91.4531L114.414 90.3203L114.707 89.2461L115.137 88.2109L115.664 87.2148L116.289 86.2969L117.012 85.4375L117.812 84.6758L118.711 83.9727L119.668 83.3672L120.703 82.8203L121.816 82.3711L123.008 81.9805L124.219 81.6875L125.488 81.4727L126.836 81.3164L128.242 81.2578L131.094 81.375L132.598 81.5508L134.141 81.8047L137.207 82.5469L140.391 83.6406L141.953 84.2852L145.117 85.8281L146.699 86.7461Z" fill="#FEFEFE"/>
<path d="M146.406 87.2344L147.91 88.1914L150.703 90.2031L151.992 91.2578L154.395 93.5039L156.445 95.7891L157.383 97L158.223 98.2109L159.648 100.594L160.254 101.844L160.742 103.055L161.152 104.246L161.445 105.418L161.68 106.629L161.797 107.781L161.816 108.914L161.738 110.008L161.543 111.082L161.25 112.117L160.859 113.113L160.352 114.09L159.746 114.988L159.043 115.789L158.262 116.531L157.402 117.215L156.465 117.801L155.469 118.309L154.395 118.738L153.223 119.109L152.051 119.383L150.801 119.598L149.492 119.734L148.125 119.773L145.352 119.656L143.887 119.48L140.898 118.875L137.852 117.977L136.27 117.41L133.203 116.062L131.66 115.242L130.117 114.363L127.168 112.41L125.801 111.395L123.281 109.227L122.129 108.113L120.059 105.809L119.121 104.598L117.539 102.195L116.27 99.7539L115.762 98.543L115.371 97.3516L115.059 96.1797L114.844 94.9687L114.727 93.8164L114.707 92.7031L114.785 91.6094L114.961 90.5156L115.254 89.4805L115.645 88.4844L116.152 87.5273L116.777 86.6289L117.461 85.8086L118.242 85.0664L119.121 84.4023L120.039 83.8164L121.035 83.3086L122.129 82.8594L123.281 82.4883L124.473 82.2148L125.703 82L127.012 81.8828L128.398 81.8242L131.172 81.9414L132.617 82.1367L134.141 82.3906L137.129 83.1328L140.234 84.1875L141.777 84.832L144.844 86.3555L146.406 87.2344Z" stroke="#141718" stroke-width="1.5"/>
<path d="M132.363 110.398L133.555 111.355L134.805 112.215L136.113 112.977L137.48 113.641L138.887 114.188L140.332 114.637L141.797 114.988L143.32 115.223" stroke="#141718" stroke-width="1.5" stroke-linecap="round"/>
<path d="M175.059 126.121L174.258 125.945L173.457 125.887L172.91 125.906L172.402 126.004L171.895 126.18L171.426 126.434L170.996 126.824L170.566 127.332L170.273 128.25L170.078 129.168L170 130.105L170.059 131.062L170.156 131.297L170.723 132.059L172.207 133.484L174.258 135.164L176.602 136.883L179.004 138.465L180.176 139.148L182.246 140.125L183.027 140.379L183.73 140.477L184.414 140.457L185.059 140.32L185.703 140.066L186.289 139.734L186.836 139.324L187.344 138.836L187.773 138.289L188.164 137.703L188.457 137.059L188.672 136.395L188.809 135.691L188.828 135.008L188.75 134.305L188.574 133.621L188.301 133.074L187.891 132.508L187.324 131.922L186.68 131.395L185.078 130.301L183.73 129.539L182.285 128.836L179.395 127.586L176.836 126.648L175.059 126.121Z" fill="#FEFEFE" stroke="#141718" stroke-width="1.5"/>
<path d="M175.43 122.625L174.922 122.566L174.395 122.605L173.867 122.762L172.852 123.289L172.363 123.68L171.699 124.324L171.133 125.047L170.684 125.809L170.371 126.531L170.215 127.449L170.273 127.801L170.371 128.035L170.957 128.855L171.602 129.559L173.418 131.277L175.703 133.172L178.164 135.008L180.566 136.57L182.363 137.508L183.477 137.918L184.824 138.074L186.035 137.938L187.148 137.547L188.047 136.941L188.418 136.551L188.73 136.102L188.965 135.633L189.141 135.105L189.219 134.559V133.973L189.141 133.348L188.945 132.684L188.691 132.098L188.281 131.473L187.051 130.086L185.449 128.641L184.121 127.605L182.676 126.57L179.805 124.734L177.246 123.348L176.152 122.879L175.43 122.625Z" fill="#FEFEFE" stroke="#141718" stroke-width="1.5"/>
<path d="M149.98 164.93L149.922 165.301L149.766 165.691L149.512 166.082L149.102 166.492L148.516 166.941L147.813 167.371L145.762 168.309L144.375 168.797L142.578 169.344L140.43 169.891L137.891 170.418L132.52 171.355L129.375 171.785L122.832 172.508L115.508 173.094L107.598 173.484L103.555 173.621L95 173.719L86.4453 173.621L82.4023 173.484L74.4922 173.094L67.168 172.508L60.625 171.785L57.4805 171.355L52.1094 170.418L49.5703 169.891L47.4219 169.344L45.625 168.797L43.1055 167.84L41.4844 166.941L40.8984 166.492L40.4883 166.082L40.2344 165.691L40.0781 165.301L40.0391 164.93L40.0781 164.559L40.2344 164.168L40.4883 163.777L40.8984 163.367L41.4844 162.918L43.1055 162.02L45.625 161.063L47.4219 160.516L49.5703 159.969L54.6484 158.953L57.4805 158.504L63.7695 157.703L67.168 157.352L74.4922 156.766L82.4023 156.375L86.4453 156.238L95 156.141L103.555 156.238L107.598 156.375L115.508 156.766L122.832 157.352L129.375 158.074L132.52 158.504L137.891 159.441L140.43 159.969L142.578 160.516L144.375 161.063L145.762 161.551L147.813 162.488L148.516 162.918L149.102 163.367L149.512 163.777L149.766 164.168L149.922 164.559L149.98 164.93Z" fill="#E8ECEF"/>
</svg>

