<svg width="200" height="200" viewBox="0 0 200 200" fill="none" xmlns="http://www.w3.org/2000/svg">
<g clip-path="url(#clip0_196_5209)">
<path d="M29.7479 152.867L30.9881 157.895C31.0564 158.171 31.1989 158.424 31.4002 158.625C31.6016 158.826 31.8542 158.969 32.1307 159.037L37.158 160.275C37.2434 160.296 37.3194 160.344 37.3738 160.413C37.4281 160.482 37.4577 160.568 37.4577 160.655C37.4577 160.743 37.4281 160.828 37.3738 160.897C37.3194 160.966 37.2434 161.015 37.158 161.035L32.1307 162.273C31.8542 162.342 31.6016 162.484 31.4002 162.686C31.1989 162.887 31.0564 163.14 30.9881 163.416L29.7479 168.445C29.7267 168.53 29.6779 168.605 29.6093 168.658C29.5406 168.712 29.4561 168.741 29.369 168.741C29.2819 168.741 29.1973 168.712 29.1287 168.658C29.06 168.605 29.0112 168.53 28.9901 168.445L27.7498 163.416C27.6816 163.14 27.5391 162.887 27.3377 162.686C27.1363 162.484 26.8838 162.342 26.6073 162.273L21.5799 161.035C21.4946 161.015 21.4186 160.966 21.3642 160.897C21.3098 160.828 21.2803 160.743 21.2803 160.655C21.2803 160.568 21.3098 160.482 21.3642 160.413C21.4186 160.344 21.4946 160.296 21.5799 160.275L26.6073 159.037C26.8838 158.969 27.1363 158.826 27.3377 158.625C27.5391 158.424 27.6816 158.171 27.7498 157.895L28.9901 152.867C29.0112 152.783 29.06 152.708 29.1287 152.654C29.1973 152.601 29.2819 152.572 29.369 152.572C29.4561 152.572 29.5406 152.601 29.6093 152.654C29.6779 152.708 29.7267 152.783 29.7479 152.867Z" fill="#F8E243"/>
<path d="M171.215 166.199L170.824 170.356C170.803 170.584 170.846 170.814 170.946 171.021C171.047 171.227 171.202 171.402 171.394 171.527L174.896 173.797C174.954 173.835 174.998 173.892 175.021 173.957C175.043 174.023 175.043 174.095 175.021 174.16C174.999 174.226 174.955 174.283 174.897 174.321C174.839 174.36 174.77 174.378 174.701 174.373L170.545 173.994C170.316 173.973 170.086 174.015 169.88 174.115C169.673 174.216 169.498 174.37 169.373 174.563L167.105 178.065C167.069 178.128 167.013 178.178 166.944 178.204C166.876 178.23 166.801 178.232 166.732 178.209C166.662 178.186 166.603 178.139 166.564 178.077C166.526 178.015 166.51 177.942 166.519 177.869L166.91 173.713C166.931 173.484 166.89 173.254 166.789 173.048C166.689 172.841 166.534 172.666 166.342 172.541L162.84 170.272C162.782 170.233 162.738 170.177 162.715 170.111C162.693 170.045 162.693 169.974 162.715 169.908C162.737 169.842 162.781 169.786 162.839 169.747C162.897 169.709 162.966 169.69 163.035 169.695L167.189 170.076C167.418 170.097 167.648 170.054 167.854 169.954C168.061 169.853 168.236 169.698 168.361 169.506L170.631 166.004C170.667 165.941 170.724 165.893 170.791 165.868C170.859 165.842 170.933 165.841 171.002 165.864C171.071 165.887 171.129 165.933 171.168 165.994C171.207 166.055 171.223 166.127 171.215 166.199Z" fill="#F8E243"/>
<path d="M118.43 28.2598L121.58 31.8652C121.753 32.0635 121.978 32.2105 122.229 32.2904C122.48 32.3702 122.748 32.3799 123.004 32.3183L127.66 31.2051C127.738 31.187 127.821 31.1955 127.894 31.2294C127.966 31.2632 128.026 31.3204 128.063 31.3919C128.1 31.4634 128.111 31.5451 128.097 31.6242C128.082 31.7032 128.041 31.7749 127.98 31.8281L124.377 34.9785C124.178 35.1517 124.031 35.3759 123.951 35.6269C123.871 35.8779 123.861 36.1461 123.922 36.4023L125.037 41.0566C125.056 41.1351 125.048 41.2177 125.014 41.291C124.981 41.3644 124.923 41.4245 124.852 41.4615C124.78 41.4986 124.698 41.5106 124.619 41.4956C124.539 41.4807 124.467 41.4396 124.414 41.3789L121.264 37.7754C121.09 37.577 120.866 37.4297 120.615 37.3495C120.364 37.2693 120.096 37.2592 119.84 37.3203L115.184 38.4336C115.105 38.4523 115.023 38.4443 114.949 38.4107C114.876 38.377 114.816 38.3198 114.779 38.2481C114.742 38.1765 114.73 38.0944 114.745 38.0151C114.76 37.9358 114.801 37.8638 114.861 37.8105L118.467 34.6601C118.665 34.4867 118.812 34.2624 118.892 34.0115C118.973 33.7606 118.983 33.4926 118.922 33.2363L117.807 28.582C117.788 28.5035 117.796 28.421 117.83 28.3476C117.863 28.2742 117.92 28.2142 117.992 28.1771C118.064 28.14 118.146 28.128 118.225 28.143C118.304 28.158 118.376 28.1991 118.43 28.2598Z" fill="#F8E243"/>
<path d="M32.8125 121.875C35.4013 121.875 37.5 119.776 37.5 117.188C37.5 114.599 35.4013 112.5 32.8125 112.5C30.2237 112.5 28.125 114.599 28.125 117.188C28.125 119.776 30.2237 121.875 32.8125 121.875Z" fill="#F8E243"/>
<path d="M48.0918 39.7695C52.1504 39.7695 55.4512 36.4082 55.4512 32.2773C55.454 30.7931 55.0185 29.3411 54.1992 28.1035C52.9927 27.2732 51.5623 26.8291 50.0977 26.8301C49.9316 26.8301 49.7559 26.8301 49.5469 26.8535C49.4107 26.8633 49.2748 26.8311 49.1574 26.7612C49.0401 26.6914 48.947 26.5873 48.8906 26.4629C48.6098 25.8576 48.2435 25.2959 47.8027 24.7949L47.5391 24.8105C47.4028 24.8209 47.2666 24.7889 47.1492 24.719C47.0317 24.6491 46.9387 24.5447 46.8828 24.4199C46.7336 24.0958 46.5586 23.7843 46.3594 23.4883C44.5293 22.168 42.0527 21.3828 39.3926 21.3828C33.8594 21.3828 29.3574 24.7441 29.3574 28.875C29.3582 28.9635 29.3415 29.0513 29.3084 29.1333C29.2752 29.2154 29.2262 29.2901 29.1642 29.3532C29.1022 29.4163 29.0283 29.4666 28.9469 29.5012C28.8654 29.5357 28.7779 29.5539 28.6895 29.5547C24.6309 29.5547 21.3301 32.3047 21.3301 35.6855C21.3341 36.6623 21.6086 37.6189 22.123 38.4492C23.4815 39.3243 25.0658 39.7838 26.6816 39.7715L48.0918 39.7695Z" fill="#00D47E"/>
<path d="M48.0918 41.2324H45.416C45.2088 41.2324 45.0101 41.1501 44.8636 41.0036C44.7171 40.8571 44.6348 40.6584 44.6348 40.4512C44.6348 40.244 44.7171 40.0453 44.8636 39.8987C45.0101 39.7522 45.2088 39.6699 45.416 39.6699H48.0918C52.0879 39.6699 55.3379 36.3496 55.3379 32.2773C55.3379 28.2051 52.0879 24.8867 48.0918 24.8867C47.9297 24.8867 47.7578 24.8867 47.5508 24.9082C47.3916 24.9204 47.2325 24.8834 47.0949 24.8024C46.9573 24.7214 46.8478 24.6002 46.7812 24.4551C45.4141 21.4531 41.6309 19.4375 37.3887 19.4375C31.9199 19.4375 27.4648 22.7578 27.4648 26.8301C27.4648 27.0373 27.3825 27.236 27.236 27.3825C27.0895 27.529 26.8908 27.6113 26.6836 27.6113C22.6875 27.6113 19.4375 30.3145 19.4375 33.6406C19.4375 36.9668 22.6875 39.6699 26.6836 39.6699H40.0645C40.2717 39.6699 40.4704 39.7522 40.6169 39.8987C40.7634 40.0453 40.8457 40.244 40.8457 40.4512C40.8457 40.6584 40.7634 40.8571 40.6169 41.0036C40.4704 41.1501 40.2717 41.2324 40.0645 41.2324H26.6836C21.8262 41.2324 17.875 37.8262 17.875 33.6406C17.875 29.668 21.4316 26.4004 25.9434 26.0742C26.4355 21.4883 31.3809 17.8711 37.3887 17.8711C42.0098 17.8711 46.1777 20.041 47.9609 23.3203H48.0918C52.9492 23.3203 56.9004 27.3359 56.9004 32.2734C56.9004 37.2109 52.9492 41.2324 48.0918 41.2324Z" fill="#141416"/>
<path d="M173.189 61.7442C177.25 61.7442 180.555 57.8887 180.555 53.1504C180.562 51.4715 180.128 49.8202 179.297 48.3613C178.134 47.4255 176.688 46.9106 175.195 46.9004C175.029 46.9004 174.855 46.9004 174.645 46.9277C174.501 46.934 174.36 46.8937 174.241 46.8126C174.123 46.7316 174.034 46.6144 173.988 46.4785C173.713 45.7945 173.346 45.1507 172.898 44.5645L172.635 44.584C172.491 44.5903 172.35 44.5499 172.232 44.4689C172.113 44.3879 172.024 44.2706 171.979 44.1348C171.83 43.7665 171.655 43.4094 171.455 43.0664C169.479 41.4798 167.015 40.6262 164.48 40.6504C158.943 40.6504 154.437 44.5059 154.437 49.2442C154.451 49.4363 154.388 49.626 154.263 49.7723C154.137 49.9185 153.96 50.0094 153.768 50.0254C149.705 50.0254 146.4 53.1797 146.4 57.0567C146.401 58.1625 146.674 59.2512 147.195 60.2266C148.51 61.2163 150.112 61.7493 151.758 61.7442H173.189Z" fill="#00D47E"/>
<path d="M173.189 63.3066H170.508C170.301 63.3066 170.102 63.2243 169.955 63.0778C169.809 62.9313 169.727 62.7326 169.727 62.5254C169.727 62.3182 169.809 62.1195 169.955 61.973C170.102 61.8265 170.301 61.7441 170.508 61.7441H173.187C177.187 61.7441 180.441 57.8887 180.441 53.1504C180.441 48.4121 177.187 44.5566 173.187 44.5566C173.027 44.5566 172.857 44.5566 172.652 44.582C172.487 44.5939 172.323 44.5531 172.182 44.4653C172.042 44.3775 171.933 44.2474 171.871 44.0937C170.486 40.6328 166.713 38.3066 162.482 38.3066C157.014 38.3066 152.549 42.1621 152.549 46.9004C152.549 47.1076 152.467 47.3063 152.32 47.4528C152.173 47.5993 151.975 47.6816 151.768 47.6816C147.768 47.6816 144.514 50.8359 144.514 54.7129C144.514 58.5898 147.768 61.7441 151.768 61.7441H165.16C165.367 61.7441 165.566 61.8265 165.713 61.973C165.859 62.1195 165.941 62.3182 165.941 62.5254C165.941 62.7326 165.859 62.9313 165.713 63.0778C165.566 63.2243 165.367 63.3066 165.16 63.3066H151.758C146.896 63.3066 142.941 59.4512 142.941 54.7129C142.941 50.2207 146.496 46.5215 151.008 46.1504C151.443 40.8984 156.42 36.7441 162.473 36.7441C167.125 36.7441 171.313 39.2344 173.086 42.9941H173.187C178.049 42.9941 182.004 47.5508 182.004 53.1504C182.004 58.75 178.051 63.3066 173.189 63.3066Z" fill="#141416"/>
<path d="M124.219 131.014C125.707 134.68 127.344 136.359 127.344 136.359C136.895 147.664 162.529 150.49 162.529 150.49C166.551 150.49 165.043 142.482 162.027 138.244L93.1504 156.141C101.193 167.445 95.1621 175.451 87.1191 174.98C68.5215 173.566 56.9609 154.258 56.9609 154.258C46.6797 138.477 51.9336 115.166 51.9336 115.166C57.2266 91.4062 54.9492 83.6113 54.9492 83.6113C49.4141 59.1211 29.9004 61.0039 29.9004 61.0039L101.695 46.875C114.369 47.8652 121.125 57.1719 124.037 62.6582" fill="#FCFCFD"/>
<path d="M87.7774 175.781C87.545 175.781 87.3106 175.781 87.0743 175.76C77.2227 175.012 69.3751 169.314 64.5255 164.652C59.379 159.715 56.504 155.014 56.2989 154.672C50.8888 146.361 49.7852 136.012 49.8106 128.791C49.8399 120.996 51.1173 115.236 51.1778 114.994C56.336 91.834 54.2267 83.9043 54.2052 83.8262C54.2052 83.8145 54.2052 83.7969 54.1935 83.7832C51.9571 73.875 47.1915 67.1621 40.0274 63.832C34.711 61.3594 30.0274 61.7774 29.9825 61.7813C29.7844 61.7979 29.5873 61.7384 29.4315 61.6149C29.2757 61.4913 29.1729 61.313 29.144 61.1163C29.1151 60.9195 29.1624 60.7192 29.2761 60.556C29.3898 60.3929 29.5614 60.2793 29.7559 60.2383L101.551 46.1094C101.619 46.0939 101.688 46.0886 101.758 46.0938C114.811 47.1133 121.752 56.6797 124.729 62.291C124.777 62.3817 124.806 62.4809 124.816 62.5831C124.826 62.6853 124.815 62.7884 124.785 62.8865C124.755 62.9846 124.706 63.0758 124.641 63.155C124.575 63.2341 124.495 63.2996 124.404 63.3477C124.314 63.3958 124.214 63.4255 124.112 63.4352C124.01 63.445 123.907 63.4345 123.809 63.4044C123.711 63.3743 123.62 63.3251 123.54 63.2598C123.461 63.1944 123.396 63.1141 123.348 63.0234C120.529 57.7109 113.973 48.6641 101.742 47.6602L35.5313 60.6934C37.3114 61.0704 39.0431 61.6476 40.6934 62.4141C45.9317 64.8496 52.7911 70.4707 55.7188 83.416C55.8868 84.0215 57.8849 92.0977 52.7091 115.334C51.8296 119.779 51.3861 124.299 51.3849 128.83C51.3634 135.83 52.4278 145.85 57.6349 153.83L57.6505 153.855C59.9237 157.396 62.612 160.652 65.6583 163.555C70.3185 168.02 77.838 173.49 87.1993 174.201C90.7052 174.396 93.7013 172.916 95.2071 170.211C97.1602 166.682 96.1837 161.719 92.5431 156.594C92.4697 156.491 92.4225 156.371 92.4056 156.245C92.3887 156.12 92.4026 155.992 92.446 155.873C92.4894 155.754 92.5612 155.648 92.655 155.563C92.7488 155.477 92.8618 155.416 92.9845 155.385L136.561 144.057C132.328 141.967 129.055 139.564 126.779 136.881C126.568 136.656 124.973 134.889 123.518 131.305C123.44 131.113 123.442 130.897 123.523 130.707C123.604 130.516 123.757 130.365 123.949 130.287C124.141 130.209 124.357 130.211 124.547 130.292C124.738 130.373 124.889 130.527 124.967 130.719C126.369 134.174 127.906 135.797 127.922 135.818L127.957 135.855C130.623 139.012 134.615 141.496 138.955 143.438L161.846 137.488C161.999 137.448 162.161 137.456 162.31 137.51C162.459 137.564 162.588 137.662 162.68 137.791C165.049 141.123 166.641 146.9 165.219 149.648C164.976 150.148 164.594 150.567 164.118 150.855C163.643 151.143 163.095 151.288 162.539 151.271H162.453C157.679 150.664 152.955 149.711 148.318 148.422C145.068 147.537 141.882 146.427 138.785 145.102L94.4493 156.625C97.9239 161.938 98.7032 167.123 96.5724 170.975C94.879 173.977 91.5626 175.781 87.7774 175.781ZM141.293 144.434C151.115 148.309 161.766 149.615 162.551 149.707C162.813 149.718 163.073 149.649 163.296 149.51C163.519 149.371 163.694 149.167 163.799 148.926C164.775 147.02 163.729 142.312 161.67 139.131L141.293 144.434Z" fill="#141416"/>
<path d="M54.9492 83.6113C54.2532 80.3807 53.1321 77.2565 51.6152 74.3203L33.8418 78.9004L34.8477 90.6758L55.1387 84.7207C55.0332 83.9844 54.9492 83.6113 54.9492 83.6113Z" fill="#00D47E"/>
<path d="M34.8435 91.4571C34.6473 91.4578 34.4581 91.3846 34.3133 91.2522C34.1686 91.1198 34.079 90.9377 34.0623 90.7422L33.0564 78.9668C33.041 78.7826 33.0914 78.5989 33.1987 78.4483C33.306 78.2978 33.4632 78.1901 33.6424 78.1446L51.4158 73.5645C51.586 73.5203 51.7661 73.5348 51.927 73.6057C52.088 73.6766 52.2203 73.7997 52.3025 73.9551C53.8487 76.9527 54.9933 80.141 55.7068 83.4375C55.7068 83.4532 55.7967 83.8536 55.9021 84.6094C55.928 84.7948 55.8865 84.9834 55.785 85.1408C55.6836 85.2982 55.529 85.4139 55.3494 85.4668L35.0642 91.4258C34.9925 91.4467 34.9182 91.4573 34.8435 91.4571ZM34.6736 79.4922L35.5467 89.6485L54.2635 84.1543C54.2244 83.918 54.1951 83.7891 54.1932 83.7637C53.5486 80.8045 52.5472 77.9346 51.2107 75.2168L34.6736 79.4922Z" fill="#141416"/>
<path d="M52.1483 75.3906C46.1756 62.9512 35.4608 61.1836 31.1678 60.9961L29.8143 61.0098C24.8045 61.7188 21.2713 67.3008 21.2713 67.3008C16.2459 74.1914 20.2674 83.1406 20.2674 83.1406C26.2987 93.9727 36.8533 90.2051 36.8533 90.2051C46.4041 85.4941 40.369 77.959 40.369 77.959L52.1483 75.3906Z" fill="#00D47E"/>
<path d="M32.5721 91.6211C31.9558 91.621 31.3401 91.5839 30.7283 91.5098C27.4529 91.1191 22.8592 89.4023 19.5838 83.5195L19.5545 83.4609C19.3826 83.0703 15.4139 74.0313 20.6268 66.8594C20.9197 66.4023 24.5115 60.9688 29.7068 60.2285C29.7407 60.2266 29.7746 60.2266 29.8084 60.2285L31.1619 60.2148H31.2029C35.6639 60.4102 46.7049 62.2461 52.8553 75.0586C52.9065 75.1646 52.9331 75.2807 52.9331 75.3984C52.9331 75.5161 52.9065 75.6323 52.8553 75.7383C52.8037 75.8445 52.7288 75.9376 52.6361 76.0106C52.5434 76.0837 52.4354 76.1348 52.3201 76.1602L41.6561 78.4902C42.408 79.7813 43.4451 82.1562 42.867 84.7578C42.3103 87.2656 40.4041 89.3379 37.2029 90.918L37.1209 90.9531C35.6491 91.4133 34.114 91.6387 32.5721 91.6211ZM20.9666 82.793C23.3279 87.0117 26.6541 89.4199 30.8553 89.9512C32.7671 90.1899 34.7077 90.0296 36.5545 89.4805C39.2771 88.1289 40.8865 86.4238 41.3377 84.416C42.0271 81.3457 39.7752 78.4746 39.7615 78.4473C39.6783 78.3435 39.623 78.2202 39.6008 78.089C39.5786 77.9579 39.5903 77.8233 39.6347 77.6979C39.6791 77.5725 39.7548 77.4605 39.8546 77.3726C39.9543 77.2846 40.0749 77.2236 40.2049 77.1953L51.0037 74.8359C45.158 63.6113 35.2439 61.9453 31.1561 61.7715L29.8787 61.7852C25.3143 62.4688 21.9646 67.666 21.9314 67.7188C21.9235 67.7338 21.9143 67.7481 21.9041 67.7617C17.3318 74.0234 20.7361 82.2539 20.9666 82.793Z" fill="#141416"/>
<path d="M93.1504 156.039C93.1504 156.039 156.484 136.359 160.004 135.418C160.004 135.418 168.045 141.541 165.029 150.49L90.6367 174.514C90.6367 174.514 101.695 167.445 93.1504 156.039Z" fill="#00D47E"/>
<path d="M90.6368 175.291C90.4679 175.291 90.3036 175.236 90.1686 175.135C90.0335 175.033 89.935 174.891 89.8877 174.729C89.8404 174.566 89.8469 174.393 89.9063 174.235C89.9656 174.077 90.0746 173.943 90.2168 173.852C90.2598 173.824 94.5957 170.986 95.459 166.195C96.0157 163.107 95.0274 159.848 92.5293 156.508C92.4542 156.408 92.4042 156.291 92.3834 156.168C92.3627 156.045 92.3718 155.918 92.4101 155.799C92.4484 155.68 92.5146 155.572 92.6034 155.484C92.6921 155.396 92.8007 155.33 92.92 155.293C95.5079 154.492 156.307 135.6 159.801 134.664C159.916 134.633 160.037 134.629 160.154 134.652C160.271 134.675 160.382 134.725 160.477 134.797C161.991 136.036 163.288 137.52 164.313 139.188C166.576 142.859 167.08 146.854 165.77 150.738C165.731 150.854 165.665 150.959 165.578 151.045C165.491 151.131 165.386 151.195 165.27 151.232L90.877 175.256C90.7992 175.28 90.7182 175.292 90.6368 175.291ZM94.4141 156.465C96.7168 159.869 97.584 163.236 96.9942 166.488C96.5196 169.102 95.1875 171.176 93.9043 172.633L164.412 149.869C165.428 146.531 164.957 143.229 163.014 140.053C162.144 138.644 161.069 137.373 159.824 136.281C154.002 137.961 102.4 153.984 94.4141 156.465Z" fill="#141416"/>
<path d="M118.75 131.25C137.735 131.25 153.125 115.86 153.125 96.875C153.125 77.8902 137.735 62.5 118.75 62.5C99.7652 62.5 84.375 77.8902 84.375 96.875C84.375 115.86 99.7652 131.25 118.75 131.25Z" fill="#FCFCFD"/>
<path d="M118.75 132.031C99.3652 132.031 83.5938 116.26 83.5938 96.875C83.5938 77.4902 99.3652 61.7188 118.75 61.7188C138.135 61.7188 153.906 77.4902 153.906 96.875C153.906 116.26 138.135 132.031 118.75 132.031ZM118.75 63.2812C100.227 63.2812 85.1562 78.3516 85.1562 96.875C85.1562 115.398 100.227 130.469 118.75 130.469C137.273 130.469 152.344 115.398 152.344 96.875C152.344 78.3516 137.273 63.2812 118.75 63.2812Z" fill="#141416"/>
<path d="M150.549 121.958L144.03 128.477C142.81 129.697 142.81 131.676 144.03 132.896L162.732 151.599C163.953 152.819 165.931 152.819 167.152 151.599L173.67 145.08C174.891 143.86 174.891 141.881 173.67 140.661L154.968 121.958C153.748 120.738 151.769 120.738 150.549 121.958Z" fill="#FCFCFD"/>
<path d="M164.942 153.295C164.428 153.296 163.92 153.195 163.446 152.999C162.972 152.802 162.541 152.513 162.18 152.148L143.477 133.449C142.744 132.717 142.333 131.723 142.333 130.688C142.333 129.652 142.744 128.658 143.477 127.926L150 121.406C150.733 120.674 151.726 120.263 152.762 120.263C153.798 120.263 154.791 120.674 155.524 121.406L174.219 140.109C174.951 140.842 175.363 141.835 175.363 142.871C175.363 143.907 174.951 144.9 174.219 145.633L167.703 152.148C167.342 152.513 166.911 152.802 166.437 152.999C165.963 153.195 165.455 153.296 164.942 153.295ZM152.758 121.826C152.45 121.825 152.145 121.885 151.86 122.003C151.575 122.12 151.317 122.293 151.1 122.512L144.582 129.029C144.364 129.247 144.19 129.506 144.072 129.791C143.954 130.076 143.893 130.381 143.893 130.689C143.893 130.998 143.954 131.303 144.072 131.588C144.19 131.873 144.364 132.132 144.582 132.35L163.281 151.047C163.499 151.265 163.758 151.439 164.043 151.557C164.328 151.675 164.633 151.736 164.942 151.736C165.25 151.736 165.555 151.675 165.84 151.557C166.125 151.439 166.384 151.265 166.602 151.047L173.117 144.531C173.336 144.314 173.509 144.055 173.627 143.77C173.746 143.485 173.807 143.18 173.807 142.871C173.807 142.563 173.746 142.257 173.627 141.972C173.509 141.687 173.336 141.429 173.117 141.211L154.414 122.512C154.197 122.293 153.939 122.12 153.655 122.003C153.371 121.885 153.066 121.825 152.758 121.826Z" fill="#141416"/>
<path d="M140.498 123.494L144.756 127.752L149.639 122.869L145.381 118.611C143.92 120.397 142.284 122.033 140.498 123.494Z" fill="#00D47E"/>
<path d="M144.756 128.533C144.654 128.533 144.552 128.513 144.457 128.474C144.362 128.435 144.276 128.377 144.204 128.305L139.946 124.047C139.869 123.97 139.809 123.877 139.77 123.775C139.731 123.674 139.713 123.565 139.719 123.456C139.724 123.347 139.753 123.24 139.802 123.143C139.851 123.046 139.92 122.96 140.004 122.891C141.748 121.464 143.344 119.867 144.77 118.123C144.839 118.038 144.925 117.969 145.023 117.92C145.12 117.87 145.227 117.842 145.336 117.836C145.445 117.831 145.554 117.848 145.656 117.888C145.758 117.927 145.851 117.987 145.928 118.064L150.186 122.322C150.259 122.395 150.316 122.481 150.356 122.576C150.395 122.671 150.415 122.772 150.415 122.875C150.415 122.978 150.395 123.079 150.356 123.174C150.316 123.269 150.259 123.355 150.186 123.428L145.303 128.311C145.157 128.453 144.961 128.533 144.756 128.533ZM141.655 123.545L144.756 126.647L148.528 122.875L145.426 119.773C144.265 121.123 143.004 122.384 141.655 123.545Z" fill="#141416"/>
<path d="M93.7875 91.4062C93.699 91.4065 93.611 91.3913 93.5278 91.3613C93.3325 91.2923 93.1727 91.1487 93.0833 90.9619C92.994 90.7751 92.9824 90.5605 93.0512 90.3652C95.4981 83.4204 100.509 77.6748 107.057 74.3066C107.149 74.2542 107.25 74.2208 107.354 74.2085C107.459 74.1962 107.565 74.2052 107.666 74.235C107.768 74.2648 107.862 74.3148 107.943 74.3819C108.024 74.449 108.091 74.532 108.14 74.6256C108.188 74.7193 108.217 74.8218 108.225 74.927C108.233 75.0322 108.219 75.1378 108.185 75.2376C108.151 75.3374 108.097 75.4292 108.026 75.5075C107.955 75.5858 107.87 75.649 107.774 75.6933C101.583 78.8818 96.8454 84.3166 94.5317 90.8847C94.4775 91.0384 94.3766 91.1713 94.2432 91.2648C94.1098 91.3583 93.9504 91.4078 93.7875 91.4062Z" fill="#141416"/>
<path d="M114.063 73.3535C113.871 73.3536 113.685 73.2829 113.542 73.1549C113.399 73.0269 113.308 72.8506 113.286 72.6597C113.265 72.4688 113.314 72.2767 113.425 72.1201C113.537 71.9634 113.702 71.8532 113.889 71.8106C115.997 71.333 118.151 71.0926 120.313 71.0938C120.52 71.0938 120.719 71.1761 120.865 71.3226C121.012 71.4691 121.094 71.6678 121.094 71.875C121.094 72.0822 121.012 72.2809 120.865 72.4274C120.719 72.5739 120.52 72.6563 120.313 72.6563C118.268 72.6557 116.23 72.883 114.237 73.334C114.18 73.3471 114.121 73.3537 114.063 73.3535Z" fill="#141416"/>
</g>
<defs>
<clipPath id="clip0_196_5209">
<rect width="200" height="200" fill="white"/>
</clipPath>
</defs>
</svg>
