<svg viewBox="0 0 24 24" fill="none" xmlns="http://www.w3.org/2000/svg">
<path d="M14 4.25195H13.25C13.25 4.59417 13.4816 4.89298 13.8131 4.97828L14 4.25195ZM16.0615 5.1084L15.6801 5.75418C15.9746 5.92812 16.3495 5.88077 16.5915 5.63905L16.0615 5.1084ZM17.6572 3.51465L18.1876 2.98432C17.8948 2.69155 17.4202 2.69141 17.1272 2.98399L17.6572 3.51465ZM20.4854 6.34277L21.0157 6.8731C21.3086 6.58021 21.3086 6.10534 21.0157 5.81244L20.4854 6.34277ZM18.8906 7.9375L18.3603 7.40717C18.1183 7.64919 18.0708 8.02434 18.2449 8.31902L18.8906 7.9375ZM19.748 10L19.0217 10.1869C19.107 10.5184 19.4058 10.75 19.748 10.75V10ZM22 10H22.75C22.75 9.58579 22.4142 9.25 22 9.25V10ZM22 14V14.75C22.4142 14.75 22.75 14.4142 22.75 14H22ZM19.748 14V13.25C19.4058 13.25 19.107 13.4816 19.0217 13.8131L19.748 14ZM18.8906 16.0615L18.2449 15.6801C18.0709 15.9747 18.1183 16.3497 18.3601 16.5917L18.8906 16.0615ZM20.4854 17.6572L21.0157 18.1876C21.3085 17.8947 21.3086 17.42 21.0158 17.1271L20.4854 17.6572ZM17.6572 20.4854L17.1271 21.0158C17.42 21.3086 17.8947 21.3085 18.1876 21.0157L17.6572 20.4854ZM16.0615 18.8906L16.5917 18.3601C16.3497 18.1183 15.9747 18.0709 15.6801 18.2449L16.0615 18.8906ZM14 19.7471L13.813 19.0207C13.4816 19.1061 13.25 19.4049 13.25 19.7471H14ZM14 22V22.75C14.4142 22.75 14.75 22.4142 14.75 22H14ZM10 22H9.25C9.25 22.4142 9.58579 22.75 10 22.75V22ZM10 19.7471H10.75C10.75 19.4049 10.5184 19.1061 10.187 19.0207L10 19.7471ZM7.9375 18.8906L8.31902 18.2449C8.02434 18.0708 7.64919 18.1183 7.40717 18.3603L7.9375 18.8906ZM6.34277 20.4854L5.81244 21.0157C6.10534 21.3086 6.58021 21.3086 6.8731 21.0157L6.34277 20.4854ZM3.51465 17.6572L2.98399 17.1272C2.69141 17.4202 2.69155 17.8948 2.98432 18.1876L3.51465 17.6572ZM5.1084 16.0615L5.63905 16.5915C5.88077 16.3495 5.92812 15.9746 5.75418 15.6801L5.1084 16.0615ZM4.25195 14L4.97828 13.8131C4.89298 13.4816 4.59417 13.25 4.25195 13.25V14ZM2 14H1.25C1.25 14.4142 1.58579 14.75 2 14.75V14ZM2 10V9.25C1.58579 9.25 1.25 9.58579 1.25 10H2ZM4.25195 10V10.75C4.59417 10.75 4.89298 10.5184 4.97828 10.1869L4.25195 10ZM5.1084 7.9375L5.75414 8.31897C5.92817 8.02438 5.88076 7.64935 5.63889 7.40733L5.1084 7.9375ZM3.51465 6.34277L2.98432 5.81244C2.69149 6.10527 2.69142 6.58002 2.98416 6.87294L3.51465 6.34277ZM6.34277 3.51465L6.87294 2.98416C6.58002 2.69142 6.10527 2.69149 5.81244 2.98432L6.34277 3.51465ZM7.9375 5.1084L7.40733 5.63889C7.64935 5.88076 8.02438 5.92817 8.31897 5.75414L7.9375 5.1084ZM10 4.25195L10.1869 4.97828C10.5184 4.89298 10.75 4.59417 10.75 4.25195H10ZM10 2V1.25C9.58579 1.25 9.25 1.58579 9.25 2H10ZM14 2H14.75C14.75 1.58579 14.4142 1.25 14 1.25V2ZM14 4.25195L13.8131 4.97828C14.4759 5.14888 15.1025 5.413 15.6801 5.75418L16.0615 5.1084L16.4429 4.46262C15.7481 4.05226 14.9911 3.73259 14.1869 3.52562L14 4.25195ZM16.0615 5.1084L16.5915 5.63905L18.1872 4.0453L17.6572 3.51465L17.1272 2.98399L15.5315 4.57774L16.0615 5.1084ZM17.6572 3.51465L17.1269 4.04498L19.955 6.8731L20.4854 6.34277L21.0157 5.81244L18.1876 2.98432L17.6572 3.51465ZM20.4854 6.34277L19.955 5.81244L18.3603 7.40717L18.8906 7.9375L19.421 8.46783L21.0157 6.8731L20.4854 6.34277ZM18.8906 7.9375L18.2449 8.31902C18.5865 8.89716 18.8511 9.52392 19.0217 10.1869L19.748 10L20.4744 9.81306C20.2672 9.00822 19.9469 8.25094 19.5363 7.55598L18.8906 7.9375ZM19.748 10V10.75H22V10V9.25H19.748V10ZM22 10H21.25V14H22H22.75V10H22ZM22 14V13.25H19.748V14V14.75H22V14ZM19.748 14L19.0217 13.8131C18.8512 14.4755 18.5864 15.1018 18.2449 15.6801L18.8906 16.0615L19.5364 16.443C19.9466 15.7485 20.2672 14.9918 20.4744 14.1869L19.748 14ZM18.8906 16.0615L18.3601 16.5917L19.9549 18.1874L20.4854 17.6572L21.0158 17.1271L19.4211 15.5314L18.8906 16.0615ZM20.4854 17.6572L19.955 17.1269L17.1269 19.955L17.6572 20.4854L18.1876 21.0157L21.0157 18.1876L20.4854 17.6572ZM17.6572 20.4854L18.1874 19.9549L16.5917 18.3601L16.0615 18.8906L15.5314 19.4211L17.1271 21.0158L17.6572 20.4854ZM16.0615 18.8906L15.6801 18.2449C15.1024 18.5861 14.476 18.8501 13.813 19.0207L14 19.7471L14.187 20.4734C14.9911 20.2664 15.748 19.9469 16.443 19.5364L16.0615 18.8906ZM14 19.7471H13.25V22H14H14.75V19.7471H14ZM14 22V21.25H10V22V22.75H14V22ZM10 22H10.75V19.7471H10H9.25V22H10ZM10 19.7471L10.187 19.0207C9.52342 18.8499 8.89654 18.5861 8.31902 18.2449L7.9375 18.8906L7.55598 19.5363C8.25142 19.9472 9.00889 20.2664 9.81304 20.4734L10 19.7471ZM7.9375 18.8906L7.40717 18.3603L5.81244 19.955L6.34277 20.4854L6.8731 21.0157L8.46783 19.421L7.9375 18.8906ZM6.34277 20.4854L6.8731 19.955L4.04498 17.1269L3.51465 17.6572L2.98432 18.1876L5.81244 21.0157L6.34277 20.4854ZM3.51465 17.6572L4.0453 18.1872L5.63905 16.5915L5.1084 16.0615L4.57774 15.5315L2.98399 17.1272L3.51465 17.6572ZM5.1084 16.0615L5.75418 15.6801C5.413 15.1025 5.14888 14.4759 4.97828 13.8131L4.25195 14L3.52562 14.1869C3.73259 14.9911 4.05226 15.7481 4.46262 16.4429L5.1084 16.0615ZM4.25195 14V13.25H2V14V14.75H4.25195V14ZM2 14H2.75V10H2H1.25V14H2ZM2 10V10.75H4.25195V10V9.25H2V10ZM4.25195 10L4.97828 10.1869C5.14903 9.52353 5.41295 8.89652 5.75414 8.31897L5.1084 7.9375L4.46266 7.55603C4.0519 8.25134 3.73259 9.00893 3.52562 9.81306L4.25195 10ZM5.1084 7.9375L5.63889 7.40733L4.04514 5.81261L3.51465 6.34277L2.98416 6.87294L4.57791 8.46767L5.1084 7.9375ZM3.51465 6.34277L4.04498 6.8731L6.8731 4.04498L6.34277 3.51465L5.81244 2.98432L2.98432 5.81244L3.51465 6.34277ZM6.34277 3.51465L5.81261 4.04514L7.40733 5.63889L7.9375 5.1084L8.46767 4.57791L6.87294 2.98416L6.34277 3.51465ZM7.9375 5.1084L8.31897 5.75414C8.89652 5.41295 9.52353 5.14903 10.1869 4.97828L10 4.25195L9.81306 3.52562C9.00893 3.73259 8.25134 4.0519 7.55603 4.46266L7.9375 5.1084ZM10 4.25195H10.75V2H10H9.25V4.25195H10ZM10 2V2.75H14V2V1.25H10V2ZM14 2H13.25V4.25195H14H14.75V2H14Z" fill="#6C7275"/>
<path d="M8.5 9L5.5 12L8.5 15" stroke="#6C7275" stroke-width="1.5" stroke-linejoin="round"/>
<path d="M15.5 9L18.5 12L15.5 15" stroke="#6C7275" stroke-width="1.5" stroke-linejoin="round"/>
<path d="M13.5 8.5L10.5 15.5" stroke="#6C7275" stroke-width="1.5"/>
</svg>
