<svg width="32" height="32" viewBox="0 0 20 20" fill="none" xmlns="http://www.w3.org/2000/svg">
    <path
        d="M11.5 3.16309H10.75C10.75 3.51564 10.9955 3.8206 11.34 3.89582L11.5 3.16309ZM13.7725 4.10449L13.3676 4.73585C13.6642 4.92602 14.0532 4.88412 14.3025 4.63516L13.7725 4.10449ZM15.3037 2.5752L15.834 2.04487C15.5413 1.7521 15.0667 1.75195 14.7737 2.04453L15.3037 2.5752ZM17.4248 4.69629L17.9551 5.22662C18.248 4.93373 18.248 4.45885 17.9551 4.16596L17.4248 4.69629ZM15.8945 6.22656L15.3642 5.69623C15.1149 5.94552 15.0729 6.33478 15.2633 6.63152L15.8945 6.22656ZM16.8369 8.5L16.1042 8.66002C16.1794 9.00445 16.4844 9.25 16.8369 9.25V8.5ZM19 8.5H19.75C19.75 8.08579 19.4142 7.75 19 7.75V8.5ZM19 11.5V12.25C19.4142 12.25 19.75 11.9142 19.75 11.5H19ZM16.8369 11.5V10.75C16.4844 10.75 16.1794 10.9955 16.1042 11.34L16.8369 11.5ZM15.8945 13.7725L15.2632 13.3676C15.073 13.6642 15.1149 14.0533 15.364 14.3026L15.8945 13.7725ZM17.4248 15.3037L17.9551 15.834C18.248 15.5412 18.248 15.0665 17.9553 14.7736L17.4248 15.3037ZM15.3037 17.4248L14.7736 17.9553C15.0665 18.248 15.5412 18.248 15.834 17.9551L15.3037 17.4248ZM13.7725 15.8945L14.3026 15.364C14.0533 15.1149 13.6642 15.073 13.3676 15.2632L13.7725 15.8945ZM11.5 16.8359L11.34 16.1032C10.9955 16.1784 10.75 16.4834 10.75 16.8359H11.5ZM11.5 19V19.75C11.9142 19.75 12.25 19.4142 12.25 19H11.5ZM8.5 19H7.75C7.75 19.4142 8.08579 19.75 8.5 19.75V19ZM8.5 16.8359H9.25C9.25 16.4834 9.00447 16.1784 8.66004 16.1032L8.5 16.8359ZM6.22656 15.8945L6.63152 15.2633C6.33478 15.0729 5.94552 15.1149 5.69623 15.3642L6.22656 15.8945ZM4.69629 17.4248L4.16596 17.9551C4.45885 18.248 4.93373 18.248 5.22662 17.9551L4.69629 17.4248ZM2.5752 15.3037L2.04453 14.7737C1.75195 15.0667 1.7521 15.5413 2.04487 15.834L2.5752 15.3037ZM4.10449 13.7725L4.63516 14.3025C4.88412 14.0532 4.92602 13.6642 4.73585 13.3676L4.10449 13.7725ZM3.16309 11.5L3.89582 11.34C3.8206 10.9955 3.51564 10.75 3.16309 10.75V11.5ZM1 11.5H0.25C0.25 11.9142 0.585786 12.25 1 12.25L1 11.5ZM1 8.5V7.75C0.585786 7.75 0.25 8.08579 0.25 8.5H1ZM3.16309 8.5V9.25C3.51564 9.25 3.8206 9.00445 3.89582 8.66002L3.16309 8.5ZM4.10449 6.22656L4.7358 6.63147C4.92607 6.33481 4.88412 5.94569 4.63499 5.6964L4.10449 6.22656ZM2.5752 4.69629L2.04487 4.16596C1.75204 4.45879 1.75196 4.93353 2.0447 5.22645L2.5752 4.69629ZM4.69629 2.5752L5.22645 2.0447C4.93353 1.75196 4.45879 1.75204 4.16596 2.04487L4.69629 2.5752ZM6.22656 4.10449L5.6964 4.63499C5.94569 4.88412 6.33481 4.92607 6.63147 4.7358L6.22656 4.10449ZM8.5 3.16309L8.66002 3.89582C9.00445 3.8206 9.25 3.51564 9.25 3.16309H8.5ZM8.5 1V0.25C8.08579 0.25 7.75 0.585786 7.75 1L8.5 1ZM11.5 1H12.25C12.25 0.585786 11.9142 0.25 11.5 0.25V1ZM11.5 3.16309L11.34 3.89582C12.0722 4.05571 12.7559 4.34359 13.3676 4.73585L13.7725 4.10449L14.1773 3.47314C13.4185 2.98656 12.5693 2.62894 11.66 2.43036L11.5 3.16309ZM13.7725 4.10449L14.3025 4.63516L15.8337 3.10586L15.3037 2.5752L14.7737 2.04453L13.2425 3.57382L13.7725 4.10449ZM15.3037 2.5752L14.7734 3.10553L16.8945 5.22662L17.4248 4.69629L17.9551 4.16596L15.834 2.04487L15.3037 2.5752ZM17.4248 4.69629L16.8945 4.16596L15.3642 5.69623L15.8945 6.22656L16.4249 6.75689L17.9551 5.22662L17.4248 4.69629ZM15.8945 6.22656L15.2633 6.63152C15.6559 7.24367 15.9442 7.92762 16.1042 8.66002L16.8369 8.5L17.5696 8.33998C17.3709 7.42998 17.0127 6.58061 16.5258 5.82161L15.8945 6.22656ZM16.8369 8.5V9.25H19V8.5V7.75H16.8369V8.5ZM19 8.5H18.25V11.5H19H19.75V8.5H19ZM19 11.5V10.75H16.8369V11.5V12.25H19V11.5ZM16.8369 11.5L16.1042 11.34C15.9444 12.0718 15.6559 12.7553 15.2632 13.3676L15.8945 13.7725L16.5259 14.1773C17.0123 13.4188 17.3709 12.57 17.5696 11.66L16.8369 11.5ZM15.8945 13.7725L15.364 14.3026L16.8943 15.8339L17.4248 15.3037L17.9553 14.7736L16.425 13.2423L15.8945 13.7725ZM17.4248 15.3037L16.8945 14.7734L14.7734 16.8945L15.3037 17.4248L15.834 17.9551L17.9551 15.834L17.4248 15.3037ZM15.3037 17.4248L15.8339 16.8943L14.3026 15.364L13.7725 15.8945L13.2423 16.425L14.7736 17.9553L15.3037 17.4248ZM13.7725 15.8945L13.3676 15.2632C12.7559 15.6555 12.0723 15.9433 11.34 16.1032L11.5 16.8359L11.66 17.5687C12.5694 17.37 13.4184 17.0126 14.1773 16.5259L13.7725 15.8945ZM11.5 16.8359H10.75V19H11.5H12.25V16.8359H11.5ZM11.5 19V18.25H8.5V19V19.75H11.5V19ZM8.5 19H9.25V16.8359H8.5H7.75V19H8.5ZM8.5 16.8359L8.66004 16.1032C7.92715 15.9431 7.24313 15.6556 6.63152 15.2633L6.22656 15.8945L5.82161 16.5258C6.58104 17.013 7.4306 17.37 8.33996 17.5687L8.5 16.8359ZM6.22656 15.8945L5.69623 15.3642L4.16596 16.8945L4.69629 17.4248L5.22662 17.9551L6.75689 16.4249L6.22656 15.8945ZM4.69629 17.4248L5.22662 16.8945L3.10553 14.7734L2.5752 15.3037L2.04487 15.834L4.16596 17.9551L4.69629 17.4248ZM2.5752 15.3037L3.10586 15.8337L4.63516 14.3025L4.10449 13.7725L3.57382 13.2425L2.04453 14.7737L2.5752 15.3037ZM4.10449 13.7725L4.73585 13.3676C4.34359 12.7559 4.05571 12.0722 3.89582 11.34L3.16309 11.5L2.43036 11.66C2.62894 12.5693 2.98656 13.4185 3.47314 14.1773L4.10449 13.7725ZM3.16309 11.5V10.75H1V11.5V12.25H3.16309V11.5ZM1 11.5H1.75V8.5H1H0.25V11.5H1ZM1 8.5V9.25H3.16309V8.5V7.75H1V8.5ZM3.16309 8.5L3.89582 8.66002C4.05584 7.92729 4.34351 7.2431 4.7358 6.63147L4.10449 6.22656L3.47319 5.82165C2.98618 6.58096 2.62894 7.43066 2.43036 8.33998L3.16309 8.5ZM4.10449 6.22656L4.63499 5.6964L3.10569 4.16613L2.5752 4.69629L2.0447 5.22645L3.57399 6.75672L4.10449 6.22656ZM2.5752 4.69629L3.10553 5.22662L5.22662 3.10553L4.69629 2.5752L4.16596 2.04487L2.04487 4.16596L2.5752 4.69629ZM4.69629 2.5752L4.16613 3.10569L5.6964 4.63499L6.22656 4.10449L6.75672 3.57399L5.22645 2.0447L4.69629 2.5752ZM6.22656 4.10449L6.63147 4.7358C7.2431 4.34351 7.92729 4.05584 8.66002 3.89582L8.5 3.16309L8.33998 2.43036C7.43066 2.62894 6.58096 2.98618 5.82165 3.47319L6.22656 4.10449ZM8.5 3.16309H9.25V1H8.5H7.75V3.16309H8.5ZM8.5 1V1.75H11.5V1V0.25H8.5V1ZM11.5 1H10.75V3.16309H11.5H12.25V1H11.5Z"
        fill="currentColor" />
    <circle cx="10" cy="10" r="3" stroke="currentColor" stroke-width="1.5" />
</svg>
