<svg width="18" height="19" viewBox="0 0 18 19" fill="none" xmlns="http://www.w3.org/2000/svg">
<path d="M9.1875 5C9.1875 6.13925 10.1111 7.0625 11.25 7.0625H14.9932C14.9968 7.10458 15 7.14685 15 7.18945V15.5C15 16.3284 14.3284 17 13.5 17H4.5C3.67157 17 3 16.3284 3 15.5V3.5C3 2.67157 3.67157 2 4.5 2H9.1875V5ZM8.4375 10.4375H6V11.5625H8.4375V14H9.5625V11.5625H12V10.4375H9.5625V8H8.4375V10.4375ZM14.3447 5.9375H11.25C10.7321 5.9375 10.3125 5.51761 10.3125 5V2.48242L14.3447 5.9375Z" fill="currentColor"/>
</svg>
