<svg viewBox="0 0 18 18" fill="none" xmlns="http://www.w3.org/2000/svg">
<path d="M16.5961 12.6283L10.9215 7.95167C11.221 7.30098 11.3787 6.58537 11.3787 5.8658C11.3787 3.11998 9.14506 0.885681 6.3986 0.885681C5.90562 0.885681 5.41929 0.955924 4.95279 1.09772L4.41044 1.26206L7.49188 4.34448C7.62308 4.47436 7.69397 4.64797 7.69397 4.8335C7.69397 5.01903 7.62308 5.19263 7.49188 5.32383L5.85724 6.95914C5.59681 7.21888 5.13866 7.22021 4.87791 6.95914L1.79615 3.87799L1.63215 4.41867C1.49035 4.88646 1.41846 5.37283 1.41846 5.86578C1.41846 8.61029 3.65276 10.8446 6.3986 10.8446C7.11949 10.8446 7.83446 10.6883 8.48446 10.3887L10.9573 13.4181C10.9692 13.4658 10.9891 13.5109 11.0209 13.5506C11.054 13.593 11.0965 13.6249 11.1428 13.6461L13.1412 16.0937C13.3904 16.384 13.7482 16.5522 14.1219 16.5522C14.4651 16.5522 14.7905 16.4144 15.0389 16.1666L16.6742 14.5313C16.9366 14.2689 17.0731 13.9257 17.0586 13.5652C17.0453 13.2048 16.883 12.8735 16.5961 12.6283ZM16.1945 14.0516L14.5592 15.6869C14.3061 15.9387 13.8847 15.9201 13.6614 15.6577L12.7172 14.5022L13.8542 13.5851C14.0007 13.4672 14.0225 13.2525 13.9059 13.1067C13.7879 12.961 13.5746 12.9384 13.4288 13.0551L12.2878 13.976L11.7909 13.3665L12.8126 12.5422C12.9584 12.4242 12.9816 12.2109 12.863 12.0651C12.7464 11.918 12.5323 11.8955 12.3866 12.0134L11.3616 12.8404L8.66206 9.53397L8.4169 9.66384C7.79934 9.99381 7.1023 10.1661 6.39861 10.1661C4.02649 10.1661 2.09699 8.23791 2.09699 5.86578C2.09699 5.63786 2.11455 5.41258 2.14966 5.18995L4.39821 7.43882C4.91405 7.95563 5.82081 7.95563 6.33699 7.43882L7.97163 5.80351C8.23069 5.54508 8.37252 5.20054 8.37252 4.83346C8.37252 4.46772 8.23069 4.12183 7.97163 3.86473L5.72341 1.61586C5.94602 1.5814 6.17199 1.56416 6.3986 1.56416C8.77072 1.56416 10.7002 3.49233 10.7002 5.86577C10.7002 6.56814 10.5266 7.26653 10.198 7.88272L10.0681 8.12789L16.1601 13.1478C16.2959 13.2644 16.3748 13.4221 16.3807 13.5918C16.388 13.7614 16.3211 13.9244 16.1945 14.0516Z" fill="currentColor" stroke="currentColor" stroke-width="0.3"/>
</svg>
