<svg width="35" height="35" viewBox="0 0 35 35" fill="none" xmlns="http://www.w3.org/2000/svg">
<path d="M18.3183 2.45032H20.2863V5.57434C23.9969 5.59519 27.7109 5.53606 31.418 5.59177C32.2164 5.51555 32.8412 6.13694 32.7612 6.93503C32.8204 13.4193 32.7472 19.9069 32.7954 26.3946C32.7612 27.0956 32.8638 27.8732 32.4622 28.4946C31.9553 28.8623 31.296 28.8138 30.7026 28.8418C27.2313 28.8244 23.7604 28.8312 20.2857 28.8312V32.3022H18.1272C12.8376 31.3369 7.53663 30.4541 2.24323 29.5251C2.23981 21.4268 2.23981 13.3297 2.24323 5.23391C7.59952 4.30662 12.9541 3.36292 18.3183 2.45032Z" fill="#868695"/>
<path d="M4.73456 18.7137V15.1891H3.56903V14.4713H6.68998V15.1891H5.52787V18.7137H4.73456ZM6.80175 18.7137L8.14398 16.4999L6.92787 14.4713H7.85482L8.64095 15.8344L9.41239 14.4713H10.3315L9.1099 16.5317L10.4521 18.7137H9.49511L8.62694 17.2467L7.75365 18.7137H6.80175ZM11.7452 18.7137V15.1891H10.5796V14.4713H13.7006V15.1891H12.5385V18.7137H11.7452ZM20.1708 6.61548V16.9425H24.5096V17.3763H20.1708V20.4135H29.2537V21.715H20.1708V23.3639H29.2537V24.6654H20.1708V27.7881H31.6258V6.61548H20.1708ZM26.9421 15.1604C26.7873 15.3894 26.5791 15.7709 26.5279 16.2244C26.5234 16.2762 26.5045 16.3258 26.4733 16.3674C26.442 16.4089 26.3997 16.4409 26.3512 16.4596L24.8531 17.0017L24.6846 16.9138L25.3757 15.9879C25.4308 16.0062 25.4885 16.0153 25.5466 16.0149C25.8145 16.0122 26.0299 15.8115 26.0275 15.5675C26.0251 15.3234 25.8057 15.1269 25.5377 15.1296C25.2697 15.1324 25.0544 15.3327 25.0571 15.5771C25.0578 15.6316 25.0694 15.6854 25.0913 15.7353C25.1132 15.7791 25.1231 15.8281 25.1198 15.877C25.1165 15.9259 25.1001 15.973 25.0725 16.0135L24.4863 16.7997L24.3465 16.6691L24.3421 15.2171C24.3415 15.1637 24.3562 15.1111 24.3844 15.0657C24.4126 15.0202 24.4532 14.9837 24.5014 14.9604C24.7382 14.847 25.1914 14.5934 25.5363 14.1808C25.5812 14.1288 25.6435 14.0949 25.7116 14.0857C25.7797 14.0765 25.8488 14.0926 25.9058 14.1309L26.8628 14.7608C26.8947 14.7816 26.9221 14.8086 26.9434 14.8401C26.9647 14.8716 26.9794 14.9071 26.9868 14.9444C26.9942 14.9818 26.9941 15.0202 26.9864 15.0574C26.9787 15.0947 26.9637 15.1301 26.9421 15.1614V15.1604ZM27.6237 14.659C27.5805 14.7148 27.5183 14.7528 27.4488 14.7654C27.3794 14.778 27.3077 14.7645 27.2477 14.7273L25.7869 13.8171C25.7544 13.7969 25.7263 13.7703 25.7044 13.739C25.6824 13.7077 25.6669 13.6723 25.6589 13.6349C25.6508 13.5975 25.6504 13.5589 25.6576 13.5213C25.6648 13.4837 25.6794 13.448 25.7007 13.4162L25.7117 13.4001C25.7981 13.2713 25.8644 13.3441 25.9954 13.4275L27.4439 14.3555C27.585 14.4447 27.7259 14.5264 27.6233 14.66L27.6237 14.659ZM28.8603 12.8239L28.0362 14.0441C27.9702 14.1412 27.8684 14.2082 27.7531 14.2305C27.6379 14.2528 27.5184 14.2285 27.421 14.163L26.4452 13.5044C26.3481 13.4384 26.2811 13.3366 26.2588 13.2213C26.2365 13.106 26.2607 12.9866 26.3262 12.8892L27.1503 11.6693C27.1828 11.621 27.2245 11.5796 27.2731 11.5475C27.3216 11.5153 27.376 11.4931 27.4332 11.4821C27.4904 11.471 27.5491 11.4714 27.6062 11.4831C27.6632 11.4948 27.7173 11.5176 27.7655 11.5503L28.7417 12.2097C28.8387 12.2758 28.9055 12.3776 28.9277 12.4929C28.9499 12.6082 28.9255 12.7275 28.86 12.8249L28.8603 12.8239Z" fill="white"/>
</svg>
