<svg width="35" height="36" viewBox="0 0 35 36" fill="none" xmlns="http://www.w3.org/2000/svg">
<path d="M32.7838 6.91482C32.8569 6.12083 32.2335 5.50457 31.4399 5.58455C27.717 5.52439 23.9942 5.58455 20.2686 5.5637V2.77771H18.1853C12.8468 3.72825 7.50485 4.63572 2.16632 5.57053V29.9406C7.47716 30.8703 12.7911 31.7583 18.0917 32.7266H20.2686V29.9406C23.7549 29.9406 27.2368 29.9338 30.7228 29.9512C31.3148 29.9232 31.9731 29.9687 32.4813 29.6064C32.8887 28.9829 32.7845 28.203 32.8193 27.4995C32.7698 20.639 32.8429 13.7754 32.7838 6.91482Z" fill="#2A5699"/>
<path d="M20.2686 6.60828H31.7601V28.8962H20.2686V26.1102H29.3228V24.717H20.2686V22.9759H29.3228V21.5827H20.2686V19.8416H29.3228V18.4488H20.2686V16.7073H29.3228V15.3145H20.2686V13.5734H29.3228V12.1802H20.2686V10.4391H29.3228V9.04495H20.2686V6.60828Z" fill="white"/>
<path d="M14.7771 17.7003L15.5479 17.9584C15.4297 18.4122 15.2327 18.7497 14.957 18.971C14.6831 19.1903 14.3349 19.3 13.9124 19.3C13.3896 19.3 12.9599 19.1119 12.6233 18.7356C12.2867 18.3574 12.1184 17.8411 12.1184 17.1869C12.1184 16.4948 12.2876 15.9578 12.626 15.5758C12.9644 15.1919 13.4093 15 13.9607 15C14.4423 15 14.8335 15.1503 15.1343 15.451C15.3133 15.6287 15.4476 15.884 15.5371 16.2168L14.7502 16.4154C14.7037 16.1998 14.6061 16.0296 14.4575 15.9048C14.3107 15.78 14.1317 15.7176 13.9204 15.7176C13.6286 15.7176 13.3914 15.8282 13.2087 16.0495C13.0279 16.2707 12.9375 16.629 12.9375 17.1245C12.9375 17.6502 13.027 18.0246 13.2061 18.2477C13.3851 18.4708 13.6178 18.5824 13.9043 18.5824C14.1156 18.5824 14.2973 18.5115 14.4495 18.3697C14.6016 18.2278 14.7109 18.0047 14.7771 17.7003Z" fill="white"/>
<path d="M7.81616 17.1755C7.81616 16.752 7.87614 16.3965 7.99609 16.109C8.08561 15.8973 8.20736 15.7072 8.36133 15.5389C8.51709 15.3706 8.68717 15.2458 8.87158 15.1645C9.11686 15.0548 9.39974 15 9.72021 15C10.3003 15 10.764 15.19 11.1113 15.5701C11.4604 15.9502 11.635 16.4787 11.635 17.1557C11.635 17.827 11.4622 18.3526 11.1167 18.7327C10.7712 19.1109 10.3092 19.3 9.73096 19.3C9.14551 19.3 8.68001 19.1119 8.33447 18.7356C7.98893 18.3574 7.81616 17.8374 7.81616 17.1755ZM8.63525 17.1472C8.63525 17.618 8.7382 17.9754 8.94409 18.2193C9.14998 18.4614 9.41138 18.5824 9.72827 18.5824C10.0452 18.5824 10.3048 18.4623 10.5071 18.2222C10.7112 17.9801 10.8132 17.618 10.8132 17.1358C10.8132 16.6593 10.7139 16.3038 10.5151 16.0693C10.3182 15.8349 10.0559 15.7176 9.72827 15.7176C9.40063 15.7176 9.13656 15.8367 8.93604 16.075C8.73551 16.3114 8.63525 16.6688 8.63525 17.1472Z" fill="white"/>
<path d="M4 15.0709H5.45288C5.78052 15.0709 6.03027 15.0974 6.20215 15.1503C6.43311 15.2222 6.63094 15.3498 6.79565 15.5333C6.96037 15.7167 7.08569 15.9417 7.17163 16.2083C7.25757 16.4731 7.30054 16.8002 7.30054 17.1897C7.30054 17.532 7.26025 17.827 7.17969 18.0747C7.08122 18.3772 6.94067 18.6221 6.75806 18.8093C6.6202 18.9511 6.434 19.0618 6.19946 19.1412C6.02401 19.1998 5.78947 19.2291 5.49585 19.2291H4V15.0709ZM4.79492 15.7744V18.5285H5.38843C5.61043 18.5285 5.77067 18.5153 5.86914 18.4888C5.99805 18.4548 6.10457 18.3971 6.18872 18.3158C6.27466 18.2345 6.34448 18.1012 6.39819 17.9158C6.4519 17.7286 6.47876 17.4743 6.47876 17.1528C6.47876 16.8314 6.4519 16.5846 6.39819 16.4125C6.34448 16.2405 6.26929 16.1062 6.17261 16.0098C6.07593 15.9133 5.95329 15.8481 5.80469 15.8141C5.69368 15.7876 5.47616 15.7744 5.1521 15.7744H4.79492Z" fill="white"/>
</svg>
